<svg width="216" height="109" viewBox="0 0 216 109" fill="none" xmlns="http://www.w3.org/2000/svg">
<g clip-path="url(#clip0_548_361)">
<path fill-rule="evenodd" clip-rule="evenodd" d="M119 28.3767C122.866 28.3767 126 31.5107 126 35.3767C126 39.2427 122.866 42.3767 119 42.3767H183C186.866 42.3767 190 45.5107 190 49.3767C190 53.2427 186.866 56.3767 183 56.3767H205C208.866 56.3767 212 59.5107 212 63.3767C212 67.2427 208.866 70.3767 205 70.3767H186C182.134 70.3767 179 73.5107 179 77.3767C179 81.2427 182.134 84.3767 186 84.3767H192C195.866 84.3767 199 87.5107 199 91.3767C199 95.2427 195.866 98.3767 192 98.3767H140C139.485 98.3767 138.983 98.3211 138.5 98.2156C138.017 98.3211 137.515 98.3767 137 98.3767H46C42.134 98.3767 39 95.2427 39 91.3767C39 87.5107 42.134 84.3767 46 84.3767H7C3.13401 84.3767 0 81.2427 0 77.3767C0 73.5107 3.13401 70.3767 7 70.3767H47C50.866 70.3767 54 67.2427 54 63.3767C54 59.5107 50.866 56.3767 47 56.3767H22C18.134 56.3767 15 53.2427 15 49.3767C15 45.5107 18.134 42.3767 22 42.3767H62C58.134 42.3767 55 39.2427 55 35.3767C55 31.5107 58.134 28.3767 62 28.3767H119ZM209 84.3767C212.866 84.3767 216 87.5107 216 91.3767C216 95.2427 212.866 98.3767 209 98.3767C205.134 98.3767 202 95.2427 202 91.3767C202 87.5107 205.134 84.3767 209 84.3767Z" fill="#F3F7FF"/>
</g>
<circle cx="161" cy="56" r="3" fill="#75A4FE"/>
<circle cx="47.5" cy="102.5" r="3.5" fill="#75A4FE"/>
<circle cx="61.5" cy="9.5" r="2.5" fill="#75A4FE"/>
<rect x="82" y="12" width="52" height="96" rx="4" fill="white" stroke="#75A4FE" stroke-width="2"/>
<rect x="84" y="25" width="48" height="64" rx="2" fill="#E8F0FE"/>
<circle cx="108.001" cy="98" r="4" fill="#E8F0FE" stroke="#75A4FE" stroke-width="2"/>
<line x1="81" y1="22.75" x2="135.007" y2="22.75" stroke="#75A4FE" stroke-width="2"/>
<path d="M100.001 16H116.011" stroke="#75A4FE" stroke-width="2" stroke-linecap="round"/>
<line x1="81.0012" y1="91" x2="135.008" y2="91" stroke="#75A4FE" stroke-width="2"/>
<path d="M108.001 47.5C108.759 47.5 109.459 47.8958 109.852 48.5391V48.54L119.148 63.8066C119.378 64.1897 119.501 64.6252 119.501 65.0703C119.501 66.4114 118.413 67.5 117.071 67.5H98.9308C97.5898 67.5 96.5012 66.4114 96.5012 65.0703C96.5012 64.6778 96.594 64.2965 96.7726 63.9531L96.8537 63.8076L96.8547 63.8066L106.151 48.54L106.15 48.5391C106.542 47.8955 107.244 47.5 108.001 47.5ZM108.001 48.75C107.686 48.75 107.386 48.9122 107.218 49.1914L97.9221 64.459C97.8045 64.6476 97.7512 64.8611 97.7512 65.0703C97.7512 65.7215 98.2797 66.25 98.9308 66.25H117.071C117.723 66.25 118.251 65.7215 118.251 65.0703C118.251 64.9115 118.219 64.7525 118.154 64.6035L118.08 64.459L108.784 49.1914C108.638 48.9474 108.39 48.7929 108.119 48.7578L108.001 48.75ZM108.001 61.75C108.266 61.75 108.521 61.8554 108.708 62.043C108.896 62.2305 109.001 62.4848 109.001 62.75C109.001 63.0152 108.896 63.2695 108.708 63.457C108.521 63.6446 108.266 63.75 108.001 63.75C107.736 63.75 107.482 63.6446 107.294 63.457C107.107 63.2695 107.001 63.0152 107.001 62.75C107.001 62.4848 107.107 62.2305 107.294 62.043C107.482 61.8554 107.736 61.75 108.001 61.75ZM108.001 53.5C108.348 53.5 108.626 53.7777 108.626 54.125V58.625C108.626 58.9723 108.348 59.25 108.001 59.25C107.654 59.25 107.376 58.9723 107.376 58.625V54.125C107.376 53.7777 107.654 53.5 108.001 53.5Z" fill="#75A4FE" stroke="#75A4FE"/>
<rect x="133" y="41" width="2" height="6" fill="#F3F7FF"/>
<rect x="133" y="37" width="2" height="6" rx="1" fill="#75A4FE"/>
<path d="M133 47C133 46.4477 133.448 46 134 46C134.552 46 135 46.4477 135 47V51C135 51.5523 134.552 52 134 52C133.448 52 133 51.5523 133 51V47Z" fill="#75A4FE"/>
<rect x="144.16" y="9.42034" width="0.793901" height="4.49877" rx="0.39695" transform="rotate(82.5 144.16 9.42034)" fill="#999999" stroke="#75A4FE" stroke-width="0.793901"/>
<rect x="130.447" y="0.549017" width="0.793901" height="4.49877" rx="0.39695" transform="rotate(-7.5 130.447 0.549017)" fill="#999999" stroke="#75A4FE" stroke-width="0.793901"/>
<rect x="139.378" y="2.20818" width="0.793901" height="4.49877" rx="0.39695" transform="rotate(37.5 139.378 2.20818)" fill="#999999" stroke="#75A4FE" stroke-width="0.793901"/>
<defs>
<clipPath id="clip0_548_361">
<rect width="216" height="70" fill="white" transform="translate(0 28.3767)"/>
</clipPath>
</defs>
</svg>
