<svg width="24" height="24" viewBox="0 0 24 24" fill="none" xmlns="http://www.w3.org/2000/svg">
<path d="M21 12C21 12.6 20.6 13 20 13H6.40002L10.7 17.3C11.1 17.7 11.1 18.3 10.7 18.7C10.5 18.9 10.3 19 10 19C9.70002 19 9.50002 18.9 9.30002 18.7L3.30002 12.7C3.20002 12.6 3.10002 12.5 3.10002 12.4C3.00002 12.2 3.00002 11.9 3.10002 11.6C3.20002 11.5 3.20002 11.4 3.30002 11.3L9.30002 5.3C9.70002 4.9 10.3 4.9 10.7 5.3C11.1 5.7 11.1 6.3 10.7 6.7L6.40002 11H20C20.6 11 21 11.4 21 12Z" fill="black"/>
<mask id="mask0_11_1974" style="mask-type:luminance" maskUnits="userSpaceOnUse" x="3" y="5" width="18" height="14">
<path d="M21 12C21 12.6 20.6 13 20 13H6.40002L10.7 17.3C11.1 17.7 11.1 18.3 10.7 18.7C10.5 18.9 10.3 19 10 19C9.70002 19 9.50002 18.9 9.30002 18.7L3.30002 12.7C3.20002 12.6 3.10002 12.5 3.10002 12.4C3.00002 12.2 3.00002 11.9 3.10002 11.6C3.20002 11.5 3.20002 11.4 3.30002 11.3L9.30002 5.3C9.70002 4.9 10.3 4.9 10.7 5.3C11.1 5.7 11.1 6.3 10.7 6.7L6.40002 11H20C20.6 11 21 11.4 21 12Z" fill="white"/>
</mask>
<g mask="url(#mask0_11_1974)">
<rect width="24" height="24" fill="white"/>
</g>
</svg>
