<svg width="236" height="109" viewBox="0 0 236 109" fill="none" xmlns="http://www.w3.org/2000/svg">
<g clip-path="url(#clip0_1203_358)">
<path d="M172 63.0375C172 61.1045 173.567 59.5375 175.5 59.5375C177.433 59.5375 179 61.1045 179 63.0375V109.035H172V63.0375Z" fill="white" fill-opacity="0.1"/>
<path d="M138 63.0375C138 61.1045 139.567 59.5375 141.5 59.5375C143.433 59.5375 145 61.1045 145 63.0375V109.035H138V63.0375Z" fill="white" fill-opacity="0.1"/>
<path d="M87 83.5C87 81.567 88.567 80 90.5 80C92.433 80 94 81.567 94 83.5V109H87V83.5Z" fill="white" fill-opacity="0.1"/>
<path d="M70 77.5C70 75.567 71.567 74 73.5 74C75.433 74 77 75.567 77 77.5V109H70V77.5Z" fill="white" fill-opacity="0.1"/>
<path d="M36 80.5C36 78.567 37.567 77 39.5 77C41.433 77 43 78.567 43 80.5V109H36V80.5Z" fill="white" fill-opacity="0.1"/>
<path d="M19 77.5C19 75.567 20.567 74 22.5 74C24.433 74 26 75.567 26 77.5V109H19V77.5Z" fill="white" fill-opacity="0.1"/>
<path d="M104 71.5C104 69.567 105.567 68 107.5 68C109.433 68 111 69.567 111 71.5V109H104V71.5Z" fill="white" fill-opacity="0.1"/>
<path d="M53 63.5C53 61.567 54.567 60 56.5 60C58.433 60 60 61.567 60 63.5V109H53V63.5Z" fill="white" fill-opacity="0.1"/>
<path d="M121 63.0375C121 61.1045 122.567 59.5375 124.5 59.5375C126.433 59.5375 128 61.1045 128 63.0375V109.035H121V63.0375Z" fill="white" fill-opacity="0.1"/>
<path d="M223 3.5C223 1.567 224.567 0 226.5 0C228.433 0 230 1.567 230 3.5V130H223V3.5Z" fill="white" fill-opacity="0.1"/>
<path d="M189 22.4006C189 20.4676 190.567 18.9006 192.5 18.9006C194.433 18.9006 196 20.4676 196 22.4006V109.117H189V22.4006Z" fill="white" fill-opacity="0.1"/>
<path d="M206 38.5C206 36.567 207.567 35 209.5 35C211.433 35 213 36.567 213 38.5V114H206V38.5Z" fill="white" fill-opacity="0.1"/>
<path d="M155 38.6011C155 36.6681 156.567 35.1011 158.5 35.1011C160.433 35.1011 162 36.6681 162 38.6011V109.348H155V38.6011Z" fill="white" fill-opacity="0.1"/>
<path d="M2 96.5C2 94.567 3.567 93 5.5 93C7.433 93 9 94.567 9 96.5V109H2V96.5Z" fill="white" fill-opacity="0.1"/>
</g>
<defs>
<clipPath id="clip0_1203_358">
<rect width="236" height="109" fill="white"/>
</clipPath>
</defs>
</svg>
