<svg width="216" height="99" viewBox="0 0 216 99" fill="none" xmlns="http://www.w3.org/2000/svg">
<g clip-path="url(#clip0_1265_358)">
<path fill-rule="evenodd" clip-rule="evenodd" d="M119 21.3767C122.866 21.3767 126 24.5107 126 28.3767C126 32.2427 122.866 35.3767 119 35.3767H183C186.866 35.3767 190 38.5107 190 42.3767C190 46.2427 186.866 49.3767 183 49.3767H205C208.866 49.3767 212 52.5107 212 56.3767C212 60.2427 208.866 63.3767 205 63.3767H186C182.134 63.3767 179 66.5107 179 70.3767C179 74.2427 182.134 77.3767 186 77.3767H192C195.866 77.3767 199 80.5107 199 84.3767C199 88.2427 195.866 91.3767 192 91.3767H140C139.485 91.3767 138.983 91.3211 138.5 91.2156C138.017 91.3211 137.515 91.3767 137 91.3767H46C42.134 91.3767 39 88.2427 39 84.3767C39 80.5107 42.134 77.3767 46 77.3767H7C3.13401 77.3767 0 74.2427 0 70.3767C0 66.5107 3.13401 63.3767 7 63.3767H47C50.866 63.3767 54 60.2427 54 56.3767C54 52.5107 50.866 49.3767 47 49.3767H22C18.134 49.3767 15 46.2427 15 42.3767C15 38.5107 18.134 35.3767 22 35.3767H62C58.134 35.3767 55 32.2427 55 28.3767C55 24.5107 58.134 21.3767 62 21.3767H119ZM209 77.3767C212.866 77.3767 216 80.5107 216 84.3767C216 88.2427 212.866 91.3767 209 91.3767C205.134 91.3767 202 88.2427 202 84.3767C202 80.5107 205.134 77.3767 209 77.3767Z" fill="#F3F7FF"/>
</g>
<circle cx="161" cy="49" r="3" fill="#75A4FE"/>
<circle cx="47.5" cy="95.5" r="3.5" fill="#75A4FE"/>
<circle cx="61.5" cy="2.5" r="2.5" fill="#75A4FE"/>
<path d="M108 17C129.539 17 147 34.4609 147 56C147 77.5391 129.539 95 108 95C86.4609 95 69 77.5391 69 56C69 34.4609 86.4609 17 108 17Z" stroke="#75A4FE" stroke-width="2"/>
<rect x="139.352" y="34.4973" width="2.4" height="3.15516" transform="rotate(-29.6779 139.352 34.4973)" fill="white"/>
<path d="M141.133 34.0878C141.012 34.5125 140.569 34.7581 140.144 34.6363C139.719 34.5145 139.474 34.0715 139.595 33.6468C139.717 33.222 140.16 32.9765 140.585 33.0983C141.01 33.22 141.255 33.6631 141.133 34.0878Z" fill="#75A4FE"/>
<path d="M142.85 36.81C142.728 37.2347 142.285 37.4803 141.86 37.3585C141.436 37.2367 141.19 36.7937 141.312 36.369C141.434 35.9443 141.877 35.6987 142.301 35.8205C142.726 35.9423 142.972 36.3853 142.85 36.81Z" fill="#75A4FE"/>
<rect x="132" y="26.517" width="2.4" height="3.15516" transform="rotate(-45.6779 132 26.517)" fill="white"/>
<path d="M133.6 25.632C133.6 26.0738 133.242 26.432 132.8 26.432C132.358 26.432 132 26.0738 132 25.632C132 25.1902 132.358 24.832 132.8 24.832C133.242 24.832 133.6 25.1902 133.6 25.632Z" fill="#75A4FE"/>
<path d="M136 27.776C136 28.2178 135.642 28.576 135.2 28.576C134.758 28.576 134.4 28.2178 134.4 27.776C134.4 27.3342 134.758 26.976 135.2 26.976C135.642 26.976 136 27.3342 136 27.776Z" fill="#75A4FE"/>
<path d="M126.318 41.6724C124.088 39.4425 120.469 39.4425 118.239 41.6724L102.282 57.6303L97.7505 53.0992C95.5207 50.8694 91.9022 50.8694 89.6724 53.0992C87.4425 55.329 87.4425 58.9475 89.6724 61.1774L98.2425 69.7475C100.472 71.9773 104.091 71.9773 106.321 69.7475L126.318 49.7505C128.547 47.5207 128.547 43.9022 126.318 41.6724ZM120.255 43.6879C121.374 42.5691 123.183 42.5691 124.294 43.6879C125.405 44.8068 125.413 46.6161 124.294 47.727L104.297 67.724C103.178 68.8429 101.369 68.8429 100.258 67.724L91.6879 59.1618C90.577 58.0429 90.577 56.2337 91.6879 55.1148C92.7989 53.9959 94.6161 53.9959 95.727 55.1148L101.266 60.6536C101.821 61.2091 102.726 61.2091 103.289 60.6536L120.255 43.6879Z" fill="#75A4FE" stroke="#F3F7FF"/>
<defs>
<clipPath id="clip0_1265_358">
<rect width="216" height="70" fill="white" transform="translate(0 21.3767)"/>
</clipPath>
</defs>
</svg>
