<svg width="24" height="24" viewBox="0 0 24 24" fill="none" xmlns="http://www.w3.org/2000/svg">
<g clip-path="url(#clip0_1195_377)">
<path d="M4.5 9H24V17.25C24 18.4922 22.9922 19.5 21.75 19.5H6.75C5.50781 19.5 4.5 18.4922 4.5 17.25V9Z" fill="#0C0D5B" fill-opacity="0.7"/>
<path d="M10.5 0C9.67031 0 9 0.670312 9 1.5V3H6.75C5.50781 3 4.5 4.00781 4.5 5.25V9H24V5.25C24 4.00781 22.9922 3 21.75 3H19.5V1.5C19.5 0.670312 18.8297 0 18 0C17.1703 0 16.5 0.670312 16.5 1.5V3H12V1.5C12 0.670312 11.3297 0 10.5 0ZM2.25 8.625C2.25 8.00156 1.74844 7.5 1.125 7.5C0.501562 7.5 0 8.00156 0 8.625V18.375C0 21.4828 2.51719 24 5.625 24H18.375C18.9984 24 19.5 23.4984 19.5 22.875C19.5 22.2516 18.9984 21.75 18.375 21.75H5.625C3.75938 21.75 2.25 20.2406 2.25 18.375V8.625Z" fill="#0C0D5B"/>
</g>
<defs>
<clipPath id="clip0_1195_377">
<rect width="24" height="24" fill="white"/>
</clipPath>
</defs>
</svg>
