<svg width="24" height="19" viewBox="0 0 24 19" fill="none" xmlns="http://www.w3.org/2000/svg">
<g clip-path="url(#clip0_1195_369)">
<path d="M3 3.85938C3 3.03926 2.32875 2.375 1.5 2.375C0.67125 2.375 0 3.03926 0 3.85938V5.9375V8.3125V12.0791C0 13.0254 0.37875 13.9309 1.05375 14.5988L4.8 18.3061C5.25 18.7514 5.86125 19 6.49875 19H9C9.99375 19 10.8 18.2021 10.8 17.2188V14.2908C10.8 13.1887 10.3575 12.1311 9.57 11.3518L8.62125 10.4129L8.05125 9.84883L6.85125 8.66133C6.3825 8.19746 5.62125 8.19746 5.1525 8.66133C4.68375 9.1252 4.68375 9.87852 5.1525 10.3424L6.3525 11.5299L6.9225 12.0939C7.335 12.5021 7.2675 13.1775 6.78375 13.4967C6.42 13.7379 5.9325 13.6896 5.62125 13.3816L3.70125 11.4854C3.25125 11.04 3 10.4352 3 9.8043V8.3125V5.34375V3.85938ZM21 3.85938V5.34375V8.3125V9.8043C21 10.4352 20.7488 11.04 20.2988 11.4854L18.3825 13.3816C18.0713 13.6896 17.5838 13.7379 17.22 13.4967C16.7363 13.1775 16.6688 12.4984 17.0813 12.0939L17.6513 11.5299L18.8513 10.3424C19.32 9.87852 19.32 9.1252 18.8513 8.66133C18.3825 8.19746 17.6213 8.19746 17.1525 8.66133L15.9525 9.84883L15.3825 10.4129L14.4338 11.3518C13.6463 12.1311 13.2038 13.1887 13.2038 14.2908V17.2188C13.2038 18.2021 14.01 19 15.0038 19H17.505C18.1425 19 18.7537 18.7514 19.2037 18.3061L22.95 14.5988C23.625 13.9309 24.0038 13.0254 24.0038 12.0791V8.3125V5.9375V3.85938C24.0038 3.03926 23.3325 2.375 22.5037 2.375C21.675 2.375 21.0037 3.03926 21.0037 3.85938H21Z" fill="#0C0D5B" fill-opacity="0.8"/>
<path d="M12 0C12.4987 0 12.9 0.39707 12.9 0.890625V1.28027C13.14 1.3248 13.3725 1.38047 13.5825 1.43613C14.0625 1.5623 14.3475 2.05215 14.22 2.52715C14.0925 3.00215 13.5975 3.28418 13.1175 3.15801C12.7087 3.05039 12.3262 2.97617 11.985 2.97246C11.7112 2.96875 11.4337 3.03555 11.2575 3.13574C11.1787 3.18398 11.1412 3.2248 11.1262 3.24707C11.115 3.26562 11.1 3.2916 11.1 3.35098C11.1 3.36211 11.1 3.36953 11.1 3.37324C11.1075 3.38066 11.1337 3.41777 11.2237 3.46973C11.4412 3.59961 11.7637 3.6998 12.2512 3.84453L12.285 3.85566C12.7012 3.97813 13.2562 4.14512 13.7062 4.42344C14.22 4.74258 14.685 5.27324 14.6962 6.08965C14.7075 6.92461 14.2687 7.5332 13.695 7.88945C13.4437 8.0416 13.1737 8.14922 12.8962 8.21602V8.60938C12.8962 9.10293 12.495 9.5 11.9962 9.5C11.4975 9.5 11.0962 9.10293 11.0962 8.60938V8.18633C10.74 8.10098 10.4137 7.98965 10.1362 7.89688C10.0575 7.8709 9.98249 7.84492 9.91124 7.82266C9.43874 7.6668 9.18374 7.16211 9.34124 6.69453C9.49874 6.22695 10.0087 5.97461 10.4812 6.13047C10.5787 6.16387 10.6687 6.19355 10.755 6.22324C11.265 6.39395 11.6325 6.51641 12.0262 6.53125C12.3262 6.54238 12.5925 6.47187 12.7462 6.3791C12.8175 6.33457 12.8512 6.29746 12.8662 6.27148C12.8812 6.24922 12.9 6.20469 12.8962 6.11934V6.11191C12.8962 6.0748 12.8962 6.03398 12.7462 5.94121C12.5325 5.80762 12.21 5.70371 11.73 5.55898L11.6587 5.53672C11.2537 5.41797 10.7212 5.2584 10.2937 5.00234C9.78749 4.70176 9.29999 4.18594 9.29624 3.36582C9.29249 2.51602 9.77999 1.9334 10.335 1.60684C10.575 1.46582 10.8337 1.36934 11.0925 1.30254V0.890625C11.0925 0.39707 11.4937 0 11.9925 0H12Z" fill="#0C0D5B"/>
</g>
<defs>
<clipPath id="clip0_1195_369">
<rect width="24" height="19" fill="white"/>
</clipPath>
</defs>
</svg>
