<svg width="24" height="19" viewBox="0 0 24 19" fill="none" xmlns="http://www.w3.org/2000/svg">
<g clip-path="url(#clip0_1195_363)">
<path d="M8.4 2.96875C8.4 2.18139 8.08393 1.42628 7.52132 0.869527C6.95871 0.312778 6.19565 0 5.4 0C4.60435 0 3.84129 0.312778 3.27868 0.869527C2.71607 1.42628 2.4 2.18139 2.4 2.96875C2.4 3.75611 2.71607 4.51122 3.27868 5.06797C3.84129 5.62472 4.60435 5.9375 5.4 5.9375C6.19565 5.9375 6.95871 5.62472 7.52132 5.06797C8.08393 4.51122 8.4 3.75611 8.4 2.96875ZM22.2 2.96875C22.2 2.18139 21.8839 1.42628 21.3213 0.869527C20.7587 0.312778 19.9957 0 19.2 0C18.4044 0 17.6413 0.312778 17.0787 0.869527C16.5161 1.42628 16.2 2.18139 16.2 2.96875C16.2 3.75611 16.5161 4.51122 17.0787 5.06797C17.6413 5.62472 18.4044 5.9375 19.2 5.9375C19.9957 5.9375 20.7587 5.62472 21.3213 5.06797C21.8839 4.51122 22.2 3.75611 22.2 2.96875ZM4.00125 7.125C1.7925 7.125 0 8.89883 0 11.0846C0 11.5188 0.36 11.875 0.79875 11.875H8.80125C8.80875 11.875 8.81625 11.875 8.8275 11.875C7.83 11.0029 7.20375 9.73008 7.20375 8.3125C7.20375 8.03047 7.23 7.75586 7.275 7.48496C6.765 7.25117 6.19875 7.125 5.6025 7.125H4.00125ZM15.1763 11.875C15.1838 11.875 15.1913 11.875 15.2025 11.875H23.2013C23.6438 11.875 24 11.5188 24 11.0846C24 8.89883 22.2075 7.125 19.9988 7.125H18.4013C17.805 7.125 17.2388 7.25488 16.7288 7.48496C16.7775 7.75215 16.8 8.03047 16.8 8.3125C16.8 9.73008 16.17 11.0029 15.1763 11.875Z" fill="#0C0D5B" fill-opacity="0.75"/>
<path d="M12 11.875C12.4727 11.875 12.9409 11.7829 13.3776 11.6038C13.8144 11.4248 14.2113 11.1624 14.5456 10.8316C14.8799 10.5008 15.145 10.108 15.326 9.67581C15.5069 9.24359 15.6 8.78033 15.6 8.3125C15.6 7.84467 15.5069 7.38141 15.326 6.94919C15.145 6.51697 14.8799 6.12424 14.5456 5.79343C14.2113 5.46262 13.8144 5.20021 13.3776 5.02118C12.9409 4.84215 12.4727 4.75 12 4.75C11.5272 4.75 11.0591 4.84215 10.6223 5.02118C10.1856 5.20021 9.78869 5.46262 9.4544 5.79343C9.12011 6.12424 8.85494 6.51697 8.67402 6.94919C8.4931 7.38141 8.39999 7.84467 8.39999 8.3125C8.39999 8.78033 8.4931 9.24359 8.67402 9.67581C8.85494 10.108 9.12011 10.5008 9.4544 10.8316C9.78869 11.1624 10.1856 11.4248 10.6223 11.6038C11.0591 11.7829 11.5272 11.875 12 11.875ZM9.79874 13.0625C7.03874 13.0625 4.79999 15.2779 4.79999 18.0092C4.79999 18.5547 5.24624 19 5.80124 19H18.1987C18.75 19 19.2 18.5584 19.2 18.0092C19.2 15.2779 16.9612 13.0625 14.2012 13.0625H9.79874Z" fill="#0C0D5B"/>
</g>
<defs>
<clipPath id="clip0_1195_363">
<rect width="24" height="19" fill="white"/>
</clipPath>
</defs>
</svg>
