<svg width="24" height="24" viewBox="0 0 24 24" fill="none" xmlns="http://www.w3.org/2000/svg">
<path d="M7.5 4.5C7.5 3.67031 8.17031 3 9 3H22.5C23.3297 3 24 3.67031 24 4.5C24 5.32969 23.3297 6 22.5 6H9C8.17031 6 7.5 5.32969 7.5 4.5ZM13.5 12C13.5 11.1703 14.1703 10.5 15 10.5H22.5C23.3297 10.5 24 11.1703 24 12C24 12.8297 23.3297 13.5 22.5 13.5H15C14.1703 13.5 13.5 12.8297 13.5 12ZM15 18H22.5C23.3297 18 24 18.6703 24 19.5C24 20.3297 23.3297 21 22.5 21H15C14.1703 21 13.5 20.3297 13.5 19.5C13.5 18.6703 14.1703 18 15 18Z" fill="#0C0D5B" fill-opacity="0.7"/>
<path d="M1.125 2.25C0.501562 2.25 0 2.75156 0 3.375V5.625C0 6.24844 0.501562 6.75 1.125 6.75V12V18C1.125 19.4484 2.30156 20.625 3.75 20.625H6C6 21.2484 6.50156 21.75 7.125 21.75H9.375C9.99844 21.75 10.5 21.2484 10.5 20.625V18.375C10.5 17.7516 9.99844 17.25 9.375 17.25H7.125C6.50156 17.25 6 17.7516 6 18.375H3.75C3.54375 18.375 3.375 18.2063 3.375 18V13.125H6C6 13.7484 6.50156 14.25 7.125 14.25H9.375C9.99844 14.25 10.5 13.7484 10.5 13.125V10.875C10.5 10.2516 9.99844 9.75 9.375 9.75H7.125C6.50156 9.75 6 10.2516 6 10.875H3.375V6.75C3.99844 6.75 4.5 6.24844 4.5 5.625V3.375C4.5 2.75156 3.99844 2.25 3.375 2.25H1.125Z" fill="#0C0D5B"/>
</svg>
