<svg width="24" height="19" viewBox="0 0 24 19" fill="none" xmlns="http://www.w3.org/2000/svg">
<g clip-path="url(#clip0_1195_385)">
<path d="M4.8 16.625C4.16348 16.625 3.55303 16.3748 3.10294 15.9294C2.65286 15.484 2.4 14.8799 2.4 14.25C2.4 13.6201 2.65286 13.016 3.10294 12.5706C3.55303 12.1252 4.16348 11.875 4.8 11.875C5.43652 11.875 6.04697 12.1252 6.49706 12.5706C6.94714 13.016 7.2 13.6201 7.2 14.25C7.2 14.8799 6.94714 15.484 6.49706 15.9294C6.04697 16.3748 5.43652 16.625 4.8 16.625ZM4.8 9.5C2.14875 9.5 0 11.6264 0 14.25C0 16.8736 2.14875 19 4.8 19C7.035 19 8.9175 17.4859 9.45 15.4375H16.8C17.4638 15.4375 18 14.9068 18 14.25V11.875C18 11.2182 17.4638 10.6875 16.8 10.6875C16.1363 10.6875 15.6 11.2182 15.6 11.875V13.0625H14.4V11.875C14.4 11.2182 13.8638 10.6875 13.2 10.6875C12.5363 10.6875 12 11.2182 12 11.875V13.0625H9.45C8.9175 11.0141 7.03875 9.5 4.8 9.5Z" fill="#0C0D5B" fill-opacity="0.7"/>
<path d="M19.2 2.375C19.8365 2.375 20.447 2.62522 20.8971 3.07062C21.3471 3.51602 21.6 4.12011 21.6 4.75C21.6 5.37989 21.3471 5.98398 20.8971 6.42938C20.447 6.87478 19.8365 7.125 19.2 7.125C18.5635 7.125 17.953 6.87478 17.5029 6.42938C17.0529 5.98398 16.8 5.37989 16.8 4.75C16.8 4.12011 17.0529 3.51602 17.5029 3.07062C17.953 2.62522 18.5635 2.375 19.2 2.375ZM19.2 9.5C21.8513 9.5 24 7.37363 24 4.75C24 2.12637 21.8513 0 19.2 0C16.965 0 15.0825 1.51406 14.55 3.5625H7.2C6.53625 3.5625 6 4.09316 6 4.75V7.125C6 7.78184 6.53625 8.3125 7.2 8.3125C7.86375 8.3125 8.4 7.78184 8.4 7.125V5.9375H9.6V7.125C9.6 7.78184 10.1363 8.3125 10.8 8.3125C11.4638 8.3125 12 7.78184 12 7.125V5.9375H14.55C15.0825 7.98594 16.9613 9.5 19.2 9.5Z" fill="#0C0D5B"/>
</g>
<defs>
<clipPath id="clip0_1195_385">
<rect width="24" height="19" fill="white"/>
</clipPath>
</defs>
</svg>
