<svg width="210" height="210" viewBox="0 0 210 210" fill="none" xmlns="http://www.w3.org/2000/svg">
<circle cx="105" cy="105" r="105" fill="#F44336" fill-opacity="0.15"/>
<circle cx="105" cy="105" r="77" fill="#F44336"/>
<path d="M128.045 137.928C130.779 140.661 135.217 140.661 137.95 137.928C140.683 135.195 140.683 130.757 137.95 128.024L114.905 105L137.928 81.9546C140.661 79.2215 140.661 74.7829 137.928 72.0498C135.195 69.3167 130.757 69.3167 128.024 72.0498L105 95.0953L81.9546 72.0717C79.2215 69.3386 74.7829 69.3386 72.0498 72.0717C69.3167 74.8048 69.3167 79.2433 72.0498 81.9764L95.0953 105L72.0717 128.045C69.3386 130.779 69.3386 135.217 72.0717 137.95C74.8048 140.683 79.2433 140.683 81.9764 137.95L105 114.905L128.045 137.928Z" fill="white"/>
</svg>
