<svg width="210" height="210" viewBox="0 0 210 210" fill="none" xmlns="http://www.w3.org/2000/svg">
<circle cx="105" cy="105" r="105" fill="#FFC107" fill-opacity="0.15"/>
<circle cx="105" cy="105" r="77" fill="#FFC107"/>
<path fill-rule="evenodd" clip-rule="evenodd" d="M98.1438 81.8253C97.8855 78.1407 100.809 75 104.507 75C108.205 75 111.128 78.1407 110.87 81.8389L108.844 110.119C108.681 112.389 106.791 114.157 104.507 114.157C102.223 114.157 100.333 112.389 100.17 110.105L98.1438 81.8253ZM95.4246 75.6662C94.2553 77.5289 93.6435 79.7722 93.8066 82.138H93.793L93.9834 84.762C84.1534 86.7743 75.3295 91.5465 68.3547 98.2358C66.628 99.9081 63.868 99.8537 62.2092 98.1134C60.5505 96.3731 60.6049 93.6267 62.3316 91.9544C71.2099 83.4432 82.6714 77.5833 95.4246 75.6662ZM115.017 84.762L115.207 82.138V82.1516C115.37 79.7722 114.758 77.5425 113.589 75.6798C126.342 77.5833 137.804 83.4432 146.668 91.968C148.395 93.6267 148.45 96.3867 146.791 98.1134C145.132 99.8401 142.386 99.8945 140.645 98.2358C133.671 91.5465 124.847 86.7743 115.017 84.762ZM113.453 106.788L114.078 97.9367H114.092C120.238 99.473 125.812 102.478 130.421 106.543C132.216 108.134 132.392 110.894 130.802 112.688C129.211 114.483 126.465 114.66 124.656 113.069C121.448 110.241 117.641 108.066 113.453 106.788ZM110.66 121.056C112.292 122.688 113.208 124.901 113.208 127.209C113.208 129.517 112.292 131.73 110.66 133.362C109.028 134.994 106.815 135.911 104.507 135.911C102.199 135.911 99.9857 134.994 98.3539 133.362C96.722 131.73 95.8053 129.517 95.8053 127.209C95.8053 124.901 96.722 122.688 98.3539 121.056C99.9857 119.424 102.199 118.508 104.507 118.508C106.815 118.508 109.028 119.424 110.66 121.056Z" fill="white"/>
<path d="M78.6062 106.543C76.7979 108.134 76.6347 110.88 78.2255 112.688C79.8162 114.497 82.5626 114.66 84.3709 113.069C87.5796 110.241 91.3865 108.079 95.5741 106.788L94.9351 97.9367C88.7897 99.473 83.2153 102.478 78.6062 106.543Z" fill="white"/>
<rect x="51" y="71" width="45" height="44" fill="#FFC107"/>
<rect x="113" y="71" width="45" height="44" fill="#FFC107"/>
</svg>
