<svg width="25" height="22" viewBox="0 0 25 22" fill="none" xmlns="http://www.w3.org/2000/svg">
<g clip-path="url(#clip0_352_2918)">
<path d="M2.67725 1.375C1.20058 1.375 0 2.6082 0 4.125V5.5H24.0952V4.125C24.0952 2.6082 22.8947 1.375 21.418 1.375H2.67725ZM24.0952 9.625H0V17.875C0 19.3918 1.20058 20.625 2.67725 20.625H21.418C22.8947 20.625 24.0952 19.3918 24.0952 17.875V9.625ZM4.68519 15.125H7.36243C7.73056 15.125 8.03175 15.4344 8.03175 15.8125C8.03175 16.1906 7.73056 16.5 7.36243 16.5H4.68519C4.31706 16.5 4.01587 16.1906 4.01587 15.8125C4.01587 15.4344 4.31706 15.125 4.68519 15.125ZM9.37037 15.8125C9.37037 15.4344 9.67156 15.125 10.0397 15.125H15.3942C15.7623 15.125 16.0635 15.4344 16.0635 15.8125C16.0635 16.1906 15.7623 16.5 15.3942 16.5H10.0397C9.67156 16.5 9.37037 16.1906 9.37037 15.8125Z" fill="url(#paint0_linear_352_2918)"/>
<path d="M24.0952 9.625H0V5.5H24.0952V9.625Z" fill="#0C0D5B" fill-opacity="0.79"/>
</g>
<rect x="0.5" y="0.5" width="23.0952" height="21" stroke="#898989" stroke-opacity="0.04"/>
<defs>
<linearGradient id="paint0_linear_352_2918" x1="0.999999" y1="3" x2="23.8951" y2="18.4131" gradientUnits="userSpaceOnUse">
<stop stop-color="#0C0D5B" stop-opacity="0.75"/>
<stop offset="0.56295" stop-color="#0C0D5B"/>
</linearGradient>
<clipPath id="clip0_352_2918">
<rect width="24.0952" height="22" fill="white"/>
</clipPath>
</defs>
</svg>
