<svg width="22" height="22" viewBox="0 0 22 22" fill="none" xmlns="http://www.w3.org/2000/svg">
<g clip-path="url(#clip0_351_2906)">
<path d="M5.5 8.25H2.75V18.0598C2.72422 18.0727 2.69844 18.0898 2.67695 18.107L0.614454 19.482C0.111719 19.8172 -0.116015 20.4445 0.0601567 21.0246C0.236329 21.6047 0.769141 22 1.375 22H20.625C21.2309 22 21.7637 21.6047 21.9398 21.0246C22.116 20.4445 21.8926 19.8172 21.3855 19.482L19.323 18.107C19.2973 18.0898 19.2715 18.077 19.2457 18.0598V8.25H16.5V17.875H14.7813V8.25H12.0313V17.875H9.96875V8.25H7.21875V17.875H5.5V8.25Z" fill="url(#paint0_linear_351_2906)"/>
<path d="M11.5416 0.112012C11.1978 -0.034082 10.8025 -0.034082 10.4587 0.112012L0.833743 4.23701C0.23218 4.49482 -0.102976 5.13935 0.0302272 5.77529C0.16343 6.41123 0.722024 6.87529 1.37515 6.87529V7.21904C1.37515 7.79053 1.83491 8.25029 2.4064 8.25029H19.5939C20.1654 8.25029 20.6251 7.79053 20.6251 7.21904V6.87529C21.2783 6.87529 21.8412 6.41553 21.9701 5.77529C22.099 5.13506 21.7638 4.49053 21.1666 4.23701L11.5416 0.112012ZM11.0001 2.75029C11.3648 2.75029 11.7146 2.89516 11.9724 3.15302C12.2303 3.41088 12.3751 3.76062 12.3751 4.12529C12.3751 4.48996 12.2303 4.8397 11.9724 5.09756C11.7146 5.35543 11.3648 5.50029 11.0001 5.50029C10.6355 5.50029 10.2857 5.35543 10.0279 5.09756C9.77002 4.8397 9.62515 4.48996 9.62515 4.12529C9.62515 3.76062 9.77002 3.41088 10.0279 3.15302C10.2857 2.89516 10.6355 2.75029 11.0001 2.75029Z" fill="#0C0D5B" fill-opacity="0.75"/>
</g>
<defs>
<linearGradient id="paint0_linear_351_2906" x1="13.5" y1="10.5" x2="17" y2="17" gradientUnits="userSpaceOnUse">
<stop stop-color="#0C0D5B" stop-opacity="0.75"/>
<stop offset="1" stop-color="#0C0D5B"/>
</linearGradient>
<clipPath id="clip0_351_2906">
<rect width="22" height="22" fill="white"/>
</clipPath>
</defs>
</svg>
