<svg width="277" height="71" viewBox="0 0 277 71" fill="none" xmlns="http://www.w3.org/2000/svg">
<path d="M129.249 0.00806049C131.684 0.0403017 134.11 0.0483618 136.544 0C136.754 2.5793 136.721 5.17471 136.633 7.76207C134.15 7.69759 131.676 7.71371 129.193 7.74595C129.056 5.16666 129.04 2.5793 129.249 0.00806049Z" fill="#0C0D5B"/>
<path d="M89.9472 0.523873C100.418 0.43521 110.888 0.491632 121.358 0.491632C121.382 2.90972 121.39 5.32781 121.278 7.73784C113.685 7.7056 106.092 7.72979 98.5072 7.72979C98.5234 15.0324 98.5395 22.3351 98.4911 29.6377C104.98 29.5813 111.468 29.6296 117.965 29.6054C117.973 32.0397 117.973 34.4739 117.965 36.9081C111.492 36.9161 105.02 36.9564 98.5475 36.892C98.4508 42.1473 98.5879 47.4107 98.4911 52.666C96.3229 54.7294 92.7925 53.2383 90.0439 53.5848C89.8183 35.9005 90.0198 18.2082 89.9472 0.523873Z" fill="#0C0D5B"/>
<path d="M129.104 15.0163C131.635 15.0324 134.158 15.0324 136.689 15.0324C136.689 27.8886 136.729 40.7528 136.665 53.617C134.158 53.6815 131.643 53.7218 129.145 53.5364C129.048 40.6964 129.112 27.8563 129.104 15.0163Z" fill="#0C0D5B"/>
<path d="M152.076 19.6349C156.985 14.2345 165.247 13.9443 171.695 16.3785C176.991 18.176 181.126 22.867 182.423 28.2755C183.979 36.3922 182.746 44.7105 183.262 52.9078C180.779 54.1732 177.95 53.5284 175.29 53.6493C175.105 46.8545 175.29 40.0516 175.193 33.2568C175.064 28.88 172.34 24.729 168.237 23.1008C164.247 21.7789 159.443 22.3109 156.26 25.2287C153.148 27.7032 152.06 31.8382 152.028 35.6507C152.012 41.6314 152.092 47.6041 151.988 53.5768C149.457 53.6896 146.918 53.7138 144.395 53.5607C144.209 40.7448 144.467 27.9289 144.266 15.113C146.845 14.9921 149.424 15.0244 152.012 15.0405C152.028 16.572 152.044 18.1034 152.076 19.6349Z" fill="#0C0D5B"/>
<path d="M205.766 15.3952C211.803 14.0169 218.646 15.5806 222.999 20.1346C222.95 18.4259 222.975 16.7251 223.023 15.0244C225.538 15.0405 228.045 15.0486 230.559 15.0083C230.777 27.5501 230.648 40.1 230.64 52.6419C228.971 54.7537 225.538 53.2383 223.144 53.5607C222.999 51.9003 222.959 50.2399 222.902 48.5795C219.533 51.2394 215.47 53.464 211.053 53.2947C202.3 54.0121 193.74 47.4107 191.991 38.8507C190.58 33.3938 191.757 27.3728 194.949 22.7623C197.657 19.2399 201.486 16.6042 205.766 15.3952ZM204.307 23.4152C198.858 26.2605 195.965 33.5147 198.826 39.1408C200.357 43.3161 204.621 45.4843 208.692 46.4596C211.497 46.8465 214.141 45.6374 216.591 44.4445C221.209 42.2682 223.91 36.8356 222.846 31.8301C220.766 24.3099 211.392 19.651 204.307 23.4152Z" fill="#0C0D5B"/>
<path d="M238.096 15.0487C240.788 15.0164 243.48 15.0084 246.172 15.0971C246.132 16.5479 246.092 17.9988 246.011 19.4496C250.904 14.4442 258.69 14.0009 265.001 16.1771C272.223 18.3454 277.172 25.8253 276.963 33.265C276.946 40.0276 277.051 46.7982 276.898 53.5608C274.343 53.6978 271.78 53.6736 269.233 53.6414C268.725 48.7488 269.063 43.824 268.975 38.9233C268.854 35.3042 269.45 31.4595 267.806 28.0822C265.88 24.8823 262.39 22.4561 258.561 22.4642C252.193 21.8193 245.568 27.4857 246.14 34.071C246.14 40.4628 246.132 46.8546 246.148 53.2464C243.528 53.8993 240.82 53.6253 238.16 53.6495C237.991 40.7852 238.128 27.9129 238.096 15.0487Z" fill="#0C0D5B"/>
<path d="M0.228284 0C17.4854 0.080603 34.7505 9.21827e-07 52.0076 0.0403024C52.9668 -0.02418 53.5552 0.926935 54.2403 1.45085C56.9163 4.15105 59.7374 6.70617 62.3086 9.51115C65.0491 12.437 68.3619 14.8551 70.514 18.2888C53.0151 18.5145 35.5082 18.3372 18.0012 18.3775C17.9448 24.1486 18.1383 29.9359 17.8803 35.7071C11.7626 30.2019 6.20096 24.0842 0.252466 18.3855C-0.142488 12.292 -0.0135244 6.1097 0.228284 0Z" fill="#0C0D5B"/>
<path d="M17.945 35.6507C28.8667 35.683 39.7884 35.6668 50.7101 35.6588C51.8063 35.7636 53.2007 35.4089 53.9906 36.4165C57.9079 40.5433 62.0509 44.4445 66.0327 48.515C67.5158 50.1028 69.5712 51.3764 70.1354 53.6091C58.6576 53.7219 47.1716 53.6333 35.6857 53.6574C35.7341 59.211 35.718 64.7645 35.7018 70.31C35.2666 70.1569 34.3961 69.8344 33.9608 69.6732C28.5685 64.3373 23.1439 59.0175 17.9047 53.5204C17.937 47.5638 17.8725 41.6073 17.945 35.6507Z" fill="#0C0D5B"/>
</svg>
