<svg width="216" height="150" viewBox="0 0 216 150" fill="none" xmlns="http://www.w3.org/2000/svg">
<g clip-path="url(#clip0_545_452)">
<path fill-rule="evenodd" clip-rule="evenodd" d="M119 39.3767C122.866 39.3767 126 42.5107 126 46.3767C126 50.2427 122.866 53.3767 119 53.3767H183C186.866 53.3767 190 56.5107 190 60.3767C190 64.2427 186.866 67.3767 183 67.3767H205C208.866 67.3767 212 70.5107 212 74.3767C212 78.2427 208.866 81.3767 205 81.3767H186C182.134 81.3767 179 84.5107 179 88.3767C179 92.2427 182.134 95.3767 186 95.3767H192C195.866 95.3767 199 98.5107 199 102.377C199 106.243 195.866 109.377 192 109.377H140C139.485 109.377 138.983 109.321 138.5 109.216C138.017 109.321 137.515 109.377 137 109.377H46C42.134 109.377 39 106.243 39 102.377C39 98.5107 42.134 95.3767 46 95.3767H7C3.13401 95.3767 0 92.2427 0 88.3767C0 84.5107 3.13401 81.3767 7 81.3767H47C50.866 81.3767 54 78.2427 54 74.3767C54 70.5107 50.866 67.3767 47 67.3767H22C18.134 67.3767 15 64.2427 15 60.3767C15 56.5107 18.134 53.3767 22 53.3767H62C58.134 53.3767 55 50.2427 55 46.3767C55 42.5107 58.134 39.3767 62 39.3767H119ZM209 95.3767C212.866 95.3767 216 98.5107 216 102.377C216 106.243 212.866 109.377 209 109.377C205.134 109.377 202 106.243 202 102.377C202 98.5107 205.134 95.3767 209 95.3767Z" fill="#F3F7FF"/>
</g>
<circle cx="175" cy="67" r="3" fill="#75A4FE"/>
<circle cx="61.5" cy="113.5" r="3.5" fill="#75A4FE"/>
<circle cx="75.5" cy="20.5" r="2.5" fill="#75A4FE"/>
<path d="M143.192 75.429C141.193 75.429 139.194 74.6539 137.67 73.1058C121.585 56.7743 95.4173 56.7743 79.3322 73.1058C76.2836 76.2018 71.3366 76.2018 68.2881 73.1058C65.2373 70.0099 65.2373 64.9854 68.2881 61.8896C90.4621 39.3701 126.54 39.3701 148.714 61.8896C151.765 64.9854 151.765 70.0099 148.714 73.1058C147.19 74.6539 145.191 75.429 143.192 75.429Z" fill="white" stroke="#75A4FE" stroke-width="2" stroke-linecap="round" stroke-linejoin="round"/>
<path fill-rule="evenodd" clip-rule="evenodd" d="M107.998 48.3767C122.834 48.3767 136.713 54.5923 146.5 65.3767C147.491 66.4681 147.085 69.3799 146 70.3767C144.915 71.3734 141.491 71.4681 140.5 70.3767C131.711 60.693 121.326 56.8767 107.998 56.8767C94.9976 56.8767 84.3779 61.322 75.5 70.8767C74.4968 71.9563 71.0729 71.3862 70 70.3767C68.9271 69.3672 68.9968 66.4563 70 65.3767C79.8642 54.7605 93.4941 48.3767 107.998 48.3767Z" fill="#E8F0FE"/>
<path d="M90.3141 82.9847C100.457 72.6819 116.858 72.5209 127.199 82.5023L127.686 82.9857H127.687C130.27 85.6077 130.351 89.8175 127.929 92.5394L127.686 92.7982V92.7991C126.356 94.1514 124.616 94.8235 122.877 94.8235C121.246 94.8235 119.615 94.2323 118.322 93.0443L118.068 92.7991L118.067 92.7982C113.145 87.8032 105.185 87.7246 100.17 92.5638L99.9332 92.7982L99.9322 92.7991C97.3586 95.4163 93.2387 95.498 90.568 93.0443L90.3141 92.7991L90.3131 92.7982C87.7296 90.1755 87.6491 85.9658 90.0709 83.2444L90.3131 82.9857L90.3141 82.9847Z" fill="white" stroke="#75A4FE" stroke-width="2"/>
<path fill-rule="evenodd" clip-rule="evenodd" d="M108.937 79.3767C115.417 79.3767 121.479 81.4643 125.753 87.8021C126.186 88.4435 126.227 90.1547 125.753 90.7405C125.28 91.3263 122.933 92.5181 122.5 91.8767C118.661 86.1857 114.758 85.3767 108.937 85.3767C103.258 85.3767 99.8777 86.2615 96 91.8767C95.5618 92.5112 92.8088 91.3338 92.3401 90.7405C91.8715 90.1472 91.902 88.4366 92.3401 87.8021C96.6486 81.5631 102.602 79.3767 108.937 79.3767Z" fill="#E8F0FE"/>
<path d="M108.31 104C112.899 104 116.62 107.721 116.62 112.31C116.62 116.899 112.899 120.62 108.31 120.62C103.721 120.62 100 116.899 100 112.31C100 107.721 103.721 104 108.31 104Z" fill="white" stroke="#75A4FE" stroke-width="2"/>
<path d="M113 112.377C113 115.138 110.761 117.377 108 117.377C105.239 117.377 103 115.138 103 112.377C103 109.615 105.239 107.377 108 107.377C110.761 107.377 113 109.615 113 112.377Z" fill="#E8F0FE"/>
<path d="M108 34C113.173 34 117.346 38.5971 116.978 44.1094L113.802 90.3311C113.58 93.555 111.019 96 108 96C105.077 96 102.581 93.7075 102.226 90.6113L102.198 90.3096L99.0225 44.0869C98.6542 38.5985 102.825 34 108 34Z" fill="#E8F0FE" stroke="#75A4FE" stroke-width="2"/>
<path d="M129.7 48.0749L131.63 48.5647L132.749 49.3674L132 51.2217L130.416 50.8747L128.951 49.9292L129.7 48.0749Z" fill="white"/>
<rect x="128.75" y="47.68" width="2" height="2" rx="1" transform="rotate(22 128.75 47.68)" fill="#75A4FE"/>
<rect x="131.749" y="48.96" width="2" height="2" rx="1" transform="rotate(22 131.749 48.96)" fill="#75A4FE"/>
<defs>
<clipPath id="clip0_545_452">
<rect width="216" height="70" fill="white" transform="translate(0 39.3767)"/>
</clipPath>
</defs>
</svg>
