<svg width="24" height="24" viewBox="0 0 24 24" fill="none" xmlns="http://www.w3.org/2000/svg">
<g clip-path="url(#clip0_1196_416)">
<path d="M17.25 9.75C17.25 7.76088 16.4598 5.85322 15.0533 4.4467C13.6468 3.04018 11.7391 2.25 9.75 2.25C7.76088 2.25 5.85322 3.04018 4.4467 4.4467C3.04018 5.85322 2.25 7.76088 2.25 9.75C2.25 11.7391 3.04018 13.6468 4.4467 15.0533C5.85322 16.4598 7.76088 17.25 9.75 17.25C11.7391 17.25 13.6468 16.4598 15.0533 15.0533C16.4598 13.6468 17.25 11.7391 17.25 9.75ZM15.8016 17.3953C14.1422 18.7125 12.0375 19.5 9.75 19.5C4.36406 19.5 0 15.1359 0 9.75C0 4.36406 4.36406 0 9.75 0C15.1359 0 19.5 4.36406 19.5 9.75C19.5 12.0375 18.7125 14.1422 17.3953 15.8016L23.6719 22.0781C24.1125 22.5187 24.1125 23.2312 23.6719 23.6672C23.2313 24.1031 22.5188 24.1078 22.0828 23.6672L15.8016 17.3953Z" fill="#0C0D5B"/>
</g>
<defs>
<clipPath id="clip0_1196_416">
<rect width="24" height="24" fill="white"/>
</clipPath>
</defs>
</svg>
