<svg width="24" height="19" viewBox="0 0 24 19" fill="none" xmlns="http://www.w3.org/2000/svg">
<path d="M20.9997 0C22.6565 0 23.9997 1.34315 23.9997 3V12.7812L23.9958 12.9355C23.9179 14.4694 22.6879 15.6997 21.154 15.7773L21.0407 15.7793V13.9785C21.6844 13.957 22.1997 13.4301 22.1999 12.7812V3C22.1999 2.33726 21.6624 1.7998 20.9997 1.7998H5.95868C5.30979 1.79993 4.78208 2.31532 4.76044 2.95898H2.95966C2.98161 1.32112 4.31563 0.000130856 5.95868 0H20.9997Z" fill="#0C0D5B"/>
<path d="M0.111047 8.32672H21.0413" stroke="#0C0D5B" stroke-width="2.5"/>
<line x1="3.92307" y1="13.6146" x2="6.39667" y2="13.6146" stroke="#0C0D5B" stroke-width="1.8" stroke-linecap="round"/>
<line x1="9.0059" y1="13.6146" x2="11.4795" y2="13.6146" stroke="#0C0D5B" stroke-width="1.8" stroke-linecap="round"/>
<rect x="0.9" y="3.85889" width="19.2411" height="13.9808" rx="2.1" stroke="#0C0D5B" stroke-width="1.8"/>
</svg>
