<svg class="svg-inline--fa fa-magnifying-glass" data-prefix="far" data-icon="magnifying-glass" role="img" viewBox="0 0 512 512" aria-hidden="true" data-fa-i2svg="" width="512" height="512" preserveAspectRatio="xMidYMid meet"><rect width="100%" height="100%" fill="transparent"></rect><path fill="#000000" d="M368 208a160 160 0 1 0 -320 0 160 160 0 1 0 320 0zM337.1 371.1C301.7 399.2 256.8 416 208 416 93.1 416 0 322.9 0 208S93.1 0 208 0 416 93.1 416 208c0 48.8-16.8 93.7-44.9 129.1L505 471c9.4 9.4 9.4 24.6 0 33.9s-24.6 9.4-33.9 0L337.1 371.1z"></path></svg>