<svg width="24" height="24" viewBox="0 0 24 24" fill="none" xmlns="http://www.w3.org/2000/svg">
<g clip-path="url(#clip0_1373_691)">
<path d="M12 2.25C14.5859 2.25 17.0658 3.27723 18.8943 5.10571C20.7228 6.93419 21.75 9.41414 21.75 12C21.75 14.5859 20.7228 17.0658 18.8943 18.8943C17.0658 20.7228 14.5859 21.75 12 21.75C9.41414 21.75 6.93419 20.7228 5.10571 18.8943C3.27723 17.0658 2.25 14.5859 2.25 12C2.25 9.41414 3.27723 6.93419 5.10571 5.10571C6.93419 3.27723 9.41414 2.25 12 2.25ZM12 24C15.1826 24 18.2348 22.7357 20.4853 20.4853C22.7357 18.2348 24 15.1826 24 12C24 8.8174 22.7357 5.76516 20.4853 3.51472C18.2348 1.26428 15.1826 0 12 0C8.8174 0 5.76516 1.26428 3.51472 3.51472C1.26428 5.76516 0 8.8174 0 12C0 15.1826 1.26428 18.2348 3.51472 20.4853C5.76516 22.7357 8.8174 24 12 24ZM10.875 16.125C10.875 16.7484 11.3766 17.25 12 17.25C12.6234 17.25 13.125 16.7484 13.125 16.125V13.125H16.125C16.7484 13.125 17.25 12.6234 17.25 12C17.25 11.3766 16.7484 10.875 16.125 10.875H13.125V7.875C13.125 7.25156 12.6234 6.75 12 6.75C11.3766 6.75 10.875 7.25156 10.875 7.875V10.875H7.875C7.25156 10.875 6.75 11.3766 6.75 12C6.75 12.6234 7.25156 13.125 7.875 13.125H10.875V16.125Z" fill="#0C0D5B"/>
</g>
<defs>
<clipPath id="clip0_1373_691">
<rect width="24" height="24" fill="white"/>
</clipPath>
</defs>
</svg>
