<svg width="24" height="24" viewBox="0 0 24 24" fill="none" xmlns="http://www.w3.org/2000/svg">
<path d="M8.25 6C8.25 5.00544 8.64509 4.05161 9.34835 3.34835C10.0516 2.64509 11.0054 2.25 12 2.25C12.9946 2.25 13.9484 2.64509 14.6517 3.34835C15.3549 4.05161 15.75 5.00544 15.75 6C15.75 6.99456 15.3549 7.94839 14.6517 8.65165C13.9484 9.35491 12.9946 9.75 12 9.75C11.0054 9.75 10.0516 9.35491 9.34835 8.65165C8.64509 7.94839 8.25 6.99456 8.25 6ZM18 6C18 4.4087 17.3679 2.88258 16.2426 1.75736C15.1174 0.632141 13.5913 0 12 0C10.4087 0 8.88258 0.632141 7.75736 1.75736C6.63214 2.88258 6 4.4087 6 6C6 7.5913 6.63214 9.11742 7.75736 10.2426C8.88258 11.3679 10.4087 12 12 12C13.5913 12 15.1174 11.3679 16.2426 10.2426C17.3679 9.11742 18 7.5913 18 6ZM3.75 22.5C3.75 19.1859 6.43594 16.5 9.75 16.5H14.25C17.5641 16.5 20.25 19.1859 20.25 22.5V22.875C20.25 23.4984 20.7516 24 21.375 24C21.9984 24 22.5 23.4984 22.5 22.875V22.5C22.5 17.9438 18.8062 14.25 14.25 14.25H9.75C5.19375 14.25 1.5 17.9438 1.5 22.5V22.875C1.5 23.4984 2.00156 24 2.625 24C3.24844 24 3.75 23.4984 3.75 22.875V22.5Z" fill="#181059"/>
</svg>
