<svg width="24" height="24" viewBox="0 0 24 24" fill="none" xmlns="http://www.w3.org/2000/svg">
    <path d="M21 12c0 .6-.4 1-1 1H6.4l4.3 4.3c.4.4.4 1 0 1.4-.2.2-.4.3-.7.3-.3 0-.5-.1-.7-.3l-6-6c-.1-.1-.2-.2-.2-.3-.1-.2-.1-.5 0-.8.1-.1.1-.2.2-.3l6-6c.4-.4 1-.4 1.4 0 .4.4.4 1 0 1.4L6.4 11H20c.6 0 1 .4 1 1z" fill="#000"/>
    <mask id="mxn9881vta" style="mask-type:luminance" maskUnits="userSpaceOnUse" x="3" y="5" width="18" height="14">
        <path d="M21 12c0 .6-.4 1-1 1H6.4l4.3 4.3c.4.4.4 1 0 1.4-.2.2-.4.3-.7.3-.3 0-.5-.1-.7-.3l-6-6c-.1-.1-.2-.2-.2-.3-.1-.2-.1-.5 0-.8.1-.1.1-.2.2-.3l6-6c.4-.4 1-.4 1.4 0 .4.4.4 1 0 1.4L6.4 11H20c.6 0 1 .4 1 1z" fill="#fff"/>
    </mask>
    <g mask="url(#mxn9881vta)">
        <path fill="#292929" d="M0 0h24v24H0z"/>
    </g>
</svg>
