<svg width="31" height="31" viewBox="0 0 31 31" fill="none" xmlns="http://www.w3.org/2000/svg">
<path d="M22.935 0.507774C17.1081 1.22509 11.4794 2.28347 5.8371 3.9157C5.10162 4.14578 4.6511 4.96595 4.83565 5.6941C5.24817 7.3155 5.45715 8.12755 5.8751 9.75437C6.0515 10.4419 6.74627 10.7938 7.44919 10.561C13.2136 8.79073 18.9916 7.58077 24.9569 6.69834C25.6408 6.6063 26.0126 5.90252 25.7629 5.19604C25.2337 3.70456 24.9677 2.96289 24.4277 1.47953C24.1943 0.851544 23.5728 0.437396 22.935 0.507774ZM27.8092 9.5324C18.6877 10.6936 9.80218 12.943 1.37808 16.6622C0.764728 16.9519 0.395631 17.7233 0.525901 18.4027C0.857003 20.1405 1.02255 21.0121 1.35908 22.7527C1.50292 23.497 2.20041 23.8408 2.88704 23.5052C11.4441 19.5938 20.4843 17.1062 29.7579 15.6228C30.3468 15.5254 30.648 14.8514 30.4228 14.1584C29.956 12.7184 29.7199 11.9983 29.2368 10.5664C29.0169 9.90054 28.4117 9.45391 27.8092 9.5324ZM27.7007 19.2283C22.0041 20.4627 16.4351 21.9487 10.9203 23.8381C10.2201 24.0952 9.82661 24.8288 10.0112 25.5082C10.4508 27.1215 10.6679 27.9309 11.113 29.5495C11.322 30.3102 12.1796 30.7 12.9666 30.3995C18.4787 28.4289 24.0477 26.7101 29.7361 25.3296C30.2816 25.1969 30.5503 24.5581 30.3495 23.9004C29.9017 22.4468 29.6764 21.7213 29.2151 20.2759C28.9898 19.564 28.3276 19.0984 27.7007 19.2283Z" stroke="black"/>
</svg>
