<svg width="30" height="30" viewBox="0 0 30 30" fill="none" xmlns="http://www.w3.org/2000/svg">
<path d="M22.4352 0.00777386C16.6083 0.725089 10.9796 1.78347 5.33728 3.4157C4.6018 3.64578 4.15129 4.46595 4.33584 5.1941C4.74836 6.8155 4.95733 7.62755 5.37528 9.25437C5.55169 9.94191 6.24646 10.2938 6.94937 10.061C12.7138 8.29073 18.4918 7.08077 24.4571 6.19834C25.141 6.1063 25.5128 5.40252 25.2631 4.69604C24.7339 3.20456 24.4679 2.46289 23.9278 0.979532C23.6944 0.351544 23.0729 -0.0626042 22.4352 0.00777386ZM27.3094 9.0324C18.1878 10.1936 9.30236 12.443 0.878264 16.1622C0.264912 16.4519 -0.104186 17.2233 0.026084 17.9027C0.357186 19.6405 0.522737 20.5121 0.859267 22.2527C1.00311 22.997 1.70059 23.3408 2.38722 23.0052C10.9443 19.0938 19.9845 16.6062 29.258 15.1228C29.847 15.0254 30.1482 14.3514 29.923 13.6584C29.4562 12.2184 29.22 11.4983 28.737 10.0664C28.5171 9.40054 27.9119 8.95391 27.3094 9.0324ZM27.2009 18.7283C21.5043 19.9627 15.9353 21.4487 10.4205 23.3381C9.72031 23.5952 9.32679 24.3288 9.51134 25.0082C9.951 26.6215 10.1681 27.4309 10.6132 29.0495C10.8222 29.8102 11.6798 30.2 12.4668 29.8995C17.9789 27.9289 23.5479 26.2101 29.2363 24.8296C29.7818 24.6969 30.0505 24.0581 29.8497 23.4004C29.4019 21.9468 29.1766 21.2213 28.7152 19.7759C28.49 19.064 27.8278 18.5984 27.2009 18.7283Z" fill="#2C2A29"/>
</svg>
