<svg width="30" height="26" viewBox="0 0 30 26" fill="none" xmlns="http://www.w3.org/2000/svg">
<path fill-rule="evenodd" clip-rule="evenodd" d="M7.6573 14.2132C7.58418 14.5984 7.22702 16.0271 5.99244 16.0889V14.8909C5.99244 14.5844 6.27086 14.216 6.68426 14.216H7.6573V14.2132ZM6.40584 13.752H9.54432C10.0421 13.752 10.4442 14.1541 10.4442 14.6519V16.7695C10.4442 17.2673 10.0393 17.6694 9.54432 17.6694H6.40584C5.90807 17.6694 5.50592 17.2673 5.50592 16.7695V14.6519C5.50592 14.1541 5.90807 13.752 6.40584 13.752ZM8.29287 14.2132C8.3688 14.5984 8.72314 16.0271 9.95772 16.0889V14.8909C9.94366 14.5506 9.67369 14.2244 9.26591 14.216H8.29287V14.2132Z" fill="#8A91A1"/>
<path fill-rule="evenodd" clip-rule="evenodd" d="M16.873 19.2642C16.873 19.0055 17.0755 18.7974 17.3286 18.7974C17.5817 18.7974 17.7842 19.0055 17.7842 19.2642C17.7842 19.5229 17.5789 19.731 17.3286 19.731C17.0783 19.731 16.873 19.5229 16.873 19.2642Z" fill="#8A91A1"/>
<path fill-rule="evenodd" clip-rule="evenodd" d="M14.9972 25.0966C17.4636 25.0966 19.3113 24.6016 19.3113 23.9436C19.3113 23.2855 17.7561 22.7933 14.9972 22.7933C12.2384 22.7933 10.6832 23.2939 10.6832 23.9436C10.6832 24.5932 12.5309 25.0966 14.9972 25.0966ZM14.9972 13.3582C17.652 13.3582 19.1116 17.9028 17.4524 22.7287C17.4524 22.7287 16.4399 22.529 14.9972 22.529C13.5546 22.529 12.5421 22.7287 12.5421 22.7287C10.8857 17.9028 12.3425 13.3582 14.9972 13.3582ZM15.0029 0.826804C18.1526 0.826804 25.6754 5.65545 28.0039 8.20054C29.5844 9.92727 28.5945 11.19 26.086 11.0269C22.0476 10.7653 18.6138 10.5122 14.9972 10.4616C11.3807 10.5122 7.94973 10.7653 3.90852 11.0269C1.4028 11.1872 0.41007 9.92727 1.99056 8.20054C4.3163 5.65545 11.8531 0.826804 15.0029 0.826804ZM22.1151 2.81788C21.7776 1.85328 21.7579 1.5383 22.6353 1.55518H24.4971C25.591 1.55518 25.1242 2.21887 24.9161 3.3044C24.7783 4.00747 24.8064 4.20995 24.7333 4.6796C23.6618 3.92872 23.15 3.42252 22.1151 2.81788ZM14.9972 11.3081C12.095 11.3475 9.51054 11.5528 5.29777 11.7749C5.2359 12.7845 5.17122 14.77 3.58511 17.1238C1.53216 20.3664 4.05757 25.3891 10.3598 24.3288C10.3598 24.3288 10.3092 24.3063 10.1883 24.2388C8.1494 23.2574 7.76694 21.9412 9.13369 21.3844C10.1714 20.9626 11.496 20.5267 11.496 20.5267C10.8042 17.1576 11.901 12.5736 14.9944 12.5539C18.0907 12.5736 19.1847 17.1576 18.4957 20.5267C18.4957 20.5267 19.8175 20.9598 20.858 21.3844C22.2248 21.9412 21.8451 23.2574 19.8034 24.2388C19.6825 24.3063 19.6319 24.3288 19.6319 24.3288C25.9341 25.3919 28.4595 20.3664 26.4066 17.1238C24.8233 14.77 24.7558 12.7845 24.6939 11.7749C20.484 11.5528 17.8967 11.3475 14.9944 11.3081H14.9972ZM14.9972 0C16.274 0.00562451 18.6757 0.953356 21.3979 2.49728C21.3726 2.39604 21.3417 2.28918 21.3108 2.18794C21.1392 1.56362 21.263 0.868988 22.3429 0.868988H24.7136C26.176 0.868988 25.9791 1.65361 25.7035 2.74195C25.5376 3.40002 25.397 4.23526 25.3407 5.02269C25.3407 5.02269 27.2587 6.43445 28.3189 7.32874C31.6739 10.1551 29.4888 12.0055 26.2913 11.8452C25.9679 11.8284 25.6557 11.8143 25.3464 11.7974C25.3689 12.7395 25.6473 14.4747 27.1181 16.4461C30.8331 20.8838 25.9144 26.4605 18.971 24.8913C17.8264 25.2738 15.9984 25.4509 14.9972 25.4509C13.9961 25.4509 12.1709 25.2766 11.0263 24.8913C4.08006 26.4605 -0.835759 20.8866 2.87642 16.4461C4.35004 14.4719 4.62846 12.7395 4.65095 11.7974C4.34161 11.8143 4.02663 11.8284 3.70604 11.8452C0.511311 12.0055 -1.67381 10.1298 1.68121 7.30062C2.74424 6.40632 4.65658 5.02269 4.65658 5.02269C5.79273 4.14527 8.13534 2.76445 8.60218 2.5001C11.3244 0.956168 13.7261 0.00843684 15.0001 0.00281232L14.9972 0Z" fill="#8A91A1"/>
<path fill-rule="evenodd" clip-rule="evenodd" d="M21.713 14.2132C21.637 14.5984 21.2827 16.0271 20.0481 16.0889V14.8909C20.0481 14.5844 20.3265 14.216 20.7399 14.216H21.7158L21.713 14.2132ZM20.4587 13.752H23.6C24.095 13.752 24.4999 14.1541 24.4999 14.6519V16.7695C24.4999 17.2673 24.095 17.6694 23.6 17.6694H20.4587C19.9609 17.6694 19.5588 17.2673 19.5588 16.7695V14.6519C19.5588 14.1541 19.9637 13.752 20.4587 13.752ZM22.3457 14.2132C22.4217 14.5984 22.776 16.0271 24.0106 16.0889V14.8909C23.9965 14.5506 23.7265 14.2244 23.3216 14.216H22.3485L22.3457 14.2132Z" fill="#8A91A1"/>
</svg>
