<svg width="180" height="113" viewBox="0 0 180 113" fill="none" xmlns="http://www.w3.org/2000/svg">
<g clip-path="url(#clip0_1737_446)">
<path fill-rule="evenodd" clip-rule="evenodd" d="M99.1667 19.5C102.388 19.5 105 23.6638 105 28.8C105 33.9362 102.388 38.1 99.1667 38.1H152.5C155.722 38.1 158.333 42.2638 158.333 47.4C158.333 52.5362 155.722 56.7 152.5 56.7H170.833C174.055 56.7 176.667 60.8638 176.667 66C176.667 71.1362 174.055 75.3 170.833 75.3H155C151.778 75.3 149.167 79.4638 149.167 84.6C149.167 89.7362 151.778 93.9 155 93.9H160C163.222 93.9 165.833 98.0638 165.833 103.2C165.833 108.336 163.222 112.5 160 112.5H116.667C116.238 112.5 115.819 112.426 115.417 112.286C115.014 112.426 114.596 112.5 114.167 112.5H38.3333C35.1117 112.5 32.5 108.336 32.5 103.2C32.5 98.0638 35.1117 93.9 38.3333 93.9H5.83333C2.61167 93.9 0 89.7362 0 84.6C0 79.4638 2.61167 75.3 5.83333 75.3H39.1667C42.3883 75.3 45 71.1362 45 66C45 60.8638 42.3883 56.7 39.1667 56.7H18.3333C15.1117 56.7 12.5 52.5362 12.5 47.4C12.5 42.2638 15.1117 38.1 18.3333 38.1H51.6667C48.445 38.1 45.8333 33.9362 45.8333 28.8C45.8333 23.6638 48.445 19.5 51.6667 19.5H99.1667ZM174.167 93.9C177.388 93.9 180 98.0638 180 103.2C180 108.336 177.388 112.5 174.167 112.5C170.945 112.5 168.333 108.336 168.333 103.2C168.333 98.0638 170.945 93.9 174.167 93.9Z" fill="black" fill-opacity="0.02"/>
</g>
<path d="M118.66 7.23249V82.9861V99.3534C118.66 104.39 114.841 108.5 110.164 108.5H68.7544C64.4712 108.5 61 104.738 61 100.141V9.06664C61 4.35433 64.5653 0.5 68.9623 0.5H112.363C115.835 0.5 118.66 3.51824 118.66 7.23249Z" fill="url(#paint0_linear_1737_446)"/>
<path d="M116.924 81.2439C115.975 81.2439 115.187 82.034 115.187 82.9861V89.1846H64.4712V9.08852C64.4712 6.25632 66.4848 3.98225 68.9623 3.98225H112.363C113.915 3.98225 115.187 5.44431 115.187 7.23249V15.241C115.187 16.1931 115.975 16.9832 116.924 16.9832C117.872 16.9832 118.66 16.1931 118.66 15.241V7.23249C118.66 3.51824 115.835 0.5 112.363 0.5H68.9623C64.5653 0.5 61 4.35433 61 9.06663V100.141C61 104.738 64.4712 108.5 68.7544 108.5H110.164C114.841 108.5 118.66 104.39 118.66 99.3534V82.9861C118.66 82.034 117.872 81.2439 116.924 81.2439ZM110.164 105.018H68.7544C66.3928 105.018 64.4712 102.836 64.4712 100.141V92.6668H115.187V99.3752C115.187 102.488 112.919 105.018 110.164 105.018Z" fill="#CAD5E2" stroke="#F5F5F9"/>
<rect width="5.27534" height="32.8561" rx="2.63767" transform="matrix(0.756062 -0.6545 0.654479 0.75608 113.078 65.7197)" stroke="#CAD5E2" stroke-width="2.5" stroke-linejoin="round"/>
<path d="M85.6199 33.1045C94.1658 24.5814 107.523 23.1264 117.685 29.5C118.014 30.3067 118.799 31.8757 119.783 33.7617C120.88 35.8653 122.252 38.4204 123.594 40.8906C124.935 43.3615 126.247 45.7502 127.223 47.5205C127.712 48.4057 128.116 49.1369 128.398 49.6465C128.539 49.9011 128.65 50.1007 128.725 50.2363C128.763 50.3041 128.792 50.3558 128.811 50.3906C128.821 50.408 128.828 50.4212 128.833 50.4297C128.833 50.4307 128.833 50.4318 128.834 50.4326C128.832 50.4228 128.848 50.0457 129.102 49.7266C129.218 49.9611 129.325 50.1743 129.418 50.3662C129.42 50.3701 129.422 50.3741 129.424 50.3779V50.7871C129.476 50.7575 129.523 50.7231 129.567 50.6885C129.646 50.8568 129.715 50.9958 129.763 51.1074C129.795 51.1803 129.817 51.2359 129.833 51.2754C129.856 58.209 127.168 64.7261 122.256 69.6416C121.517 70.3761 120.84 70.983 120.177 71.4961L120.167 71.5039C115.4 75.3471 109.657 77.2421 103.932 77.2422C97.2855 77.2422 90.6627 74.6874 85.6199 69.6572C80.7198 64.7697 78.0222 58.2792 78.0222 51.3809C78.0223 44.4804 80.7197 37.9919 85.6199 33.1045Z" fill="white" stroke="#CAD5E2" stroke-width="1.33333"/>
<path d="M85.6199 33.1045C94.2268 24.5206 107.715 23.1044 117.903 29.6357L118.385 29.9531C118.571 30.0785 118.618 30.3265 118.495 30.5078C118.371 30.6912 118.118 30.741 117.931 30.6162C108.009 23.9369 94.6598 25.2236 86.1902 33.6709C81.4451 38.4027 78.8289 44.6964 78.8289 51.3809C78.8289 58.0657 81.445 64.3578 86.1902 69.0918C95.2818 78.1612 109.681 78.9249 119.675 70.8691C120.327 70.359 120.983 69.7759 121.683 69.0752C126.462 64.2961 129.071 57.9415 129.026 51.1904L129.034 51.1104C129.065 50.9552 129.187 50.8295 129.346 50.7959L129.428 50.7871H129.429C129.625 50.7871 129.787 50.9236 129.825 51.1064L129.834 51.1865C129.881 58.1533 127.189 64.7051 122.256 69.6416C121.517 70.3761 120.84 70.983 120.177 71.4961L120.167 71.5039C115.4 75.3471 109.657 77.2421 103.932 77.2422C97.2855 77.2422 90.6627 74.6874 85.6199 69.6572C80.7198 64.7697 78.0222 58.2792 78.0222 51.3809C78.0223 44.4804 80.7197 37.9919 85.6199 33.1045Z" fill="#CAD5E2" stroke="#CAD5E2" stroke-width="1.33333"/>
<path d="M90.8284 38.2754C97.3228 31.7956 107.751 31.0696 115.08 36.585V36.5859C115.258 36.7208 115.291 36.9721 115.159 37.1465C115.027 37.3214 114.776 37.3599 114.594 37.2266C107.585 31.9443 97.6139 32.6411 91.3997 38.8418C84.4762 45.7473 84.4764 56.9821 91.3997 63.8896C94.7422 67.2231 99.19 69.0595 103.918 69.0596H103.932C108.669 69.0573 113.125 67.2093 116.476 63.8613L116.477 63.8623C119.953 60.4082 121.824 55.6527 121.66 50.7529L121.638 50.2783C121.627 50.0865 121.755 49.9158 121.936 49.8672L122.017 49.8545C122.215 49.8429 122.384 49.9698 122.433 50.1523L122.446 50.2334C122.762 55.5297 120.795 60.7042 117.049 64.4268L117.048 64.4277C113.547 67.9273 108.89 69.858 103.934 69.8623H103.918C98.971 69.8622 94.3253 67.9427 90.8284 64.4541C83.5933 57.2357 83.5936 45.4915 90.8284 38.2754Z" fill="#CAD5E2" stroke="#CAD5E2" stroke-width="1.33333"/>
<path d="M127.187 26.0312C134.303 26.0312 140.09 31.8057 140.09 38.8994C140.09 45.9933 134.303 51.7695 127.187 51.7695C120.071 51.7694 114.285 45.9932 114.285 38.8994C114.285 31.8058 120.071 26.0314 127.187 26.0312Z" fill="white" stroke="#CAD5E2" stroke-width="1.33333"/>
<path d="M127.187 26.0312C134.303 26.0312 140.09 31.8057 140.09 38.8994C140.09 45.9933 134.303 51.7695 127.187 51.7695C120.071 51.7694 114.285 45.9932 114.285 38.8994C114.285 31.8058 120.071 26.0314 127.187 26.0312ZM127.187 26.832C120.517 26.8322 115.091 32.2438 115.091 38.8994C115.091 45.5572 120.517 50.9666 127.187 50.9668C133.855 50.9668 139.283 45.5574 139.283 38.8994C139.283 32.2437 133.855 26.832 127.187 26.832Z" fill="#CAD5E2" stroke="#CAD5E2" stroke-width="1.33333"/>
<path d="M127.237 32.5176C129.113 32.5462 130.676 34.0476 130.802 35.8857L130.81 36.0645C130.837 37.7533 129.706 39.2143 128.085 39.6289L127.583 39.7578V41.3105C127.583 41.5302 127.403 41.7119 127.18 41.7119C126.956 41.7119 126.777 41.5302 126.776 41.3105V39.9688C126.777 39.4591 127.153 38.9955 127.701 38.8926L127.7 38.8916C129.055 38.6394 130.025 37.4556 130.002 36.0771C129.978 34.5894 128.711 33.3414 127.225 33.3184H127.18L126.904 33.3311C126.268 33.3925 125.673 33.6667 125.21 34.123C124.667 34.6544 124.37 35.3676 124.37 36.125C124.37 36.3429 124.192 36.5244 123.967 36.5244C123.742 36.5244 123.564 36.3429 123.564 36.125C123.564 35.1483 123.945 34.2389 124.642 33.5547L124.643 33.5537C125.339 32.8686 126.198 32.5071 127.237 32.5176Z" fill="#CAD5E2" stroke="#CAD5E2" stroke-width="1.33333"/>
<path d="M127.186 44.1885C127.411 44.1885 127.589 44.3692 127.59 44.5869V44.8936C127.59 45.1132 127.41 45.2949 127.186 45.2949C126.963 45.2949 126.783 45.1133 126.783 44.8936V44.5869C126.783 44.3692 126.961 44.1885 127.186 44.1885Z" fill="#CAD5E2" stroke="#CAD5E2" stroke-width="1.33333"/>
<path d="M95.7183 50.9746H97.4341C97.6576 50.9747 97.8374 51.1563 97.8374 51.376C97.8373 51.5955 97.6575 51.7772 97.4341 51.7773H95.7183C95.4965 51.7773 95.317 51.5973 95.3169 51.376C95.3169 51.1545 95.4964 50.9746 95.7183 50.9746Z" fill="#CAD5E2" stroke="#CAD5E2" stroke-width="1.33333"/>
<path d="M103.075 50.9746H104.791C105.015 50.9746 105.195 51.1563 105.195 51.376C105.194 51.5956 105.015 51.7773 104.791 51.7773H103.075C102.852 51.7773 102.672 51.5956 102.672 51.376C102.672 51.1563 102.852 50.9746 103.075 50.9746Z" fill="#CAD5E2" stroke="#CAD5E2" stroke-width="1.33333"/>
<path d="M110.433 50.9746H112.147C112.371 50.9747 112.55 51.1563 112.55 51.376C112.55 51.5955 112.371 51.7772 112.147 51.7773H110.433C110.21 51.7773 110.03 51.5956 110.03 51.376C110.03 51.1563 110.21 50.9746 110.433 50.9746Z" fill="#CAD5E2" stroke="#CAD5E2" stroke-width="1.33333"/>
<path d="M153.079 38.9576C152.974 38.8526 152.974 38.6827 153.079 38.5788C153.184 38.4749 153.354 38.4737 153.458 38.5788L155.145 40.2662L156.832 38.5788C156.937 38.4737 157.107 38.4737 157.211 38.5788C157.315 38.6838 157.316 38.8537 157.211 38.9576L155.524 40.645L157.211 42.3324C157.316 42.4374 157.316 42.6073 157.211 42.7112C157.106 42.8151 156.936 42.8163 156.832 42.7112L155.145 41.0238L153.458 42.7112C153.353 42.8163 153.183 42.8163 153.079 42.7112C152.975 42.6062 152.974 42.4363 153.079 42.3324L154.766 40.645L153.079 38.9576Z" fill="black" stroke="#CAD5E2"/>
<path d="M90.1149 96.5H86.7356C85.7857 96.5 85 97.2901 85 98.24C85 99.1921 85.7857 99.9822 86.7356 99.9822H90.1149C91.0648 99.9822 91.8505 99.1921 91.8505 98.24C91.8505 97.2901 91.0866 96.5 90.1149 96.5Z" fill="#CAD5E2"/>
<path d="M168.582 86.683C168.582 85.7816 168.224 84.9171 167.586 84.2798C166.949 83.6424 166.084 83.2843 165.183 83.2843C164.282 83.2843 163.417 83.6424 162.78 84.2798C162.142 84.9171 161.784 85.7816 161.784 86.683C161.784 87.5844 162.142 88.4489 162.78 89.0862C163.417 89.7236 164.282 90.0817 165.183 90.0817C166.084 90.0817 166.949 89.7236 167.586 89.0862C168.224 88.4489 168.582 87.5844 168.582 86.683ZM161 86.683C161 85.5736 161.441 84.5096 162.225 83.7252C163.01 82.9407 164.074 82.5 165.183 82.5C166.292 82.5 167.356 82.9407 168.141 83.7252C168.925 84.5096 169.366 85.5736 169.366 86.683C169.366 87.7924 168.925 88.8564 168.141 89.6408C167.356 90.4253 166.292 90.866 165.183 90.866C164.074 90.866 163.01 90.4253 162.225 89.6408C161.441 88.8564 161 87.7924 161 86.683Z" fill="#CAD5E2" stroke="#CAD5E2"/>
<path d="M40.5817 100.683C40.5817 99.7816 40.2236 98.9171 39.5862 98.2798C38.9489 97.6424 38.0844 97.2843 37.183 97.2843C36.2816 97.2843 35.4171 97.6424 34.7798 98.2798C34.1424 98.9171 33.7843 99.7816 33.7843 100.683C33.7843 101.584 34.1424 102.449 34.7798 103.086C35.4171 103.724 36.2816 104.082 37.183 104.082C38.0844 104.082 38.9489 103.724 39.5862 103.086C40.2236 102.449 40.5817 101.584 40.5817 100.683ZM33 100.683C33 99.5736 33.4407 98.5096 34.2252 97.7252C35.0096 96.9407 36.0736 96.5 37.183 96.5C38.2924 96.5 39.3564 96.9407 40.1408 97.7252C40.9253 98.5096 41.366 99.5736 41.366 100.683C41.366 101.792 40.9253 102.856 40.1408 103.641C39.3564 104.425 38.2924 104.866 37.183 104.866C36.0736 104.866 35.0096 104.425 34.2252 103.641C33.4407 102.856 33 101.792 33 100.683Z" fill="#CAD5E2" stroke="#CAD5E2"/>
<path d="M20.5817 19.683C20.5817 18.7816 20.2236 17.9171 19.5862 17.2798C18.9489 16.6424 18.0844 16.2843 17.183 16.2843C16.2816 16.2843 15.4171 16.6424 14.7798 17.2798C14.1424 17.9171 13.7843 18.7816 13.7843 19.683C13.7843 20.5844 14.1424 21.4489 14.7798 22.0862C15.4171 22.7236 16.2816 23.0817 17.183 23.0817C18.0844 23.0817 18.9489 22.7236 19.5862 22.0862C20.2236 21.4489 20.5817 20.5844 20.5817 19.683ZM13 19.683C13 18.5736 13.4407 17.5096 14.2252 16.7252C15.0096 15.9407 16.0736 15.5 17.183 15.5C18.2924 15.5 19.3564 15.9407 20.1408 16.7252C20.9253 17.5096 21.366 18.5736 21.366 19.683C21.366 20.7924 20.9253 21.8564 20.1408 22.6408C19.3564 23.4253 18.2924 23.866 17.183 23.866C16.0736 23.866 15.0096 23.4253 14.2252 22.6408C13.4407 21.8564 13 20.7924 13 19.683Z" fill="#CAD5E2" stroke="#CAD5E2"/>
<path d="M41.0788 51.9576C40.9737 51.8526 40.9737 51.6827 41.0788 51.5788C41.1838 51.4749 41.3537 51.4737 41.4576 51.5788L43.145 53.2662L44.8324 51.5788C44.9374 51.4737 45.1073 51.4737 45.2112 51.5788C45.3151 51.6838 45.3163 51.8537 45.2112 51.9576L43.5238 53.645L45.2112 55.3324C45.3163 55.4374 45.3163 55.6073 45.2112 55.7112C45.1062 55.8151 44.9363 55.8163 44.8324 55.7112L43.145 54.0238L41.4576 55.7112C41.3526 55.8163 41.1827 55.8163 41.0788 55.7112C40.9749 55.6062 40.9737 55.4363 41.0788 55.3324L42.7662 53.645L41.0788 51.9576Z" fill="black" stroke="#CAD5E2"/>
<defs>
<linearGradient id="paint0_linear_1737_446" x1="113.707" y1="1.97082" x2="77.3564" y2="76.3513" gradientUnits="userSpaceOnUse">
<stop stop-color="white" stop-opacity="0"/>
<stop offset="1" stop-color="white"/>
</linearGradient>
<clipPath id="clip0_1737_446">
<rect width="180" height="93" fill="white" transform="translate(0 19.5)"/>
</clipPath>
</defs>
</svg>
