<svg width="200" height="102" viewBox="0 0 200 102" fill="none" xmlns="http://www.w3.org/2000/svg">
<path fill-rule="evenodd" clip-rule="evenodd" d="M191.617 0C196.247 0 200 4.43238 200 9.9C200 15.3676 196.247 19.8 191.617 19.8H143.713C148.343 19.8 152.096 24.2324 152.096 29.7C152.096 35.1676 148.343 39.6 143.713 39.6H170.06C174.69 39.6 178.443 44.0324 178.443 49.5C178.443 54.9676 174.69 59.4 170.06 59.4H157.876C152.038 59.4 147.305 63.8324 147.305 69.3C147.305 72.9451 149.701 76.2451 154.491 79.2C159.121 79.2 162.874 83.6324 162.874 89.1C162.874 94.5676 159.121 99 154.491 99H55.0898C50.4599 99 46.7066 94.5676 46.7066 89.1C46.7066 83.6324 50.4599 79.2 55.0898 79.2H8.38323C3.7533 79.2 0 74.7676 0 69.3C0 63.8324 3.7533 59.4 8.38323 59.4H56.2874C60.9174 59.4 64.6707 54.9676 64.6707 49.5C64.6707 44.0324 60.9174 39.6 56.2874 39.6H26.3473C21.7174 39.6 17.9641 35.1676 17.9641 29.7C17.9641 24.2324 21.7174 19.8 26.3473 19.8H74.2515C69.6216 19.8 65.8683 15.3676 65.8683 9.9C65.8683 4.43238 69.6216 0 74.2515 0H191.617ZM191.617 39.6C196.247 39.6 200 44.0324 200 49.5C200 54.9676 196.247 59.4 191.617 59.4C186.987 59.4 183.234 54.9676 183.234 49.5C183.234 44.0324 186.987 39.6 191.617 39.6Z" fill="#F5F5F9"/>
<path d="M71.0934 20.8194H63.0023C62.5255 20.8194 62.1396 20.4336 62.1396 19.9584V16.5065C62.1396 13.8088 64.3418 11.6133 67.0479 11.6133C68.3602 11.6133 69.5929 12.1219 70.5193 13.0451C71.4474 13.9682 71.9561 15.1991 71.9561 16.5065V19.9584C71.9561 20.4336 71.5702 20.8194 71.0934 20.8194Z" fill="white"/>
<path d="M71.0934 20.8194H63.0023C62.5255 20.8194 62.1396 20.4336 62.1396 19.9584V16.5065C62.1396 13.8088 64.3418 11.6133 67.0479 11.6133C68.3602 11.6133 69.5929 12.1219 70.5193 13.0451C71.4474 13.9682 71.9561 15.1991 71.9561 16.5065V19.9584C71.9561 20.4336 71.5702 20.8194 71.0934 20.8194ZM63.8666 19.0991H70.2307V16.5065C70.2307 15.6583 69.9006 14.8611 69.2995 14.2616C68.6999 13.6637 67.8994 13.3337 67.0479 13.3337C65.2938 13.3337 63.8666 14.7575 63.8666 16.5065V19.0991Z" fill="#D1DBE6"/>
<path d="M71.0934 46.8647H63.0023C62.5255 46.8647 62.1396 46.4789 62.1396 46.0037V40.2335C62.1396 39.7584 62.5255 39.3726 63.0023 39.3726H71.0934C71.5702 39.3726 71.9561 39.7584 71.9561 40.2335V46.0037C71.9561 46.4789 71.5702 46.8647 71.0934 46.8647ZM63.8666 45.1427H70.2307V41.0929H63.8666V45.1427Z" fill="#D1DBE6"/>
<path d="M71.0934 85.9374H63.0023C62.5255 85.9374 62.1396 85.5531 62.1396 85.078V66.2671C62.1396 65.792 62.5255 65.4077 63.0023 65.4077H71.0934C71.5702 65.4077 71.9561 65.792 71.9561 66.2671V85.078C71.9561 85.5531 71.5702 85.9374 71.0934 85.9374ZM63.8666 84.217H70.2307V67.1281H63.8666V84.217Z" fill="#D1DBE6"/>
<path d="M56.7969 94.71H77.3052C78.9763 94.71 80.3349 93.3548 80.3349 91.6886V87.229C80.3349 85.5661 78.9763 84.2124 77.3052 84.2124H56.7969C55.1257 84.2124 53.7655 85.5661 53.7655 87.229V91.6886C53.7655 93.3548 55.1257 94.71 56.7969 94.71Z" fill="white"/>
<path d="M77.3052 94.71H56.7969C55.1257 94.71 53.7655 93.3548 53.7655 91.6886V87.229C53.7655 85.5661 55.1257 84.2124 56.7969 84.2124H77.3052C78.9763 84.2124 80.3349 85.5661 80.3349 87.229V91.6886C80.3349 93.3548 78.9763 94.71 77.3052 94.71ZM56.7969 85.9328C56.0777 85.9328 55.4925 86.5147 55.4925 87.229V91.6886C55.4925 92.4045 56.0777 92.9881 56.7969 92.9881H77.3052C78.0243 92.9881 78.6096 92.4045 78.6096 91.6886V87.229C78.6096 86.5147 78.0243 85.9328 77.3052 85.9328H56.7969Z" fill="#D1DBE6"/>
<path d="M134.139 94.8306H154.647C156.319 94.8306 157.677 93.4754 157.677 91.8092V87.3496C157.677 85.6867 156.319 84.333 154.647 84.333H134.139C132.468 84.333 131.108 85.6867 131.108 87.3496V91.8092C131.108 93.4754 132.468 94.8306 134.139 94.8306Z" fill="white"/>
<path d="M154.647 94.8306H134.139C132.468 94.8306 131.108 93.4754 131.108 91.8092V87.3496C131.108 85.6867 132.468 84.333 134.139 84.333H154.647C156.319 84.333 157.677 85.6867 157.677 87.3496V91.8092C157.677 93.4754 156.319 94.8306 154.647 94.8306ZM134.139 86.0534C133.42 86.0534 132.835 86.6353 132.835 87.3496V91.8092C132.835 92.5251 133.42 93.1087 134.139 93.1087H154.647C155.367 93.1087 155.952 92.5251 155.952 91.8092V87.3496C155.952 86.6353 155.367 86.0534 154.647 86.0534H134.139Z" fill="#D1DBE6"/>
<path d="M148.386 20.8194H140.294C139.818 20.8194 139.432 20.4336 139.432 19.9584V16.5065C139.432 13.8088 141.634 11.6133 144.34 11.6133C145.652 11.6133 146.885 12.1219 147.811 13.0451C148.738 13.9682 149.248 15.1991 149.248 16.5065V19.9584C149.248 20.4336 148.862 20.8194 148.386 20.8194Z" fill="white"/>
<path d="M148.386 20.8194H140.294C139.818 20.8194 139.432 20.4336 139.432 19.9584V16.5065C139.432 13.8088 141.634 11.6133 144.34 11.6133C145.652 11.6133 146.885 12.1219 147.811 13.0451C148.738 13.9682 149.248 15.1991 149.248 16.5065V19.9584C149.248 20.4336 148.862 20.8194 148.386 20.8194ZM141.157 19.0991H147.523V16.5065C147.523 15.6583 147.193 14.8611 146.592 14.2616C145.992 13.6637 145.192 13.3337 144.34 13.3337C142.586 13.3337 141.157 14.7575 141.157 16.5065V19.0991Z" fill="#D1DBE6"/>
<path d="M148.386 46.8647H140.294C139.818 46.8647 139.432 46.4789 139.432 46.0037V40.2335C139.432 39.7584 139.818 39.3726 140.294 39.3726H148.386C148.862 39.3726 149.248 39.7584 149.248 40.2335V46.0037C149.248 46.4789 148.862 46.8647 148.386 46.8647ZM141.157 45.1427H147.523V41.0929H141.157V45.1427Z" fill="#D1DBE6"/>
<path d="M148.386 85.9374H140.294C139.818 85.9374 139.432 85.5531 139.432 85.078V66.2671C139.432 65.792 139.818 65.4077 140.294 65.4077H148.386C148.862 65.4077 149.248 65.792 149.248 66.2671V85.078C149.248 85.5531 148.862 85.9374 148.386 85.9374ZM141.157 84.217H147.523V67.1281H141.157V84.217Z" fill="#D1DBE6"/>
<mask id="mask0_1719_609" style="mask-type:luminance" maskUnits="userSpaceOnUse" x="50" y="19" width="111" height="23">
<path d="M50.8928 19.021H160.5V41.4703H50.8928V19.021Z" fill="white"/>
</mask>
<g mask="url(#mask0_1719_609)">
<path d="M156.328 41.0981H55.0643C54.4871 41.0981 53.9098 40.9785 53.39 40.7489C51.8735 40.0872 50.8928 38.5916 50.8928 36.9398V23.2677C50.8928 20.9734 52.7633 19.1079 55.0643 19.1079H84.0113C84.4881 19.1079 84.8756 19.4922 84.8756 19.9673C84.8756 20.4424 84.4881 20.8283 84.0113 20.8283H55.0643C53.7153 20.8283 52.6182 21.922 52.6182 23.2677V36.9398C52.6182 37.9076 53.1938 38.7846 54.0852 39.1736C54.3898 39.3075 54.7263 39.3777 55.0643 39.3777H156.327C156.74 39.3777 157.131 39.2788 157.491 39.0843C157.697 38.9711 157.888 38.8292 158.055 38.6618C158.519 38.2026 158.773 37.5919 158.773 36.9398V23.2677C158.773 21.922 157.676 20.8283 156.327 20.8283H126.932C126.455 20.8283 126.069 20.4424 126.069 19.9673C126.069 19.4922 126.455 19.1079 126.932 19.1079H156.327C158.628 19.1079 160.5 20.9734 160.5 23.2677V36.9398C160.5 38.0527 160.065 39.0987 159.274 39.8815C158.991 40.1621 158.669 40.4029 158.317 40.5942C157.709 40.9243 157.022 41.0981 156.327 41.0981H156.328Z" fill="#D1DBE6"/>
</g>
<path d="M70.1226 41.0982H55.0646C54.4874 41.0982 53.9069 40.9786 53.3903 40.749C53.1304 40.6342 52.9438 40.3998 52.8912 40.1208C52.8386 39.8418 52.9279 39.5548 53.1288 39.3539L73.1778 19.36C73.3405 19.1973 73.559 19.1064 73.7886 19.1064H83.8187C84.2955 19.1064 84.6814 19.4923 84.6814 19.9674C84.6814 20.4426 84.2955 20.8284 83.8187 20.8284H74.1458L70.2135 24.7507L55.5478 39.3778H69.7654L82.846 26.3387C83.1825 26.0023 83.7294 26.0023 84.0659 26.3387C84.4039 26.6751 84.4023 27.2188 84.0659 27.5552L70.7333 40.8463C70.5707 41.0073 70.3522 41.0982 70.1226 41.0982Z" fill="#D1DBE6"/>
<path d="M106.604 41.0947H89.9415C89.5923 41.0947 89.2782 40.8859 89.1442 40.5638C89.0103 40.2433 89.0836 39.8718 89.3308 39.6263L91.6621 37.3016C92.0002 36.9652 92.5455 36.9652 92.8836 37.3016C93.22 37.6381 93.22 38.1833 92.8836 38.5182L92.0257 39.3744H106.246L107.827 37.7991C108.165 37.4627 108.71 37.4627 109.048 37.7991C109.385 38.1339 109.385 38.6792 109.048 39.0156L107.214 40.8428C107.053 41.0055 106.833 41.0947 106.604 41.0947Z" fill="#D1DBE6"/>
<mask id="mask1_1719_609" style="mask-type:luminance" maskUnits="userSpaceOnUse" x="125" y="19" width="36" height="23">
<path d="M125.306 19.021H160.499V41.4703H125.306V19.021Z" fill="white"/>
</mask>
<g mask="url(#mask1_1719_609)">
<path d="M143.08 41.0987H126.422C126.072 41.0987 125.757 40.8898 125.624 40.5677C125.49 40.2457 125.564 39.8758 125.811 39.6302L141.955 23.533L146.14 19.3604C146.303 19.1978 146.522 19.1069 146.751 19.1069H156.328C158.628 19.1069 160.5 20.974 160.5 23.2668V23.7339C160.5 23.9619 160.409 24.182 160.246 24.343L143.69 40.8468C143.529 41.0078 143.308 41.0987 143.08 41.0987ZM128.504 39.3783H142.723L158.773 23.3784V23.2668C158.773 21.9227 157.676 20.8289 156.328 20.8289H147.108L143.175 24.7512L128.504 39.3783Z" fill="#D1DBE6"/>
</g>
<mask id="mask2_1719_609" style="mask-type:luminance" maskUnits="userSpaceOnUse" x="50" y="45" width="111" height="23">
<path d="M50.8928 45.1294H160.5V67.1706H50.8928V45.1294Z" fill="white"/>
</mask>
<g mask="url(#mask2_1719_609)">
<path d="M156.328 67.1211H55.0643C54.4887 67.1211 53.9098 67 53.39 66.7704C51.8735 66.1087 50.8928 64.6131 50.8928 62.9613V49.2892C50.8928 46.9949 52.7633 45.1294 55.0643 45.1294H156.327C158.628 45.1294 160.5 46.9949 160.5 49.2892V62.9613C160.5 65.2541 158.628 67.1211 156.327 67.1211H156.328ZM55.0643 46.8498C53.7153 46.8498 52.6182 47.9451 52.6182 49.2892V62.9613C52.6182 63.9291 53.1938 64.8061 54.0852 65.1967C54.3898 65.329 54.7263 65.3992 55.0643 65.3992H156.328C157.676 65.3992 158.773 64.3054 158.773 62.9613V49.2892C158.773 47.9451 157.676 46.8498 156.328 46.8498H55.0643Z" fill="#D1DBE6"/>
</g>
<path d="M70.1225 67.1211H55.0646C54.4874 67.1211 53.9069 67 53.3903 66.772C53.1304 66.6572 52.9438 66.4212 52.8912 66.1422C52.8386 65.8632 52.9279 65.5762 53.1288 65.3753L73.1778 45.3813C73.3404 45.2203 73.5589 45.1294 73.7885 45.1294H90.4554C90.8046 45.1294 91.1203 45.3383 91.2527 45.6603C91.3866 45.9824 91.3133 46.3523 91.0661 46.5978L86.8803 50.772L70.7333 66.8692C70.5706 67.0303 70.3521 67.1211 70.1225 67.1211Z" fill="white"/>
<path d="M70.1225 67.1211H55.0646C54.4874 67.1211 53.9069 67 53.3903 66.772C53.1304 66.6572 52.9438 66.4212 52.8912 66.1422C52.8386 65.8632 52.9279 65.5762 53.1288 65.3753L73.1778 45.3813C73.3404 45.2203 73.5589 45.1294 73.7885 45.1294H90.4554C90.8046 45.1294 91.1203 45.3383 91.2527 45.6603C91.3866 45.9824 91.3133 46.3523 91.0661 46.5978L86.8803 50.772L70.7333 66.8692C70.5706 67.0303 70.3521 67.1211 70.1225 67.1211ZM55.5462 65.3992H69.7653L88.3728 46.8498H74.1457L70.2134 50.772L55.5462 65.3992Z" fill="#D1DBE6"/>
<path d="M106.605 67.1211H89.9415C89.5923 67.1211 89.2782 66.9107 89.1442 66.5886C89.0103 66.2681 89.0836 65.8982 89.3308 65.6511L109.66 45.3813C109.822 45.2203 110.042 45.1294 110.271 45.1294H126.933C127.283 45.1294 127.598 45.3383 127.731 45.6603C127.865 45.9824 127.791 46.3523 127.544 46.5978L107.214 66.8692C107.053 67.0303 106.833 67.1211 106.605 67.1211Z" fill="white"/>
<path d="M106.605 67.1211H89.9415C89.5923 67.1211 89.2782 66.9107 89.1442 66.5886C89.0103 66.2681 89.0836 65.8982 89.3308 65.6511L109.66 45.3813C109.822 45.2203 110.042 45.1294 110.271 45.1294H126.933C127.283 45.1294 127.598 45.3383 127.731 45.6603C127.865 45.9824 127.791 46.3523 127.544 46.5978L107.214 66.8692C107.053 67.0303 106.833 67.1211 106.605 67.1211ZM92.0257 65.3992H106.248L124.851 46.8498H110.628L92.0257 65.3992Z" fill="#D1DBE6"/>
<path d="M143.08 67.1211H126.421C126.072 67.1211 125.756 66.9107 125.624 66.5886C125.49 66.2681 125.563 65.8982 125.811 65.6511L141.954 49.5555L146.14 45.3813C146.303 45.2203 146.521 45.1294 146.751 45.1294H156.328C158.628 45.1294 160.5 46.9949 160.5 49.2892V49.7564C160.5 49.9844 160.409 50.2028 160.246 50.3639L143.689 66.8692C143.528 67.0303 143.308 67.1211 143.08 67.1211Z" fill="white"/>
<path d="M143.08 67.1211H126.421C126.072 67.1211 125.756 66.9107 125.624 66.5886C125.49 66.2681 125.563 65.8982 125.811 65.6511L141.954 49.5555L146.14 45.3813C146.303 45.2203 146.521 45.1294 146.751 45.1294H156.328C158.628 45.1294 160.5 46.9949 160.5 49.2892V49.7564C160.5 49.9844 160.409 50.2028 160.246 50.3639L143.689 66.8692C143.528 67.0303 143.308 67.1211 143.08 67.1211ZM128.504 65.3992H142.723L158.773 49.3992V49.2892C158.773 47.9435 157.676 46.8498 156.328 46.8498H147.108L143.174 50.772L128.504 65.3992Z" fill="#D1DBE6"/>
<path d="M115.461 35.3298H95.9316C95.4165 35.3298 94.9174 35.2852 94.4486 35.1975C91.827 34.7335 89.5818 33.0019 88.4417 30.5641C87.292 28.1039 87.4148 25.3408 88.7797 22.9826L89.0732 22.474L91.4922 18.2983L98.5483 6.11374C100.44 2.84678 104.311 1.28426 107.963 2.31425C110.025 2.88505 111.76 4.23552 112.844 6.11374L119.9 18.2983L122.608 22.9747C122.667 23.0703 122.716 23.1644 122.761 23.2473C124.129 25.8127 124.046 28.8389 122.538 31.3406C121.032 33.839 118.387 35.3298 115.461 35.3298Z" fill="white"/>
<path d="M115.461 35.3298H95.9316C95.4165 35.3298 94.9174 35.2851 94.4486 35.1975C91.827 34.7335 89.5818 33.0019 88.4417 30.5641C87.292 28.1039 87.4148 25.3408 88.7797 22.9826L89.0732 22.474L91.4922 18.2983L98.5483 6.11374C100.44 2.84678 104.311 1.28426 107.963 2.31425C110.025 2.88505 111.76 4.23552 112.844 6.11374L119.9 18.2983L122.608 22.9747C122.667 23.0703 122.716 23.1644 122.761 23.2473C124.129 25.8127 124.046 28.8389 122.538 31.3406C121.032 33.839 118.387 35.3298 115.461 35.3298ZM105.699 3.72212C103.406 3.72212 101.23 4.92271 100.044 6.97313L92.9879 19.1592L90.2755 23.842C89.1959 25.7091 89.0971 27.8934 90.006 29.837C90.9101 31.7679 92.6849 33.1391 94.7532 33.5026C94.7579 33.5042 94.7611 33.5042 94.7643 33.5042C95.1295 33.5743 95.5218 33.6094 95.9316 33.6094H115.461C117.776 33.6094 119.868 32.4296 121.059 30.4541C122.251 28.4738 122.318 26.0822 121.235 24.0541C121.197 23.9792 121.161 23.9138 121.13 23.8628C121.125 23.8548 121.122 23.8484 121.117 23.842L120.823 23.3318L118.406 19.1592L111.35 6.97313C110.49 5.48873 109.122 4.42207 107.497 3.97085C106.899 3.80343 106.295 3.72212 105.699 3.72212Z" fill="#D1DBE6"/>
<path d="M115.495 14.3696C115.495 14.3696 120.547 22.9412 120.853 23.5535C121.159 24.1657 122.231 25.3902 122.078 27.38C121.925 29.3699 121.312 30.5944 120.853 31.2066C120.394 31.8189 119.169 32.4312 118.557 32.7373C117.945 33.0434 117.179 33.2347 115.495 33.6557C113.811 34.0766 106.234 33.6557 106.234 33.6557H96.9723C95.5946 33.6557 92.8391 33.1965 92.3798 32.7373C91.9206 32.2781 90.4816 30.7475 89.9305 29.3699C89.3794 27.9923 89.3182 26.4617 89.6243 25.6963C89.9305 24.931 91.3083 22.3289 91.3083 22.3289C91.3083 22.3289 100.034 25.8494 106.234 23.8596C112.434 21.8698 115.495 14.3696 115.495 14.3696Z" fill="#F1F5F9"/>
<path d="M103.555 11.4748V10.4037C103.555 9.30456 104.446 8.41357 105.545 8.41357C106.644 8.41357 107.535 9.30456 107.535 10.4037V21.1176C107.535 22.2167 106.644 23.1077 105.545 23.1077C104.446 23.1077 103.555 22.2167 103.555 21.1176V13.4647" stroke="#CAD5E2" stroke-width="1.5" stroke-linecap="round" stroke-linejoin="round"/>
<path d="M103.555 28.0068C103.555 29.1267 104.463 30.0347 105.583 30.0347C106.703 30.0347 107.611 29.1267 107.611 28.0068C107.611 26.8868 106.703 25.9789 105.583 25.9789C104.463 25.9789 103.555 26.8868 103.555 28.0068Z" stroke="#CAD5E2" stroke-width="1.5" stroke-linejoin="round"/>
<path d="M68.6516 70.5576V74.0781" stroke="#D1DBE6" stroke-width="1.5" stroke-linecap="round"/>
<path d="M68.5714 76.357V77.4285" stroke="#D1DBE6" stroke-width="1.5" stroke-linecap="round"/>
<path d="M146.417 70.5576V74.0781" stroke="#D1DBE6" stroke-width="1.5" stroke-linecap="round"/>
<path d="M146.357 76.25V77.3214" stroke="#D1DBE6" stroke-width="1.5" stroke-linecap="round"/>
<path d="M123.76 69.0171H114.881" stroke="#D1DBE6" stroke-width="1.5" stroke-linecap="round"/>
<path d="M112.739 69.0171H111.668" stroke="#D1DBE6" stroke-width="1.5" stroke-linecap="round"/>
<path d="M77.2228 43.9043H86.1016" stroke="#D1DBE6" stroke-width="1.5" stroke-linecap="round"/>
<path d="M88.2456 43.9043H89.3172" stroke="#D1DBE6" stroke-width="1.5" stroke-linecap="round"/>
<path d="M161.51 9.42661C163.37 9.42661 164.877 8.02797 164.877 6.30266C164.877 4.57735 163.37 3.17871 161.51 3.17871C159.65 3.17871 158.143 4.57735 158.143 6.30266C158.143 8.02797 159.65 9.42661 161.51 9.42661Z" stroke="#CAD5E2" stroke-width="1.5"/>
<path d="M196.304 26.0863C198.163 26.0863 199.671 24.6876 199.671 22.9623C199.671 21.237 198.163 19.8384 196.304 19.8384C194.444 19.8384 192.937 21.237 192.937 22.9623C192.937 24.6876 194.444 26.0863 196.304 26.0863Z" fill="#CAD5E2"/>
<path d="M170.217 17.5044L179.598 26.208M179.74 17.5044L170.359 26.208L179.74 17.5044Z" stroke="#CAD5E2" stroke-width="1.5" stroke-linecap="round" stroke-linejoin="round"/>
<path d="M26.1428 91.708L35.2891 100.194M35.2891 91.708L26.1428 100.194L35.2891 91.708Z" stroke="#CAD5E2" stroke-width="2.5" stroke-linecap="round" stroke-linejoin="round"/>
<path d="M46.8687 74.3931C49.1541 74.3931 50.9419 76.1038 50.9419 78.1362C50.9417 80.1686 49.154 81.8784 46.8687 81.8784C44.5833 81.8784 42.7956 80.1686 42.7954 78.1362C42.7954 76.1037 44.5832 74.3931 46.8687 74.3931Z" fill="white" stroke="#CAD5E2"/>
</svg>
