<svg width="193" height="116" viewBox="0 0 193 116" fill="none" xmlns="http://www.w3.org/2000/svg">
<g clip-path="url(#clip0_1737_536)">
<path fill-rule="evenodd" clip-rule="evenodd" d="M106.329 25C109.783 25 112.583 28.9399 112.583 33.8C112.583 38.6601 109.783 42.6 106.329 42.6H163.514C166.968 42.6 169.769 46.5399 169.769 51.4C169.769 56.2601 166.968 60.2 163.514 60.2H183.171C186.626 60.2 189.426 64.1399 189.426 69C189.426 73.8601 186.626 77.8 183.171 77.8H166.194C162.74 77.8 159.94 81.7399 159.94 86.6C159.94 91.4601 162.74 95.4 166.194 95.4H171.556C175.01 95.4 177.81 99.3399 177.81 104.2C177.81 109.06 175.01 113 171.556 113H125.093C124.633 113 124.184 112.93 123.752 112.797C123.321 112.93 122.872 113 122.412 113H41.1019C37.6475 113 34.8472 109.06 34.8472 104.2C34.8472 99.3399 37.6475 95.4 41.1019 95.4H6.25463C2.80029 95.4 0 91.4601 0 86.6C0 81.7399 2.80029 77.8 6.25463 77.8H41.9954C45.4497 77.8 48.25 73.8601 48.25 69C48.25 64.1399 45.4497 60.2 41.9954 60.2H19.6574C16.2031 60.2 13.4028 56.2601 13.4028 51.4C13.4028 46.5399 16.2031 42.6 19.6574 42.6H55.3981C51.9438 42.6 49.1435 38.6601 49.1435 33.8C49.1435 28.9399 51.9438 25 55.3981 25H106.329ZM186.745 95.4C190.2 95.4 193 99.3399 193 104.2C193 109.06 190.2 113 186.745 113C183.291 113 180.491 109.06 180.491 104.2C180.491 99.3399 183.291 95.4 186.745 95.4Z" fill="black" fill-opacity="0.02"/>
</g>
<mask id="path-2-inside-1_1737_536" fill="white">
<path d="M94.1521 51.7221C77.4383 51.7221 61.759 59.1198 51.1383 72.0119C49.9719 73.4209 49.4961 75.1245 49.7601 76.9447C50.1284 79.4495 51.9825 81.5153 54.4811 82.209C55.0643 82.3717 55.6506 82.4515 56.2277 82.4515C58.0847 82.4515 59.8467 81.6381 61.0776 80.1463C69.2395 70.2408 81.2906 64.559 94.1429 64.556H94.149C107.001 64.556 119.059 70.2408 127.227 80.1463C129.348 82.7216 132.958 83.1943 135.809 81.2728C137.292 80.2752 138.286 78.7005 138.544 76.9447C138.799 75.1889 138.295 73.3932 137.16 72.015C126.536 59.1198 110.86 51.7221 94.1521 51.7221ZM94.1521 89.0633C87.8257 89.0633 82.6811 94.1956 82.6811 100.504C82.6811 106.815 87.8257 111.95 94.1521 111.95C100.472 111.95 105.614 106.815 105.614 100.504C105.614 94.1956 100.472 89.0633 94.1521 89.0633ZM94.1521 70.5477C83.9243 70.5477 74.0772 74.8451 67.1338 82.3379C65.8415 83.7315 65.2737 85.4689 65.4916 87.3628C65.7832 89.8706 67.4929 91.9272 69.9517 92.7253C72.349 93.505 74.8875 92.8542 76.5819 91.0279C81.1679 86.092 87.4052 83.3724 94.149 83.3724C100.89 83.3724 107.127 86.092 111.713 91.0279C112.962 92.3723 114.651 93.0691 116.36 93.0691C117.582 93.0691 118.816 92.7131 119.9 91.9794L120.05 91.8812C121.594 90.8437 122.604 89.1984 122.816 87.3659C123.031 85.5333 122.426 83.7008 121.161 82.3379C114.218 74.8451 104.371 70.5477 94.1521 70.5477ZM146.602 47.7839C146.651 47.7348 146.697 47.6826 146.74 47.6273C151.731 42.5718 154.819 35.6376 154.819 27.9944C154.819 20.3543 151.734 13.4201 146.746 8.36456C146.7 8.30623 146.654 8.25098 146.602 8.1988C146.55 8.14662 146.491 8.10057 146.436 8.05453C141.368 3.0757 134.419 0 126.763 0C119.108 0 112.158 3.07877 107.09 8.06067C107.038 8.10364 106.986 8.14662 106.934 8.1988C106.885 8.24791 106.839 8.30317 106.796 8.35535C101.801 13.414 98.7165 20.3512 98.7165 27.9944C98.7165 29.7287 98.8762 31.4231 99.18 33.0684C97.5163 32.9579 95.8311 32.8965 94.1521 32.8965C82.4663 32.8965 71.2777 35.521 60.8965 40.6932C51.0002 45.626 42.1629 52.8486 35.3424 61.5816C34.2312 62.9997 33.7984 64.691 34.0869 66.4622C34.486 68.9761 36.3829 71.0235 38.9153 71.6743C39.4617 71.8155 40.0081 71.883 40.5483 71.883C42.4607 71.883 44.2625 71.0235 45.4842 69.455C57.2682 54.3712 75.0072 45.7181 94.1521 45.7181C98.1425 45.7181 102.151 46.1079 106.074 46.8722C106.311 47.1301 106.553 47.3848 106.802 47.6365C106.842 47.6856 106.885 47.7378 106.934 47.7839C106.98 47.833 107.032 47.876 107.084 47.9159C112.149 52.9039 119.101 55.9857 126.763 55.9857C127.248 55.9857 127.727 55.9735 128.203 55.9489C133.783 59.6447 138.698 64.1876 142.811 69.458C144.066 71.0604 145.868 71.8953 147.734 71.8953C149.008 71.8953 150.313 71.5054 151.498 70.7074C152.956 69.7282 153.947 68.1811 154.22 66.4591C154.494 64.7401 154.033 62.9598 152.953 61.5816C149.929 57.7108 146.525 54.1409 142.808 50.9424C144.103 50.0369 145.322 49.027 146.442 47.922C146.497 47.879 146.553 47.833 146.602 47.7839ZM150.258 63.6811C150.764 64.3257 150.973 65.1238 150.844 65.925C150.718 66.7261 150.273 67.4199 149.588 67.8803C148.17 68.8349 146.494 68.6201 145.506 67.3585C141.933 62.7818 137.786 58.7207 133.145 55.2552C135.462 54.7149 137.669 53.8862 139.729 52.8118C143.603 56.0441 147.145 59.6907 150.258 63.6811ZM128.473 22.7854V12.4072C128.473 11.4648 127.709 10.7036 126.763 10.7036C125.821 10.7036 125.053 11.4648 125.053 12.4072V22.7854C123.399 23.3287 122.088 24.6363 121.542 26.2908H115.096C114.15 26.2908 113.386 27.0551 113.386 27.9944C113.386 28.9368 114.15 29.7011 115.096 29.7011H121.542C122.263 31.8928 124.332 33.4797 126.763 33.4797C129.793 33.4797 132.258 31.0179 132.258 27.9944C132.258 25.5664 130.668 23.5036 128.473 22.7854ZM126.763 30.0664C125.618 30.0664 124.688 29.1394 124.688 27.9944C124.688 26.8525 125.618 25.9225 126.763 25.9225C127.908 25.9225 128.841 26.8525 128.841 27.9944C128.841 29.1394 127.908 30.0664 126.763 30.0664Z"/>
</mask>
<path d="M94.1521 51.7221C77.4383 51.7221 61.759 59.1198 51.1383 72.0119C49.9719 73.4209 49.4961 75.1245 49.7601 76.9447C50.1284 79.4495 51.9825 81.5153 54.4811 82.209C55.0643 82.3717 55.6506 82.4515 56.2277 82.4515C58.0847 82.4515 59.8467 81.6381 61.0776 80.1463C69.2395 70.2408 81.2906 64.559 94.1429 64.556H94.149C107.001 64.556 119.059 70.2408 127.227 80.1463C129.348 82.7216 132.958 83.1943 135.809 81.2728C137.292 80.2752 138.286 78.7005 138.544 76.9447C138.799 75.1889 138.295 73.3932 137.16 72.015C126.536 59.1198 110.86 51.7221 94.1521 51.7221ZM94.1521 89.0633C87.8257 89.0633 82.6811 94.1956 82.6811 100.504C82.6811 106.815 87.8257 111.95 94.1521 111.95C100.472 111.95 105.614 106.815 105.614 100.504C105.614 94.1956 100.472 89.0633 94.1521 89.0633ZM94.1521 70.5477C83.9243 70.5477 74.0772 74.8451 67.1338 82.3379C65.8415 83.7315 65.2737 85.4689 65.4916 87.3628C65.7832 89.8706 67.4929 91.9272 69.9517 92.7253C72.349 93.505 74.8875 92.8542 76.5819 91.0279C81.1679 86.092 87.4052 83.3724 94.149 83.3724C100.89 83.3724 107.127 86.092 111.713 91.0279C112.962 92.3723 114.651 93.0691 116.36 93.0691C117.582 93.0691 118.816 92.7131 119.9 91.9794L120.05 91.8812C121.594 90.8437 122.604 89.1984 122.816 87.3659C123.031 85.5333 122.426 83.7008 121.161 82.3379C114.218 74.8451 104.371 70.5477 94.1521 70.5477ZM146.602 47.7839C146.651 47.7348 146.697 47.6826 146.74 47.6273C151.731 42.5718 154.819 35.6376 154.819 27.9944C154.819 20.3543 151.734 13.4201 146.746 8.36456C146.7 8.30623 146.654 8.25098 146.602 8.1988C146.55 8.14662 146.491 8.10057 146.436 8.05453C141.368 3.0757 134.419 0 126.763 0C119.108 0 112.158 3.07877 107.09 8.06067C107.038 8.10364 106.986 8.14662 106.934 8.1988C106.885 8.24791 106.839 8.30317 106.796 8.35535C101.801 13.414 98.7165 20.3512 98.7165 27.9944C98.7165 29.7287 98.8762 31.4231 99.18 33.0684C97.5163 32.9579 95.8311 32.8965 94.1521 32.8965C82.4663 32.8965 71.2777 35.521 60.8965 40.6932C51.0002 45.626 42.1629 52.8486 35.3424 61.5816C34.2312 62.9997 33.7984 64.691 34.0869 66.4622C34.486 68.9761 36.3829 71.0235 38.9153 71.6743C39.4617 71.8155 40.0081 71.883 40.5483 71.883C42.4607 71.883 44.2625 71.0235 45.4842 69.455C57.2682 54.3712 75.0072 45.7181 94.1521 45.7181C98.1425 45.7181 102.151 46.1079 106.074 46.8722C106.311 47.1301 106.553 47.3848 106.802 47.6365C106.842 47.6856 106.885 47.7378 106.934 47.7839C106.98 47.833 107.032 47.876 107.084 47.9159C112.149 52.9039 119.101 55.9857 126.763 55.9857C127.248 55.9857 127.727 55.9735 128.203 55.9489C133.783 59.6447 138.698 64.1876 142.811 69.458C144.066 71.0604 145.868 71.8953 147.734 71.8953C149.008 71.8953 150.313 71.5054 151.498 70.7074C152.956 69.7282 153.947 68.1811 154.22 66.4591C154.494 64.7401 154.033 62.9598 152.953 61.5816C149.929 57.7108 146.525 54.1409 142.808 50.9424C144.103 50.0369 145.322 49.027 146.442 47.922C146.497 47.879 146.553 47.833 146.602 47.7839ZM150.258 63.6811C150.764 64.3257 150.973 65.1238 150.844 65.925C150.718 66.7261 150.273 67.4199 149.588 67.8803C148.17 68.8349 146.494 68.6201 145.506 67.3585C141.933 62.7818 137.786 58.7207 133.145 55.2552C135.462 54.7149 137.669 53.8862 139.729 52.8118C143.603 56.0441 147.145 59.6907 150.258 63.6811ZM128.473 22.7854V12.4072C128.473 11.4648 127.709 10.7036 126.763 10.7036C125.821 10.7036 125.053 11.4648 125.053 12.4072V22.7854C123.399 23.3287 122.088 24.6363 121.542 26.2908H115.096C114.15 26.2908 113.386 27.0551 113.386 27.9944C113.386 28.9368 114.15 29.7011 115.096 29.7011H121.542C122.263 31.8928 124.332 33.4797 126.763 33.4797C129.793 33.4797 132.258 31.0179 132.258 27.9944C132.258 25.5664 130.668 23.5036 128.473 22.7854ZM126.763 30.0664C125.618 30.0664 124.688 29.1394 124.688 27.9944C124.688 26.8525 125.618 25.9225 126.763 25.9225C127.908 25.9225 128.841 26.8525 128.841 27.9944C128.841 29.1394 127.908 30.0664 126.763 30.0664Z" fill="white"/>
<path d="M135.161 76.4536L135.656 76.5261L135.656 76.5258L135.161 76.4536ZM133.897 78.4457L134.176 78.8604L134.176 78.8603L133.897 78.4457ZM130.253 77.6616C130.077 77.4483 129.762 77.4175 129.549 77.5929C129.336 77.7683 129.305 78.0834 129.48 78.2967L129.866 77.9791L130.253 77.6616ZM94.143 61.6457C94.4191 61.6456 94.6429 61.4217 94.6429 61.1456C94.6428 60.8694 94.4189 60.6456 94.1428 60.6457L94.1429 61.1457L94.143 61.6457ZM58.4377 77.9791L58.8235 78.2973L58.8237 78.2971L58.4377 77.9791ZM55.3989 78.9246L55.5327 78.4428L55.5321 78.4427L55.3989 78.9246ZM53.1427 76.4505L52.648 76.5229L52.6481 76.5233L53.1427 76.4505ZM53.7751 74.1821L54.1599 74.5013L54.161 74.5L53.7751 74.1821ZM134.52 74.1821L134.907 73.8651L134.906 73.8642L134.52 74.1821ZM86.5976 100.504C86.5976 100.227 86.3737 100.004 86.0976 100.004C85.8214 100.004 85.5976 100.227 85.5976 100.504H86.0976H86.5976ZM102.697 100.504C102.697 100.227 102.474 100.004 102.197 100.004C101.921 100.004 101.697 100.227 101.697 100.504H102.197H102.697ZM119.421 86.9699H119.921L118.924 86.9127L119.421 86.9699ZM118.147 89.0449L117.869 88.6292L117.866 88.6315L118.147 89.0449ZM117.993 89.1493L118.272 89.5642L118.275 89.5628L117.993 89.1493ZM114.587 88.3703C114.4 88.1678 114.083 88.156 113.881 88.3438C113.678 88.5316 113.667 88.848 113.854 89.0504L114.221 88.7103L114.587 88.3703ZM74.4406 89.0504C74.6284 88.848 74.6166 88.5316 74.4142 88.3438C74.2117 88.156 73.8954 88.1678 73.7076 88.3703L74.0741 88.7103L74.4406 89.0504ZM71.0137 89.4839L70.8585 89.9592L70.8595 89.9595L71.0137 89.4839ZM68.8865 86.9699L68.3899 87.0277L68.3899 87.0278L68.8865 86.9699ZM69.6416 84.6554L69.275 84.3155L69.2747 84.3158L69.6416 84.6554ZM118.653 84.6554L118.287 84.9954L118.287 84.9956L118.653 84.6554ZM119.421 86.973H118.921L119.917 87.0301L119.421 86.973ZM143.25 42.0377L142.896 42.3912L142.897 42.3922L143.25 42.0377ZM140.834 42.0407L141.188 42.3943L141.188 42.3935L140.834 42.0407ZM140.837 44.4503L141.19 44.0963L141.189 44.0951L140.837 44.4503ZM142.924 46.5315L143.252 46.909L143.658 46.5567L143.277 46.1774L142.924 46.5315ZM128.473 52.5141H127.973V53.0495L128.507 53.0129L128.473 52.5141ZM125.053 52.5141L125.019 53.0129L125.553 53.0495V52.5141H125.053ZM110.608 46.5315L110.255 46.1777L109.875 46.5568L110.28 46.9088L110.608 46.5315ZM112.692 44.4503L113.046 44.8041L113.046 44.8039L112.692 44.4503ZM112.692 42.0377L113.046 41.6841L113.045 41.6833L112.692 42.0377ZM110.277 42.0377L110.63 42.3917L110.63 42.3912L110.277 42.0377ZM108.189 44.1188L107.813 44.4476L108.164 44.8501L108.542 44.4729L108.189 44.1188ZM102.194 29.7011V29.2011H101.659L101.696 29.7356L102.194 29.7011ZM102.194 26.2908L101.696 26.2563L101.659 26.7908H102.194V26.2908ZM108.189 11.8669L108.543 11.5134L108.164 11.1349L107.812 11.5382L108.189 11.8669ZM110.273 13.9512L110.627 13.5976V13.5976L110.273 13.9512ZM112.689 13.9542L112.336 13.5999L112.336 13.6007L112.689 13.9542ZM112.692 11.5416L112.339 11.8951V11.8951L112.692 11.5416ZM110.605 9.45425L110.277 9.07692L109.872 9.4287L110.251 9.8078L110.605 9.45425ZM125.053 3.46861H125.553V2.93285L125.019 2.9698L125.053 3.46861ZM128.473 3.46861L128.507 2.96979L127.973 2.93287V3.46861H128.473ZM142.924 9.45425L143.278 9.8078L143.657 9.4287L143.252 9.07692L142.924 9.45425ZM140.837 11.5416L141.19 11.8959L141.191 11.8951L140.837 11.5416ZM140.837 13.9512L141.192 13.5992L141.19 13.5968L140.837 13.9512ZM142.043 14.9515C142.32 14.9515 142.543 14.7276 142.543 14.4515C142.543 14.1754 142.32 13.9515 142.043 13.9515V14.4515V14.9515ZM145.72 11.5382C145.538 11.3301 145.223 11.3086 145.014 11.4901C144.806 11.6717 144.785 11.9875 144.966 12.1956L145.343 11.8669L145.72 11.5382ZM151.341 26.2908V26.7908H151.877L151.84 26.2563L151.341 26.2908ZM151.341 29.7011L151.84 29.7356L151.877 29.2011H151.341V29.7011ZM145.343 44.1188L144.991 44.4734L145.369 44.8495L145.72 44.4476L145.343 44.1188ZM65.3309 49.5636C65.578 49.4405 65.6786 49.1403 65.5554 48.8931C65.4323 48.6459 65.1321 48.5454 64.8849 48.6685L65.1079 49.1161L65.3309 49.5636ZM42.7891 67.3585L42.3951 67.0506L42.395 67.0508L42.7891 67.3585ZM39.7687 68.3714L39.8937 67.8873L39.8926 67.887L39.7687 68.3714ZM37.4634 65.9188L37.9573 65.8406L37.9568 65.8375L37.4634 65.9188ZM38.0374 63.6781L37.6434 63.3703L37.6433 63.3703L38.0374 63.6781ZM100.061 36.5554L100.537 36.4022L100.435 36.0843L100.102 36.0571L100.061 36.5554ZM102.623 43.1836C102.771 43.4167 103.08 43.4857 103.313 43.3376C103.546 43.1896 103.615 42.8807 103.467 42.6475L103.045 42.9155L102.623 43.1836ZM135.161 76.4536L134.667 76.3811C134.568 77.0555 134.2 77.6385 133.617 78.0311L133.897 78.4457L134.176 78.8603C134.987 78.3137 135.516 77.4847 135.656 76.5261L135.161 76.4536ZM133.897 78.4457L133.617 78.0311C132.406 78.8476 131.079 78.667 130.253 77.6616L129.866 77.9791L129.48 78.2967C130.667 79.7409 132.582 79.9347 134.176 78.8604L133.897 78.4457ZM94.1429 61.1457L94.1428 60.6457C80.1163 60.6488 66.9597 66.8483 58.0518 77.6612L58.4377 77.9791L58.8237 78.2971C67.5412 67.7152 80.4145 61.6487 94.143 61.6457L94.1429 61.1457ZM58.4377 77.9791L58.052 77.661C57.1579 78.7451 56.0153 78.5769 55.5327 78.4428L55.3989 78.9246L55.2651 79.4063C55.8875 79.5792 57.5505 79.8408 58.8235 78.2973L58.4377 77.9791ZM55.3989 78.9246L55.5321 78.4427C54.7081 78.2148 53.8092 77.5448 53.6374 76.3777L53.1427 76.4505L52.6481 76.5233C52.8938 78.1925 54.1804 79.1064 55.2656 79.4065L55.3989 78.9246ZM53.1427 76.4505L53.6375 76.3781C53.5319 75.6573 53.6989 75.0572 54.1599 74.5013L53.7751 74.1821L53.3902 73.8629C52.7463 74.6392 52.5019 75.5248 52.648 76.5229L53.1427 76.4505ZM53.7751 74.1821L54.161 74.5C64.039 62.509 78.6129 55.6355 94.1521 55.6355V55.1355V54.6355C78.3143 54.6355 63.4572 61.6425 53.3892 73.8642L53.7751 74.1821ZM94.1521 55.1355V55.6355C109.685 55.6355 124.256 62.509 134.134 74.5L134.52 74.1821L134.906 73.8642C124.838 61.6425 109.984 54.6355 94.1521 54.6355V55.1355ZM134.52 74.1821L134.133 74.4991C134.578 75.041 134.766 75.7048 134.667 76.3813L135.161 76.4536L135.656 76.5258C135.797 75.5633 135.524 74.6185 134.907 73.8651L134.52 74.1821ZM94.1521 108.54V108.04C89.9855 108.04 86.5976 104.659 86.5976 100.504H86.0976H85.5976C85.5976 105.213 89.4354 109.04 94.1521 109.04V108.54ZM102.197 100.504H101.697C101.697 104.659 98.3121 108.04 94.1521 108.04V108.54V109.04C98.8631 109.04 102.697 105.213 102.697 100.504H102.197ZM119.421 86.9699L118.924 86.9127C118.843 87.6184 118.47 88.2278 117.869 88.6292L118.147 89.0449L118.425 89.4607C119.267 88.8982 119.802 88.0281 119.917 87.0271L119.421 86.9699ZM118.147 89.0449L117.866 88.6315L117.712 88.7358L117.993 89.1493L118.275 89.5628L118.428 89.4584L118.147 89.0449ZM117.993 89.1493L117.714 88.7344C116.719 89.4041 115.406 89.2521 114.587 88.3703L114.221 88.7103L113.854 89.0504C115.007 90.2927 116.868 90.509 118.272 89.5642L117.993 89.1493ZM74.0741 88.7103L73.7076 88.3703C73.055 89.0737 72.1148 89.3153 71.168 89.0083L71.0137 89.4839L70.8595 89.9595C72.1657 90.383 73.5155 90.0476 74.4406 89.0504L74.0741 88.7103ZM71.0137 89.4839L71.169 89.0086C70.3737 88.7488 69.5168 88.0592 69.3832 86.9121L68.8865 86.9699L68.3899 87.0278C68.5816 88.674 69.8121 89.6173 70.8585 89.9592L71.0137 89.4839ZM68.8865 86.9699L69.3832 86.9121C69.2957 86.1611 69.4968 85.548 70.0086 84.9951L69.6416 84.6554L69.2747 84.3158C68.5648 85.0828 68.2686 85.9861 68.3899 87.0277L68.8865 86.9699ZM69.6416 84.6554L70.0083 84.9954C76.2154 78.3015 85.015 74.4611 94.1521 74.4611V73.9611V73.4611C84.7368 73.4611 75.6715 77.4174 69.275 84.3155L69.6416 84.6554ZM94.1521 73.9611V74.4611C103.283 74.4611 112.08 78.3014 118.287 84.9954L118.653 84.6554L119.02 84.3155C112.624 77.4174 103.561 73.4611 94.1521 73.4611V73.9611ZM118.653 84.6554L118.287 84.9956C118.784 85.5313 119.005 86.2093 118.924 86.9158L119.421 86.973L119.917 87.0301C120.033 86.03 119.714 85.0626 119.02 84.3153L118.653 84.6554ZM119.421 86.973H119.921V86.9699H119.421H118.921V86.973H119.421ZM143.25 42.0377L143.603 41.6841C142.742 40.8226 141.341 40.8226 140.48 41.688L140.834 42.0407L141.188 42.3935C141.659 41.9205 142.425 41.9205 142.896 42.3912L143.25 42.0377ZM140.834 42.0407L140.48 41.6872C139.619 42.5482 139.618 43.9465 140.485 44.8055L140.837 44.4503L141.189 44.0951C140.718 43.6281 140.716 42.8654 141.188 42.3943L140.834 42.0407ZM140.837 44.4503L140.484 44.8044L142.571 46.8856L142.924 46.5315L143.277 46.1774L141.19 44.0963L140.837 44.4503ZM142.924 46.5315L142.596 46.154C138.749 49.4957 133.836 51.6454 128.439 52.0152L128.473 52.5141L128.507 53.0129C134.129 52.6276 139.247 50.3878 143.252 46.909L142.924 46.5315ZM128.473 52.5141H128.973V49.555H128.473H127.973V52.5141H128.473ZM128.473 49.555H128.973C128.973 48.3359 127.984 47.3483 126.763 47.3483V47.8483V48.3483C127.433 48.3483 127.973 48.8894 127.973 49.555H128.473ZM126.763 47.8483V47.3483C125.546 47.3483 124.553 48.3353 124.553 49.555H125.053H125.553C125.553 48.89 126.096 48.3483 126.763 48.3483V47.8483ZM125.053 49.555H124.553V52.5141H125.053H125.553V49.555H125.053ZM125.053 52.5141L125.088 52.0152C119.693 51.6454 114.78 49.4957 110.936 46.1541L110.608 46.5315L110.28 46.9088C114.282 50.3878 119.4 52.6276 125.019 53.0129L125.053 52.5141ZM110.608 46.5315L110.961 46.8853L113.046 44.8041L112.692 44.4503L112.339 44.0965L110.255 46.1777L110.608 46.5315ZM112.692 44.4503L113.046 44.8039C113.907 43.9425 113.907 42.5455 113.046 41.6841L112.692 42.0377L112.339 42.3912C112.81 42.862 112.81 43.6259 112.339 44.0968L112.692 44.4503ZM112.692 42.0377L113.045 41.6833C112.181 40.8235 110.785 40.8223 109.923 41.6841L110.277 42.0377L110.63 42.3912C111.1 41.9208 111.865 41.9197 112.34 42.392L112.692 42.0377ZM110.277 42.0377L109.923 41.6836L107.836 43.7647L108.189 44.1188L108.542 44.4729L110.63 42.3917L110.277 42.0377ZM108.189 44.1188L108.566 43.79C105.215 39.9524 103.066 35.0484 102.693 29.6665L102.194 29.7011L101.696 29.7356C102.084 35.3428 104.324 40.4517 107.813 44.4476L108.189 44.1188ZM102.194 29.7011V30.2011H105.153V29.7011V29.2011H102.194V29.7011ZM105.153 29.7011V30.2011C106.374 30.2011 107.363 29.2135 107.363 27.9944H106.863H106.363C106.363 28.66 105.823 29.2011 105.153 29.2011V29.7011ZM106.863 27.9944H107.363C107.363 26.7778 106.374 25.7908 105.153 25.7908V26.2908V26.7908C105.824 26.7908 106.363 27.3324 106.363 27.9944H106.863ZM105.153 26.2908V25.7908H102.194V26.2908V26.7908H105.153V26.2908ZM102.194 26.2908L102.693 26.3253C103.066 20.9404 105.215 16.0363 108.566 12.1956L108.189 11.8669L107.812 11.5382C104.324 15.5372 102.084 20.646 101.696 26.2563L102.194 26.2908ZM108.189 11.8669L107.836 12.2205L109.92 14.3047L110.273 13.9512L110.627 13.5976L108.543 11.5134L108.189 11.8669ZM110.273 13.9512L109.92 14.3047C110.353 14.7374 110.921 14.9515 111.483 14.9515V14.4515V13.9515C111.173 13.9515 110.863 13.834 110.627 13.5976L110.273 13.9512ZM111.483 14.4515V14.9515C112.044 14.9515 112.613 14.7379 113.043 14.3078L112.689 13.9542L112.336 13.6007C112.103 13.8336 111.793 13.9515 111.483 13.9515V14.4515ZM112.689 13.9542L113.042 14.3086C113.907 13.4472 113.907 12.0495 113.046 11.188L112.692 11.5416L112.339 11.8951C112.809 12.3658 112.809 13.1291 112.336 13.5999L112.689 13.9542ZM112.692 11.5416L113.046 11.188L110.959 9.1007L110.605 9.45425L110.251 9.8078L112.339 11.8951L112.692 11.5416ZM110.605 9.45425L110.933 9.83158C114.78 6.48705 119.693 4.34028 125.088 3.96742L125.053 3.46861L125.019 2.9698C119.4 3.35818 114.282 5.59474 110.277 9.07692L110.605 9.45425ZM125.053 3.46861H124.553V6.43073H125.053H125.553V3.46861H125.053ZM125.053 6.43073H124.553C124.553 7.65157 125.547 8.63434 126.763 8.63434V8.13434V7.63434C126.095 7.63434 125.553 7.09461 125.553 6.43073H125.053ZM126.763 8.13434V8.63434C127.983 8.63434 128.973 7.65099 128.973 6.43073H128.473H127.973C127.973 7.09519 127.434 7.63434 126.763 7.63434V8.13434ZM128.473 6.43073H128.973V3.46861H128.473H127.973V6.43073H128.473ZM128.473 3.46861L128.438 3.96742C133.836 4.34029 138.75 6.48708 142.596 9.83158L142.924 9.45425L143.252 9.07692C139.247 5.59472 134.129 3.35817 128.507 2.96979L128.473 3.46861ZM142.924 9.45425L142.571 9.1007L140.484 11.188L140.837 11.5416L141.191 11.8951L143.278 9.8078L142.924 9.45425ZM140.837 11.5416L140.484 11.1872C139.619 12.0487 139.619 13.444 140.484 14.3055L140.837 13.9512L141.19 13.5968C140.717 13.1261 140.717 12.3666 141.19 11.8959L140.837 11.5416ZM140.837 13.9512L140.482 14.3031C140.912 14.7377 141.482 14.9515 142.043 14.9515V14.4515V13.9515C141.733 13.9515 141.425 13.8338 141.192 13.5992L140.837 13.9512ZM145.343 11.8669L144.966 12.1956C148.317 16.0365 150.469 20.9406 150.842 26.3253L151.341 26.2908L151.84 26.2563C151.451 20.6458 149.208 15.537 145.72 11.5382L145.343 11.8669ZM151.341 26.2908V25.7908H148.373V26.2908V26.7908H151.341V26.2908ZM148.373 26.2908V25.7908C147.155 25.7908 146.166 26.7784 146.166 27.9944H146.666H147.166C147.166 27.3318 147.706 26.7908 148.373 26.7908V26.2908ZM146.666 27.9944H146.166C146.166 29.2129 147.154 30.2011 148.373 30.2011V29.7011V29.2011C147.707 29.2011 147.166 28.6606 147.166 27.9944H146.666ZM148.373 29.7011V30.2011H151.341V29.7011V29.2011H148.373V29.7011ZM151.341 29.7011L150.842 29.6665C150.469 35.0512 148.317 39.9522 144.967 43.79L145.343 44.1188L145.72 44.4476C149.208 40.4519 151.451 35.3461 151.84 29.7356L151.341 29.7011ZM145.343 44.1188L145.696 43.7642L143.602 41.6831L143.25 42.0377L142.897 42.3922L144.991 44.4734L145.343 44.1188ZM65.1079 49.1161L64.8849 48.6685C56.1741 53.0085 48.3988 59.3673 42.3951 67.0506L42.7891 67.3585L43.1831 67.6663C49.0954 60.1 56.754 53.8368 65.3309 49.5636L65.1079 49.1161ZM42.7891 67.3585L42.395 67.0508C41.5302 68.1584 40.382 68.0134 39.8937 67.8873L39.7687 68.3714L39.6436 68.8555C40.2727 69.018 41.9485 69.2475 43.1832 67.6662L42.7891 67.3585ZM39.7687 68.3714L39.8926 67.887C39.0963 67.6833 38.1438 67.0178 37.9573 65.8406L37.4634 65.9188L36.9696 65.9971C37.2373 67.6869 38.5931 68.5868 39.6448 68.8558L39.7687 68.3714ZM37.4634 65.9188L37.9568 65.8375C37.8415 65.1381 37.9922 64.5485 38.4315 63.9858L38.0374 63.6781L37.6433 63.3703C37.0329 64.1521 36.8091 65.0236 36.9701 66.0002L37.4634 65.9188ZM38.0374 63.6781L38.4315 63.9859C51.9226 46.715 72.2297 36.8098 94.1521 36.8098V36.3098V35.8098C71.9219 35.8098 51.3241 45.8568 37.6434 63.3703L38.0374 63.6781ZM94.1521 36.3098V36.8098C96.1176 36.8098 98.0838 36.8952 100.02 37.0537L100.061 36.5554L100.102 36.0571C98.1398 35.8964 96.1463 35.8098 94.1521 35.8098V36.3098ZM100.061 36.5554L99.5851 36.7087C100.326 39.0086 101.351 41.1805 102.623 43.1836L103.045 42.9155L103.467 42.6475C102.24 40.7154 101.251 38.6206 100.537 36.4022L100.061 36.5554ZM51.1383 72.0119L51.9086 72.6496L51.9101 72.6478L51.1383 72.0119ZM49.7601 76.9447L48.7704 77.0882L48.7707 77.0902L49.7601 76.9447ZM54.4811 82.209L54.7498 81.2458L54.7486 81.2455L54.4811 82.209ZM61.0776 80.1463L61.8489 80.7827L61.8493 80.7822L61.0776 80.1463ZM94.1429 64.556V63.556H94.1427L94.1429 64.556ZM127.227 80.1463L127.999 79.5105L127.998 79.5101L127.227 80.1463ZM135.809 81.2728L135.251 80.4431L135.25 80.4435L135.809 81.2728ZM138.544 76.9447L139.533 77.09L139.534 77.0883L138.544 76.9447ZM137.16 72.015L136.388 72.6508L136.388 72.6509L137.16 72.015ZM67.1338 82.3379L67.8671 83.0179L67.8673 83.0176L67.1338 82.3379ZM65.4916 87.3628L64.4982 87.4771L64.4983 87.4783L65.4916 87.3628ZM69.9517 92.7253L70.2609 91.7744L70.2604 91.7742L69.9517 92.7253ZM76.5819 91.0279L75.8493 90.3472L75.8488 90.3477L76.5819 91.0279ZM111.713 91.0279L110.98 91.7085L110.981 91.7086L111.713 91.0279ZM119.9 91.9794L119.353 91.1422L119.346 91.1467L119.339 91.1514L119.9 91.9794ZM120.05 91.8812L120.597 92.7185L120.608 92.7112L120.05 91.8812ZM122.816 87.3659L121.822 87.2494L121.822 87.2511L122.816 87.3659ZM121.161 82.3379L120.428 83.0176L120.428 83.0181L121.161 82.3379ZM146.74 47.6273L146.028 46.9248L145.987 46.9668L145.95 47.0134L146.74 47.6273ZM146.746 8.36456L145.961 8.9842L145.995 9.02757L146.034 9.06689L146.746 8.36456ZM146.602 8.1988L147.309 7.4917V7.49169L146.602 8.1988ZM146.436 8.05453L145.735 8.76787L145.764 8.79655L145.796 8.82275L146.436 8.05453ZM107.09 8.06067L107.726 8.8326L107.76 8.80463L107.791 8.7738L107.09 8.06067ZM106.934 8.1988L106.227 7.49169L106.934 8.1988ZM106.796 8.35535L107.507 9.05791L107.539 9.02584L107.568 8.99105L106.796 8.35535ZM99.18 33.0684L99.1138 34.0662L100.397 34.1514L100.163 32.8868L99.18 33.0684ZM60.8965 40.6932L60.4505 39.7981L60.4504 39.7982L60.8965 40.6932ZM35.3424 61.5816L36.1295 62.1983L36.1305 62.1971L35.3424 61.5816ZM34.0869 66.4622L35.0746 66.3054L35.0739 66.3014L34.0869 66.4622ZM38.9153 71.6743L39.1655 70.7061L39.1642 70.7057L38.9153 71.6743ZM45.4842 69.455L44.6962 68.8393L44.6953 68.8405L45.4842 69.455ZM106.074 46.8722L106.811 46.1965L106.589 45.9537L106.266 45.8907L106.074 46.8722ZM106.802 47.6365L107.578 47.0059L107.547 46.9683L107.513 46.9338L106.802 47.6365ZM106.934 47.7839L107.663 47.0999L107.641 47.0764L107.618 47.0543L106.934 47.7839ZM107.084 47.9159L107.786 47.2034L107.741 47.1595L107.692 47.1215L107.084 47.9159ZM128.203 55.9489L128.755 55.1152L128.48 54.9333L128.151 54.9502L128.203 55.9489ZM142.811 69.4581L142.022 70.0733L142.024 70.0748L142.811 69.4581ZM151.498 70.7074L150.94 69.8772L150.939 69.878L151.498 70.7074ZM154.22 66.4591L153.233 66.3021L153.233 66.3024L154.22 66.4591ZM152.953 61.5816L152.165 62.1971L152.166 62.1985L152.953 61.5816ZM142.808 50.9424L142.235 50.1229L141.179 50.8606L142.155 51.7005L142.808 50.9424ZM146.442 47.922L145.828 47.1326L145.782 47.1687L145.74 47.21L146.442 47.922ZM150.258 63.6811L149.469 64.2962L149.471 64.299L150.258 63.6811ZM150.844 65.925L149.857 65.7661L149.856 65.7698L150.844 65.925ZM149.588 67.8803L149.03 67.0505L149.03 67.0507L149.588 67.8803ZM145.506 67.3585L144.718 67.9738L144.719 67.9752L145.506 67.3585ZM133.145 55.2552L132.918 54.2813L130.823 54.7696L132.546 56.0565L133.145 55.2552ZM139.729 52.8118L140.37 52.044L139.858 51.6168L139.266 51.9252L139.729 52.8118ZM128.473 22.7854H127.473V23.5103L128.162 23.7358L128.473 22.7854ZM125.053 22.7854L125.365 23.7354L126.053 23.5095V22.7854H125.053ZM121.542 26.2908V27.2908H122.265L122.491 26.6044L121.542 26.2908ZM121.542 29.7011L122.492 29.3884L122.265 28.7011H121.542V29.7011ZM94.1521 51.7221V50.7221C77.1397 50.7221 61.1772 58.2533 50.3665 71.3761L51.1383 72.0119L51.9101 72.6478C62.3408 59.9863 77.737 52.7221 94.1521 52.7221V51.7221ZM51.1383 72.0119L50.368 71.3742C49.0201 73.0023 48.4662 74.9902 48.7704 77.0882L49.7601 76.9447L50.7497 76.8012C50.526 75.2587 50.9236 73.8394 51.9086 72.6496L51.1383 72.0119ZM49.7601 76.9447L48.7707 77.0902C49.1985 79.9992 51.3462 82.3765 54.2136 83.1726L54.4811 82.209L54.7486 81.2455C52.6187 80.6541 51.0584 78.8997 50.7495 76.7992L49.7601 76.9447ZM54.4811 82.209L54.2124 83.1722C54.8814 83.3589 55.5581 83.4515 56.2277 83.4515V82.4515V81.4515C55.7431 81.4515 55.2472 81.3845 54.7498 81.2458L54.4811 82.209ZM56.2277 82.4515V83.4515C58.3836 83.4515 60.4283 82.5044 61.8489 80.7827L61.0776 80.1463L60.3062 79.5098C59.265 80.7717 57.7859 81.4515 56.2277 81.4515V82.4515ZM61.0776 80.1463L61.8493 80.7822C69.8211 71.1076 81.589 65.559 94.1431 65.556L94.1429 64.556L94.1427 63.556C80.9923 63.5591 68.658 69.374 60.3058 79.5104L61.0776 80.1463ZM94.1429 64.556V65.556H94.149V64.556V63.556H94.1429V64.556ZM94.149 64.556V65.556C106.703 65.556 118.477 71.1075 126.455 80.7825L127.227 80.1463L127.998 79.5101C119.64 69.3741 107.3 63.556 94.149 63.556V64.556ZM127.227 80.1463L126.455 80.782C128.919 83.7744 133.11 84.2973 136.368 82.1021L135.809 81.2728L135.25 80.4435C132.805 82.0914 129.776 81.6689 127.999 79.5105L127.227 80.1463ZM135.809 81.2728L136.367 82.1025C138.082 80.9487 139.234 79.1264 139.533 77.09L138.544 76.9447L137.555 76.7994C137.338 78.2746 136.501 79.6017 135.251 80.4431L135.809 81.2728ZM138.544 76.9447L139.534 77.0883C139.829 75.052 139.245 72.9736 137.931 71.379L137.16 72.015L136.388 72.6509C137.345 73.8129 137.769 75.3258 137.554 76.8011L138.544 76.9447ZM137.16 72.015L137.932 71.3791C127.118 58.2534 111.159 50.7221 94.1521 50.7221V51.7221V52.7221C110.561 52.7221 125.954 59.9861 136.388 72.6508L137.16 72.015ZM94.1521 89.0633V88.0633C87.2759 88.0633 81.6811 93.6409 81.6811 100.504H82.6811H83.6811C83.6811 94.7504 88.3756 90.0633 94.1521 90.0633V89.0633ZM82.6811 100.504H81.6811C81.6811 107.369 87.2754 112.95 94.1521 112.95V111.95V110.95C88.3761 110.95 83.6811 106.26 83.6811 100.504H82.6811ZM94.1521 111.95V112.95C101.023 112.95 106.614 107.368 106.614 100.504H105.614H104.614C104.614 106.261 99.9213 110.95 94.1521 110.95V111.95ZM105.614 100.504H106.614C106.614 93.6416 101.023 88.0633 94.1521 88.0633V89.0633V90.0633C99.9218 90.0633 104.614 94.7497 104.614 100.504H105.614ZM94.1521 70.5477V69.5477C83.6462 69.5477 73.5332 73.961 66.4003 81.6582L67.1338 82.3379L67.8673 83.0176C74.6212 75.7293 84.2024 71.5477 94.1521 71.5477V70.5477ZM67.1338 82.3379L66.4006 81.658C64.9091 83.2664 64.247 85.2942 64.4982 87.4771L65.4916 87.3628L66.485 87.2485C66.3004 85.6436 66.774 84.1967 67.8671 83.0179L67.1338 82.3379ZM65.4916 87.3628L64.4983 87.4783C64.8364 90.3861 66.8234 92.7613 69.6429 93.6765L69.9517 92.7253L70.2604 91.7742C68.1625 91.0932 66.73 89.3552 66.4849 87.2473L65.4916 87.3628ZM69.9517 92.7253L69.6424 93.6763C72.405 94.5748 75.3519 93.8241 77.315 91.708L76.5819 91.0279L75.8488 90.3477C74.4232 91.8844 72.293 92.4352 70.2609 91.7744L69.9517 92.7253ZM76.5819 91.0279L77.3145 91.7085C81.7112 86.9763 87.6831 84.3724 94.149 84.3724V83.3724V82.3724C87.1273 82.3724 80.6245 85.2077 75.8493 90.3472L76.5819 91.0279ZM94.149 83.3724V84.3724C100.612 84.3724 106.584 86.9763 110.98 91.7085L111.713 91.0279L112.446 90.3472C107.671 85.2077 101.168 82.3724 94.149 82.3724V83.3724ZM111.713 91.0279L110.981 91.7086C112.422 93.2599 114.377 94.0691 116.36 94.0691V93.0691V92.0691C114.924 92.0691 113.503 91.4847 112.446 90.3472L111.713 91.0279ZM116.36 93.0691V94.0691C117.777 94.0691 119.207 93.6559 120.46 92.8075L119.9 91.9794L119.339 91.1514C118.425 91.7702 117.387 92.0691 116.36 92.0691V93.0691ZM119.9 91.9794L120.446 92.8167L120.597 92.7185L120.05 91.8812L119.503 91.0439L119.353 91.1422L119.9 91.9794ZM120.05 91.8812L120.608 92.7112C122.391 91.5127 123.563 89.6078 123.809 87.4807L122.816 87.3659L121.822 87.2511C121.645 88.789 120.797 90.1746 119.492 91.0512L120.05 91.8812ZM122.816 87.3659L123.809 87.4823C124.058 85.3554 123.356 83.2326 121.894 81.6577L121.161 82.3379L120.428 83.0181C121.496 84.169 122.003 85.7113 121.822 87.2494L122.816 87.3659ZM121.161 82.3379L121.895 81.6582C114.762 73.961 104.649 69.5477 94.1521 69.5477V70.5477V71.5477C104.092 71.5477 113.674 75.7292 120.428 83.0176L121.161 82.3379ZM146.602 47.7839L147.309 48.491C147.387 48.4123 147.461 48.329 147.529 48.2413L146.74 47.6273L145.95 47.0134C145.933 47.0362 145.914 47.0572 145.895 47.0768L146.602 47.7839ZM146.74 47.6273L147.451 48.3299C152.619 43.0959 155.819 35.9126 155.819 27.9944H154.819H153.819C153.819 35.3626 150.843 42.0476 146.028 46.9248L146.74 47.6273ZM154.819 27.9944H155.819C155.819 20.0795 152.622 12.8963 147.458 7.66222L146.746 8.36456L146.034 9.06689C150.846 13.944 153.819 20.629 153.819 27.9944H154.819ZM146.746 8.36456L147.531 7.74491C147.476 7.67495 147.402 7.58451 147.309 7.4917L146.602 8.1988L145.895 8.9059C145.906 8.91745 145.924 8.93752 145.961 8.9842L146.746 8.36456ZM146.602 8.1988L147.309 7.49169C147.215 7.39766 147.103 7.30879 147.076 7.28631L146.436 8.05453L145.796 8.82275C145.812 8.83613 145.829 8.85062 145.841 8.86018C145.854 8.87108 145.864 8.87925 145.873 8.88656C145.89 8.90147 145.895 8.90656 145.895 8.90591L146.602 8.1988ZM146.436 8.05453L147.137 7.34119C141.89 2.18651 134.692 -1 126.763 -1V0V1C134.145 1 140.846 3.96489 145.735 8.76787L146.436 8.05453ZM126.763 0V-1C118.834 -1 111.636 2.18981 106.389 7.34754L107.09 8.06067L107.791 8.7738C112.68 3.96773 119.381 1 126.763 1V0ZM107.09 8.06067L106.455 7.28874C106.406 7.3286 106.318 7.40047 106.227 7.49169L106.934 8.1988L107.641 8.90591C107.654 8.89276 107.67 8.87869 107.726 8.8326L107.09 8.06067ZM106.934 8.1988L106.227 7.49169C106.139 7.57928 106.065 7.66959 106.024 7.71964L106.796 8.35535L107.568 8.99105C107.612 8.93674 107.63 8.91655 107.641 8.90591L106.934 8.1988ZM106.796 8.35535L106.084 7.65279C100.913 12.8901 97.7165 20.0765 97.7165 27.9944H98.7165H99.7165C99.7165 20.6259 102.689 13.9379 107.507 9.05791L106.796 8.35535ZM98.7165 27.9944H97.7165C97.7165 29.7903 97.8818 31.5455 98.1967 33.25L99.18 33.0684L100.163 32.8868C99.8705 31.3007 99.7165 29.6671 99.7165 27.9944H98.7165ZM99.18 33.0684L99.2463 32.0706C97.5627 31.9588 95.8553 31.8965 94.1521 31.8965V32.8965V33.8965C95.807 33.8965 97.47 33.957 99.1138 34.0662L99.18 33.0684ZM94.1521 32.8965V31.8965C82.3126 31.8965 70.9713 34.5564 60.4505 39.7981L60.8965 40.6932L61.3424 41.5882C71.5842 36.4855 82.6199 33.8965 94.1521 33.8965V32.8965ZM60.8965 40.6932L60.4504 39.7982C50.4205 44.7976 41.4664 52.1158 34.5542 60.966L35.3424 61.5816L36.1305 62.1971C42.8594 53.5815 51.5799 46.4543 61.3426 41.5882L60.8965 40.6932ZM35.3424 61.5816L34.5552 60.9648C33.2716 62.603 32.7665 64.5763 33.0999 66.6229L34.0869 66.4622L35.0739 66.3014C34.8302 64.8058 35.1907 63.3964 36.1295 62.1983L35.3424 61.5816ZM34.0869 66.4622L33.0993 66.6189C33.563 69.5404 35.7619 71.8964 38.6664 72.6428L38.9153 71.6743L39.1642 70.7057C37.004 70.1506 35.4089 68.4118 35.0745 66.3054L34.0869 66.4622ZM38.9153 71.6743L38.6651 72.6425C39.2937 72.8049 39.9242 72.883 40.5483 72.883V71.883V70.883C40.092 70.883 39.6297 70.826 39.1655 70.7061L38.9153 71.6743ZM40.5483 71.883V72.883C42.7681 72.883 44.8614 71.882 46.2731 70.0695L45.4842 69.455L44.6953 68.8405C43.6636 70.1651 42.1532 70.883 40.5483 70.883V71.883ZM45.4842 69.455L46.2722 70.0706C57.8668 55.2294 75.3151 46.7181 94.1521 46.7181V45.7181V44.7181C74.6994 44.7181 56.6697 53.5129 44.6962 68.8393L45.4842 69.455ZM94.1521 45.7181V46.7181C98.0778 46.7181 102.023 47.1016 105.883 47.8538L106.074 46.8722L106.266 45.8907C102.28 45.1142 98.2073 44.7181 94.1521 44.7181V45.7181ZM106.074 46.8722L105.337 47.5479C105.582 47.8151 105.833 48.0788 106.09 48.3393L106.802 47.6365L107.513 46.9338C107.273 46.6908 107.039 46.4451 106.811 46.1965L106.074 46.8722ZM106.802 47.6365L106.026 48.2671C106.063 48.3132 106.145 48.4151 106.25 48.5134L106.934 47.7839L107.618 47.0543C107.624 47.06 107.624 47.0608 107.616 47.052C107.608 47.0425 107.597 47.0301 107.578 47.0059L106.802 47.6365ZM106.934 47.7839L106.204 48.4678C106.306 48.5762 106.409 48.6581 106.477 48.7102L107.084 47.9159L107.692 47.1215C107.675 47.1086 107.665 47.101 107.66 47.0965C107.655 47.0922 107.657 47.0935 107.663 47.0999L106.934 47.7839ZM107.084 47.9159L106.382 48.6283C111.626 53.7928 118.828 56.9857 126.763 56.9857V55.9857V54.9857C119.375 54.9857 112.672 52.015 107.786 47.2034L107.084 47.9159ZM126.763 55.9857V56.9857C127.265 56.9857 127.761 56.973 128.254 56.9476L128.203 55.9489L128.151 54.9502C127.693 54.9739 127.231 54.9857 126.763 54.9857V55.9857ZM128.203 55.9489L127.651 56.7826C133.141 60.419 137.976 64.8882 142.022 70.0733L142.811 69.4581L143.599 68.8428C139.419 63.487 134.425 58.8703 128.755 55.1152L128.203 55.9489ZM142.811 69.4581L142.024 70.0748C143.469 71.9194 145.561 72.8953 147.734 72.8953V71.8953V70.8953C146.175 70.8953 144.664 70.2014 143.598 68.8413L142.811 69.4581ZM147.734 71.8953V72.8953C149.215 72.8953 150.713 72.4418 152.056 71.5368L151.498 70.7074L150.939 69.878C149.913 70.5691 148.802 70.8953 147.734 70.8953V71.8953ZM151.498 70.7074L152.055 71.5375C153.742 70.4047 154.891 68.6146 155.208 66.6158L154.22 66.4591L153.233 66.3024C153.003 67.7477 152.169 69.0517 150.94 69.8772L151.498 70.7074ZM154.22 66.4591L155.208 66.616C155.525 64.622 154.991 62.5613 153.74 60.9646L152.953 61.5816L152.166 62.1985C153.075 63.3583 153.462 64.8583 153.233 66.3021L154.22 66.4591ZM152.953 61.5816L153.741 60.966C150.677 57.0435 147.227 53.4259 143.46 50.1844L142.808 50.9424L142.155 51.7005C145.823 54.856 149.181 58.3782 152.165 62.1971L152.953 61.5816ZM142.808 50.9424L143.381 51.762C144.721 50.8253 145.983 49.7796 147.144 48.634L146.442 47.922L145.74 47.21C144.661 48.2745 143.485 49.2486 142.235 50.1229L142.808 50.9424ZM146.442 47.922L147.056 48.7114C147.127 48.6563 147.218 48.5816 147.309 48.491L146.602 47.7839L145.895 47.0768C145.887 47.0844 145.868 47.1017 145.828 47.1326L146.442 47.922ZM150.258 63.6811L149.471 64.299C149.807 64.7268 149.941 65.244 149.857 65.7661L150.844 65.925L151.831 66.0839C152.005 65.0036 151.721 63.9246 151.044 63.0633L150.258 63.6811ZM150.844 65.925L149.856 65.7698C149.774 66.2912 149.488 66.7426 149.03 67.0505L149.588 67.8803L150.147 68.71C151.058 68.0971 151.662 67.1611 151.832 66.0802L150.844 65.925ZM149.588 67.8803L149.03 67.0507C148.001 67.7432 146.925 67.5488 146.293 66.7417L145.506 67.3585L144.719 67.9752C146.063 69.6913 148.339 69.9267 150.147 68.7098L149.588 67.8803ZM145.506 67.3585L146.294 66.7431C142.667 62.0965 138.456 57.9729 133.743 54.4539L133.145 55.2552L132.546 56.0565C137.116 59.4686 141.199 63.467 144.718 67.9738L145.506 67.3585ZM133.145 55.2552L133.372 56.2291C135.773 55.6693 138.059 54.8108 140.191 53.6984L139.729 52.8118L139.266 51.9252C137.28 52.9615 135.152 53.7606 132.918 54.2813L133.145 55.2552ZM139.729 52.8118L139.088 53.5796C142.908 56.7671 146.401 60.3627 149.469 64.2962L150.258 63.6811L151.046 63.0661C147.889 59.0187 144.297 55.321 140.37 52.044L139.729 52.8118ZM128.473 22.7854H129.473V12.4072H128.473H127.473V22.7854H128.473ZM128.473 12.4072H129.473C129.473 10.909 128.257 9.70356 126.763 9.70356V10.7036V11.7036C127.16 11.7036 127.473 12.0206 127.473 12.4072H128.473ZM126.763 10.7036V9.70356C125.273 9.70356 124.053 10.9079 124.053 12.4072H125.053H126.053C126.053 12.0218 126.368 11.7036 126.763 11.7036V10.7036ZM125.053 12.4072H124.053V22.7854H125.053H126.053V12.4072H125.053ZM125.053 22.7854L124.741 21.8353C122.786 22.4775 121.238 24.0212 120.592 25.9772L121.542 26.2908L122.491 26.6044C122.938 25.2514 124.012 24.1798 125.365 23.7354L125.053 22.7854ZM121.542 26.2908V25.2908H115.096V26.2908V27.2908H121.542V26.2908ZM115.096 26.2908V25.2908C113.6 25.2908 112.386 26.5005 112.386 27.9944H113.386H114.386C114.386 27.6097 114.7 27.2908 115.096 27.2908V26.2908ZM113.386 27.9944H112.386C112.386 29.4902 113.599 30.7011 115.096 30.7011V29.7011V28.7011C114.701 28.7011 114.386 28.3833 114.386 27.9944H113.386ZM115.096 29.7011V30.7011H121.542V29.7011V28.7011H115.096V29.7011ZM121.542 29.7011L120.592 30.0137C121.444 32.6029 123.887 34.4797 126.763 34.4797V33.4797V32.4797C124.777 32.4797 123.082 31.1826 122.492 29.3884L121.542 29.7011ZM126.763 33.4797V34.4797C130.344 34.4797 133.258 31.5717 133.258 27.9944H132.258H131.258C131.258 30.4642 129.242 32.4797 126.763 32.4797V33.4797ZM132.258 27.9944H133.258C133.258 25.1188 131.375 22.683 128.784 21.835L128.473 22.7854L128.162 23.7358C129.96 24.3243 131.258 26.014 131.258 27.9944H132.258ZM126.763 30.0664V29.0664C126.169 29.0664 125.688 28.5851 125.688 27.9944H124.688H123.688C123.688 29.6936 125.068 31.0664 126.763 31.0664V30.0664ZM124.688 27.9944H125.688C125.688 27.4058 126.169 26.9225 126.763 26.9225V25.9225V24.9225C125.067 24.9225 123.688 26.2993 123.688 27.9944H124.688ZM126.763 25.9225V26.9225C127.359 26.9225 127.841 27.4077 127.841 27.9944H128.841H129.841C129.841 26.2974 128.457 24.9225 126.763 24.9225V25.9225ZM128.841 27.9944H127.841C127.841 28.5832 127.36 29.0664 126.763 29.0664V30.0664V31.0664C128.456 31.0664 129.841 29.6955 129.841 27.9944H128.841Z" fill="white" mask="url(#path-2-inside-1_1737_536)"/>
<mask id="path-4-inside-2_1737_536" fill="white">
<path d="M94.1521 51.7221C77.4383 51.7221 61.759 59.1198 51.1383 72.0119C49.9719 73.4209 49.4961 75.1245 49.7601 76.9447C50.1284 79.4495 51.9825 81.5153 54.4811 82.209C55.0643 82.3717 55.6506 82.4515 56.2277 82.4515C58.0847 82.4515 59.8467 81.6381 61.0776 80.1463C69.2395 70.2408 81.2906 64.559 94.1429 64.556H94.149C107.001 64.556 119.059 70.2408 127.227 80.1463C129.348 82.7216 132.958 83.1943 135.809 81.2728C137.292 80.2752 138.286 78.7005 138.544 76.9447C138.799 75.1889 138.295 73.3932 137.16 72.015C126.536 59.1198 110.86 51.7221 94.1521 51.7221ZM135.161 76.4536C135.042 77.2701 134.594 77.9761 133.897 78.4457C132.494 79.3912 130.873 79.2039 129.866 77.9792C121.048 67.2817 108.03 61.1457 94.149 61.1457H94.1429C80.2654 61.1487 67.2505 67.2817 58.4377 77.9792C57.3542 79.2929 55.9514 79.0781 55.3989 78.9246C54.4442 78.6606 53.3515 77.8686 53.1427 76.4505C53.0169 75.591 53.2226 74.8482 53.7751 74.1821C63.7481 62.0758 78.4636 55.1355 94.1521 55.1355C109.834 55.1355 124.547 62.0758 134.52 74.1821C135.051 74.8298 135.281 75.634 135.161 76.4536ZM94.1521 89.0633C87.8257 89.0633 82.6811 94.1956 82.6811 100.504C82.6811 106.815 87.8257 111.95 94.1521 111.95C100.472 111.95 105.614 106.815 105.614 100.504C105.614 94.1956 100.472 89.0633 94.1521 89.0633ZM94.1521 108.54C89.7104 108.54 86.0976 104.936 86.0976 100.504C86.0976 96.0773 89.7104 92.4736 94.1521 92.4736C98.5876 92.4736 102.197 96.0773 102.197 100.504C102.197 104.936 98.5876 108.54 94.1521 108.54ZM94.1521 70.5477C83.9243 70.5477 74.0772 74.8451 67.1338 82.3379C65.8415 83.7315 65.2737 85.4689 65.4916 87.3628C65.7832 89.8706 67.4929 91.9272 69.9517 92.7253C72.349 93.505 74.8875 92.8542 76.5819 91.0279C81.1679 86.092 87.4052 83.3724 94.149 83.3724C100.89 83.3724 107.127 86.092 111.713 91.0279C112.962 92.3723 114.651 93.0691 116.36 93.0691C117.582 93.0691 118.816 92.7131 119.9 91.9794L120.05 91.8812C121.594 90.8437 122.604 89.1984 122.816 87.3659C123.031 85.5333 122.426 83.7008 121.161 82.3379C114.218 74.8451 104.371 70.5477 94.1521 70.5477ZM119.421 86.9699C119.323 87.8232 118.868 88.563 118.147 89.0449L117.993 89.1493C116.793 89.9566 115.206 89.7724 114.221 88.7103C109.058 83.1483 101.74 79.959 94.149 79.959C86.5549 79.959 79.2371 83.1483 74.0741 88.7103C73.2852 89.5606 72.1403 89.8492 71.0137 89.4839C70.0929 89.1831 69.0492 88.3666 68.8865 86.9699C68.7822 86.0736 69.0308 85.3154 69.6416 84.6554C75.9435 77.8594 84.8759 73.9611 94.1521 73.9611C103.422 73.9611 112.352 77.8594 118.653 84.6554C119.249 85.297 119.519 86.1196 119.421 86.973V86.9699ZM146.602 47.7839C146.651 47.7348 146.697 47.6826 146.74 47.6273C151.731 42.5718 154.819 35.6376 154.819 27.9944C154.819 20.3543 151.734 13.4201 146.746 8.36456C146.7 8.30623 146.654 8.25098 146.602 8.1988C146.55 8.14662 146.491 8.10057 146.436 8.05453C141.368 3.0757 134.419 0 126.763 0C119.108 0 112.158 3.07877 107.09 8.06067C107.038 8.10364 106.986 8.14662 106.934 8.1988C106.885 8.24791 106.839 8.30317 106.796 8.35535C101.801 13.414 98.7165 20.3512 98.7165 27.9944C98.7165 29.7287 98.8762 31.4231 99.18 33.0684C97.5163 32.9579 95.8311 32.8965 94.1521 32.8965C82.4663 32.8965 71.2777 35.521 60.8965 40.6932C51.0002 45.626 42.1629 52.8486 35.3424 61.5816C34.2312 62.9997 33.7984 64.691 34.0869 66.4622C34.486 68.9761 36.3829 71.0235 38.9153 71.6743C39.4617 71.8155 40.0081 71.883 40.5483 71.883C42.4607 71.883 44.2625 71.0235 45.4842 69.455C57.2682 54.3712 75.0072 45.7181 94.1521 45.7181C98.1425 45.7181 102.151 46.1079 106.074 46.8722C106.311 47.1301 106.553 47.3848 106.802 47.6365C106.842 47.6856 106.885 47.7378 106.934 47.7839C106.98 47.833 107.032 47.876 107.084 47.9159C112.149 52.9039 119.101 55.9857 126.763 55.9857C127.248 55.9857 127.727 55.9735 128.203 55.9489C133.783 59.6447 138.698 64.1876 142.811 69.458C144.066 71.0604 145.868 71.8953 147.734 71.8953C149.008 71.8953 150.313 71.5054 151.498 70.7074C152.956 69.7282 153.947 68.1811 154.22 66.4591C154.494 64.7401 154.033 62.9598 152.953 61.5816C149.929 57.7108 146.525 54.1409 142.808 50.9424C144.103 50.0369 145.322 49.027 146.442 47.922C146.497 47.879 146.553 47.833 146.602 47.7839ZM143.25 42.0377C142.584 41.3716 141.5 41.3716 140.834 42.0407C140.168 42.7068 140.168 43.7873 140.837 44.4503L142.924 46.5315C138.998 49.9418 133.983 52.1365 128.473 52.5141V49.555C128.473 48.6127 127.709 47.8483 126.763 47.8483C125.821 47.8483 125.053 48.6127 125.053 49.555V52.5141C119.547 52.1365 114.531 49.9418 110.608 46.5315L112.692 44.4503C113.358 43.7842 113.358 42.7037 112.692 42.0377C112.023 41.3716 110.943 41.3716 110.277 42.0377L108.189 44.1188C104.77 40.2021 102.575 35.1956 102.194 29.7011H105.153C106.099 29.7011 106.863 28.9368 106.863 27.9944C106.863 27.0551 106.099 26.2908 105.153 26.2908H102.194C102.575 20.7932 104.77 15.7868 108.189 11.8669L110.273 13.9512C110.608 14.2857 111.047 14.4515 111.483 14.4515C111.919 14.4515 112.358 14.2857 112.689 13.9542C113.358 13.2881 113.358 12.2076 112.692 11.5416L110.605 9.45425C114.531 6.0409 119.547 3.84923 125.053 3.46861V6.43073C125.053 7.37309 125.821 8.13434 126.763 8.13434C127.709 8.13434 128.473 7.37309 128.473 6.43073V3.46861C133.983 3.84923 138.998 6.0409 142.924 9.45425L140.837 11.5416C140.168 12.2076 140.168 13.2851 140.837 13.9512C141.169 14.2857 141.608 14.4515 142.043 14.4515C142.482 14.4515 142.918 14.2857 143.253 13.9512L145.343 11.8669C148.763 15.7868 150.96 20.7932 151.341 26.2908H148.373C147.43 26.2908 146.666 27.0551 146.666 27.9944C146.666 28.9368 147.43 29.7011 148.373 29.7011H151.341C150.96 35.1987 148.763 40.2021 145.343 44.1188L143.25 42.0377ZM94.1521 42.3078C83.9458 42.3078 74.1723 44.5977 65.1079 49.1161C56.464 53.4227 48.7471 59.7337 42.7891 67.3585C41.7393 68.7029 40.3273 68.5157 39.7687 68.3714C38.8447 68.1351 37.6906 67.3523 37.4634 65.9188C37.3253 65.0809 37.5125 64.3503 38.0374 63.6781C51.6233 46.2859 72.0758 36.3098 94.1521 36.3098C96.132 36.3098 98.1118 36.3958 100.061 36.5554C100.788 38.8146 101.795 40.948 103.045 42.9155C100.095 42.5134 97.1204 42.3078 94.1521 42.3078ZM150.258 63.6811C150.764 64.3257 150.973 65.1238 150.844 65.925C150.718 66.7261 150.273 67.4199 149.588 67.8803C148.17 68.8349 146.494 68.6201 145.506 67.3585C141.933 62.7818 137.786 58.7207 133.145 55.2552C135.462 54.7149 137.669 53.8862 139.729 52.8118C143.603 56.0441 147.145 59.6907 150.258 63.6811ZM128.473 22.7854V12.4072C128.473 11.4648 127.709 10.7036 126.763 10.7036C125.821 10.7036 125.053 11.4648 125.053 12.4072V22.7854C123.399 23.3287 122.088 24.6363 121.542 26.2908H115.096C114.15 26.2908 113.386 27.0551 113.386 27.9944C113.386 28.9368 114.15 29.7011 115.096 29.7011H121.542C122.263 31.8928 124.332 33.4797 126.763 33.4797C129.793 33.4797 132.258 31.0179 132.258 27.9944C132.258 25.5664 130.668 23.5036 128.473 22.7854ZM126.763 30.0664C125.618 30.0664 124.688 29.1394 124.688 27.9944C124.688 26.8525 125.618 25.9225 126.763 25.9225C127.908 25.9225 128.841 26.8525 128.841 27.9944C128.841 29.1394 127.908 30.0664 126.763 30.0664Z"/>
</mask>
<path d="M94.1521 51.7221C77.4383 51.7221 61.759 59.1198 51.1383 72.0119C49.9719 73.4209 49.4961 75.1245 49.7601 76.9447C50.1284 79.4495 51.9825 81.5153 54.4811 82.209C55.0643 82.3717 55.6506 82.4515 56.2277 82.4515C58.0847 82.4515 59.8467 81.6381 61.0776 80.1463C69.2395 70.2408 81.2906 64.559 94.1429 64.556H94.149C107.001 64.556 119.059 70.2408 127.227 80.1463C129.348 82.7216 132.958 83.1943 135.809 81.2728C137.292 80.2752 138.286 78.7005 138.544 76.9447C138.799 75.1889 138.295 73.3932 137.16 72.015C126.536 59.1198 110.86 51.7221 94.1521 51.7221ZM135.161 76.4536C135.042 77.2701 134.594 77.9761 133.897 78.4457C132.494 79.3912 130.873 79.2039 129.866 77.9792C121.048 67.2817 108.03 61.1457 94.149 61.1457H94.1429C80.2654 61.1487 67.2505 67.2817 58.4377 77.9792C57.3542 79.2929 55.9514 79.0781 55.3989 78.9246C54.4442 78.6606 53.3515 77.8686 53.1427 76.4505C53.0169 75.591 53.2226 74.8482 53.7751 74.1821C63.7481 62.0758 78.4636 55.1355 94.1521 55.1355C109.834 55.1355 124.547 62.0758 134.52 74.1821C135.051 74.8298 135.281 75.634 135.161 76.4536ZM94.1521 89.0633C87.8257 89.0633 82.6811 94.1956 82.6811 100.504C82.6811 106.815 87.8257 111.95 94.1521 111.95C100.472 111.95 105.614 106.815 105.614 100.504C105.614 94.1956 100.472 89.0633 94.1521 89.0633ZM94.1521 108.54C89.7104 108.54 86.0976 104.936 86.0976 100.504C86.0976 96.0773 89.7104 92.4736 94.1521 92.4736C98.5876 92.4736 102.197 96.0773 102.197 100.504C102.197 104.936 98.5876 108.54 94.1521 108.54ZM94.1521 70.5477C83.9243 70.5477 74.0772 74.8451 67.1338 82.3379C65.8415 83.7315 65.2737 85.4689 65.4916 87.3628C65.7832 89.8706 67.4929 91.9272 69.9517 92.7253C72.349 93.505 74.8875 92.8542 76.5819 91.0279C81.1679 86.092 87.4052 83.3724 94.149 83.3724C100.89 83.3724 107.127 86.092 111.713 91.0279C112.962 92.3723 114.651 93.0691 116.36 93.0691C117.582 93.0691 118.816 92.7131 119.9 91.9794L120.05 91.8812C121.594 90.8437 122.604 89.1984 122.816 87.3659C123.031 85.5333 122.426 83.7008 121.161 82.3379C114.218 74.8451 104.371 70.5477 94.1521 70.5477ZM119.421 86.9699C119.323 87.8232 118.868 88.563 118.147 89.0449L117.993 89.1493C116.793 89.9566 115.206 89.7724 114.221 88.7103C109.058 83.1483 101.74 79.959 94.149 79.959C86.5549 79.959 79.2371 83.1483 74.0741 88.7103C73.2852 89.5606 72.1403 89.8492 71.0137 89.4839C70.0929 89.1831 69.0492 88.3666 68.8865 86.9699C68.7822 86.0736 69.0308 85.3154 69.6416 84.6554C75.9435 77.8594 84.8759 73.9611 94.1521 73.9611C103.422 73.9611 112.352 77.8594 118.653 84.6554C119.249 85.297 119.519 86.1196 119.421 86.973V86.9699ZM146.602 47.7839C146.651 47.7348 146.697 47.6826 146.74 47.6273C151.731 42.5718 154.819 35.6376 154.819 27.9944C154.819 20.3543 151.734 13.4201 146.746 8.36456C146.7 8.30623 146.654 8.25098 146.602 8.1988C146.55 8.14662 146.491 8.10057 146.436 8.05453C141.368 3.0757 134.419 0 126.763 0C119.108 0 112.158 3.07877 107.09 8.06067C107.038 8.10364 106.986 8.14662 106.934 8.1988C106.885 8.24791 106.839 8.30317 106.796 8.35535C101.801 13.414 98.7165 20.3512 98.7165 27.9944C98.7165 29.7287 98.8762 31.4231 99.18 33.0684C97.5163 32.9579 95.8311 32.8965 94.1521 32.8965C82.4663 32.8965 71.2777 35.521 60.8965 40.6932C51.0002 45.626 42.1629 52.8486 35.3424 61.5816C34.2312 62.9997 33.7984 64.691 34.0869 66.4622C34.486 68.9761 36.3829 71.0235 38.9153 71.6743C39.4617 71.8155 40.0081 71.883 40.5483 71.883C42.4607 71.883 44.2625 71.0235 45.4842 69.455C57.2682 54.3712 75.0072 45.7181 94.1521 45.7181C98.1425 45.7181 102.151 46.1079 106.074 46.8722C106.311 47.1301 106.553 47.3848 106.802 47.6365C106.842 47.6856 106.885 47.7378 106.934 47.7839C106.98 47.833 107.032 47.876 107.084 47.9159C112.149 52.9039 119.101 55.9857 126.763 55.9857C127.248 55.9857 127.727 55.9735 128.203 55.9489C133.783 59.6447 138.698 64.1876 142.811 69.458C144.066 71.0604 145.868 71.8953 147.734 71.8953C149.008 71.8953 150.313 71.5054 151.498 70.7074C152.956 69.7282 153.947 68.1811 154.22 66.4591C154.494 64.7401 154.033 62.9598 152.953 61.5816C149.929 57.7108 146.525 54.1409 142.808 50.9424C144.103 50.0369 145.322 49.027 146.442 47.922C146.497 47.879 146.553 47.833 146.602 47.7839ZM143.25 42.0377C142.584 41.3716 141.5 41.3716 140.834 42.0407C140.168 42.7068 140.168 43.7873 140.837 44.4503L142.924 46.5315C138.998 49.9418 133.983 52.1365 128.473 52.5141V49.555C128.473 48.6127 127.709 47.8483 126.763 47.8483C125.821 47.8483 125.053 48.6127 125.053 49.555V52.5141C119.547 52.1365 114.531 49.9418 110.608 46.5315L112.692 44.4503C113.358 43.7842 113.358 42.7037 112.692 42.0377C112.023 41.3716 110.943 41.3716 110.277 42.0377L108.189 44.1188C104.77 40.2021 102.575 35.1956 102.194 29.7011H105.153C106.099 29.7011 106.863 28.9368 106.863 27.9944C106.863 27.0551 106.099 26.2908 105.153 26.2908H102.194C102.575 20.7932 104.77 15.7868 108.189 11.8669L110.273 13.9512C110.608 14.2857 111.047 14.4515 111.483 14.4515C111.919 14.4515 112.358 14.2857 112.689 13.9542C113.358 13.2881 113.358 12.2076 112.692 11.5416L110.605 9.45425C114.531 6.0409 119.547 3.84923 125.053 3.46861V6.43073C125.053 7.37309 125.821 8.13434 126.763 8.13434C127.709 8.13434 128.473 7.37309 128.473 6.43073V3.46861C133.983 3.84923 138.998 6.0409 142.924 9.45425L140.837 11.5416C140.168 12.2076 140.168 13.2851 140.837 13.9512C141.169 14.2857 141.608 14.4515 142.043 14.4515C142.482 14.4515 142.918 14.2857 143.253 13.9512L145.343 11.8669C148.763 15.7868 150.96 20.7932 151.341 26.2908H148.373C147.43 26.2908 146.666 27.0551 146.666 27.9944C146.666 28.9368 147.43 29.7011 148.373 29.7011H151.341C150.96 35.1987 148.763 40.2021 145.343 44.1188L143.25 42.0377ZM94.1521 42.3078C83.9458 42.3078 74.1723 44.5977 65.1079 49.1161C56.464 53.4227 48.7471 59.7337 42.7891 67.3585C41.7393 68.7029 40.3273 68.5157 39.7687 68.3714C38.8447 68.1351 37.6906 67.3523 37.4634 65.9188C37.3253 65.0809 37.5125 64.3503 38.0374 63.6781C51.6233 46.2859 72.0758 36.3098 94.1521 36.3098C96.132 36.3098 98.1118 36.3958 100.061 36.5554C100.788 38.8146 101.795 40.948 103.045 42.9155C100.095 42.5134 97.1204 42.3078 94.1521 42.3078ZM150.258 63.6811C150.764 64.3257 150.973 65.1238 150.844 65.925C150.718 66.7261 150.273 67.4199 149.588 67.8803C148.17 68.8349 146.494 68.6201 145.506 67.3585C141.933 62.7818 137.786 58.7207 133.145 55.2552C135.462 54.7149 137.669 53.8862 139.729 52.8118C143.603 56.0441 147.145 59.6907 150.258 63.6811ZM128.473 22.7854V12.4072C128.473 11.4648 127.709 10.7036 126.763 10.7036C125.821 10.7036 125.053 11.4648 125.053 12.4072V22.7854C123.399 23.3287 122.088 24.6363 121.542 26.2908H115.096C114.15 26.2908 113.386 27.0551 113.386 27.9944C113.386 28.9368 114.15 29.7011 115.096 29.7011H121.542C122.263 31.8928 124.332 33.4797 126.763 33.4797C129.793 33.4797 132.258 31.0179 132.258 27.9944C132.258 25.5664 130.668 23.5036 128.473 22.7854ZM126.763 30.0664C125.618 30.0664 124.688 29.1394 124.688 27.9944C124.688 26.8525 125.618 25.9225 126.763 25.9225C127.908 25.9225 128.841 26.8525 128.841 27.9944C128.841 29.1394 127.908 30.0664 126.763 30.0664Z" fill="#CAD5E2" stroke="white" stroke-width="2" stroke-linecap="round" mask="url(#path-4-inside-2_1737_536)"/>
<path d="M153.079 38.4576C152.974 38.3526 152.974 38.1827 153.079 38.0788C153.184 37.9749 153.354 37.9737 153.458 38.0788L155.145 39.7662L156.832 38.0788C156.937 37.9737 157.107 37.9737 157.211 38.0788C157.315 38.1838 157.316 38.3537 157.211 38.4576L155.524 40.145L157.211 41.8324C157.316 41.9374 157.316 42.1073 157.211 42.2112C157.106 42.3151 156.936 42.3163 156.832 42.2112L155.145 40.5238L153.458 42.2112C153.353 42.3163 153.183 42.3163 153.079 42.2112C152.975 42.1062 152.974 41.9363 153.079 41.8324L154.766 40.145L153.079 38.4576Z" fill="black" stroke="#CAD5E2"/>
<path d="M168.582 86.183C168.582 85.2816 168.224 84.4171 167.586 83.7798C166.949 83.1424 166.084 82.7843 165.183 82.7843C164.282 82.7843 163.417 83.1424 162.78 83.7798C162.142 84.4171 161.784 85.2816 161.784 86.183C161.784 87.0844 162.142 87.9489 162.78 88.5862C163.417 89.2236 164.282 89.5817 165.183 89.5817C166.084 89.5817 166.949 89.2236 167.586 88.5862C168.224 87.9489 168.582 87.0844 168.582 86.183ZM161 86.183C161 85.0736 161.441 84.0096 162.225 83.2252C163.01 82.4407 164.074 82 165.183 82C166.292 82 167.356 82.4407 168.141 83.2252C168.925 84.0096 169.366 85.0736 169.366 86.183C169.366 87.2924 168.925 88.3564 168.141 89.1408C167.356 89.9253 166.292 90.366 165.183 90.366C164.074 90.366 163.01 89.9253 162.225 89.1408C161.441 88.3564 161 87.2924 161 86.183Z" fill="#CAD5E2" stroke="#CAD5E2"/>
<path d="M40.5817 100.183C40.5817 99.2816 40.2236 98.4171 39.5862 97.7798C38.9489 97.1424 38.0844 96.7843 37.183 96.7843C36.2816 96.7843 35.4171 97.1424 34.7798 97.7798C34.1424 98.4171 33.7843 99.2816 33.7843 100.183C33.7843 101.084 34.1424 101.949 34.7798 102.586C35.4171 103.224 36.2816 103.582 37.183 103.582C38.0844 103.582 38.9489 103.224 39.5862 102.586C40.2236 101.949 40.5817 101.084 40.5817 100.183ZM33 100.183C33 99.0736 33.4407 98.0096 34.2252 97.2252C35.0096 96.4407 36.0736 96 37.183 96C38.2924 96 39.3564 96.4407 40.1408 97.2252C40.9253 98.0096 41.366 99.0736 41.366 100.183C41.366 101.292 40.9253 102.356 40.1408 103.141C39.3564 103.925 38.2924 104.366 37.183 104.366C36.0736 104.366 35.0096 103.925 34.2252 103.141C33.4407 102.356 33 101.292 33 100.183Z" fill="#CAD5E2" stroke="#CAD5E2"/>
<path d="M70.5817 22.183C70.5817 21.2816 70.2236 20.4171 69.5862 19.7798C68.9489 19.1424 68.0844 18.7843 67.183 18.7843C66.2816 18.7843 65.4171 19.1424 64.7798 19.7798C64.1424 20.4171 63.7843 21.2816 63.7843 22.183C63.7843 23.0844 64.1424 23.9489 64.7798 24.5862C65.4171 25.2236 66.2816 25.5817 67.183 25.5817C68.0844 25.5817 68.9489 25.2236 69.5862 24.5862C70.2236 23.9489 70.5817 23.0844 70.5817 22.183ZM63 22.183C63 21.0736 63.4407 20.0096 64.2252 19.2252C65.0096 18.4407 66.0736 18 67.183 18C68.2924 18 69.3564 18.4407 70.1408 19.2252C70.9253 20.0096 71.366 21.0736 71.366 22.183C71.366 23.2924 70.9253 24.3564 70.1408 25.1408C69.3564 25.9253 68.2924 26.366 67.183 26.366C66.0736 26.366 65.0096 25.9253 64.2252 25.1408C63.4407 24.3564 63 23.2924 63 22.183Z" fill="#CAD5E2" stroke="#CAD5E2"/>
<path d="M41.0788 51.4576C40.9737 51.3526 40.9737 51.1827 41.0788 51.0788C41.1838 50.9749 41.3537 50.9737 41.4576 51.0788L43.145 52.7662L44.8324 51.0788C44.9374 50.9737 45.1073 50.9737 45.2112 51.0788C45.3151 51.1838 45.3163 51.3537 45.2112 51.4576L43.5238 53.145L45.2112 54.8324C45.3163 54.9374 45.3163 55.1073 45.2112 55.2112C45.1062 55.3151 44.9363 55.3163 44.8324 55.2112L43.145 53.5238L41.4576 55.2112C41.3526 55.3163 41.1827 55.3163 41.0788 55.2112C40.9749 55.1062 40.9737 54.9363 41.0788 54.8324L42.7662 53.145L41.0788 51.4576Z" fill="black" stroke="#CAD5E2"/>
<path d="M57.0788 111.458C56.9737 111.353 56.9737 111.183 57.0788 111.079C57.1838 110.975 57.3537 110.974 57.4576 111.079L59.145 112.766L60.8324 111.079C60.9374 110.974 61.1073 110.974 61.2112 111.079C61.3151 111.184 61.3163 111.354 61.2112 111.458L59.5238 113.145L61.2112 114.832C61.3163 114.937 61.3163 115.107 61.2112 115.211C61.1062 115.315 60.9363 115.316 60.8324 115.211L59.145 113.524L57.4576 115.211C57.3526 115.316 57.1827 115.316 57.0788 115.211C56.9749 115.106 56.9737 114.936 57.0788 114.832L58.7662 113.145L57.0788 111.458Z" fill="black" stroke="#CAD5E2"/>
<defs>
<clipPath id="clip0_1737_536">
<rect width="193" height="88" fill="white" transform="translate(0 25)"/>
</clipPath>
</defs>
</svg>
