<svg width="216" height="99" viewBox="0 0 216 99" fill="none" xmlns="http://www.w3.org/2000/svg">
<g clip-path="url(#clip0_1386_494)">
<path fill-rule="evenodd" clip-rule="evenodd" d="M119 21.3767C122.866 21.3767 126 24.5107 126 28.3767C126 32.2427 122.866 35.3767 119 35.3767H183C186.866 35.3767 190 38.5107 190 42.3767C190 46.2427 186.866 49.3767 183 49.3767H205C208.866 49.3767 212 52.5107 212 56.3767C212 60.2427 208.866 63.3767 205 63.3767H186C182.134 63.3767 179 66.5107 179 70.3767C179 74.2427 182.134 77.3767 186 77.3767H192C195.866 77.3767 199 80.5107 199 84.3767C199 88.2427 195.866 91.3767 192 91.3767H140C139.485 91.3767 138.983 91.3211 138.5 91.2156C138.017 91.3211 137.515 91.3767 137 91.3767H46C42.134 91.3767 39 88.2427 39 84.3767C39 80.5107 42.134 77.3767 46 77.3767H7C3.13401 77.3767 0 74.2427 0 70.3767C0 66.5107 3.13401 63.3767 7 63.3767H47C50.866 63.3767 54 60.2427 54 56.3767C54 52.5107 50.866 49.3767 47 49.3767H22C18.134 49.3767 15 46.2427 15 42.3767C15 38.5107 18.134 35.3767 22 35.3767H62C58.134 35.3767 55 32.2427 55 28.3767C55 24.5107 58.134 21.3767 62 21.3767H119ZM209 77.3767C212.866 77.3767 216 80.5107 216 84.3767C216 88.2427 212.866 91.3767 209 91.3767C205.134 91.3767 202 88.2427 202 84.3767C202 80.5107 205.134 77.3767 209 77.3767Z" fill="#F3F7FF"/>
</g>
<circle cx="161" cy="49" r="3" fill="#75A4FE"/>
<circle cx="47.5" cy="95.5" r="3.5" fill="#75A4FE"/>
<circle cx="61.5" cy="2.5" r="2.5" fill="#75A4FE"/>
<path fill-rule="evenodd" clip-rule="evenodd" d="M43.9525 21.5176L126.977 8.22591C128.613 7.96399 130.152 9.07793 130.414 10.714C130.414 10.7172 130.415 10.7205 130.415 10.7238L138.537 62.5559C138.793 64.1889 137.68 65.7213 136.048 65.9826L53.0227 79.2743C51.3867 79.5362 49.8481 78.4223 49.5862 76.7862C49.5857 76.783 49.5851 76.7797 49.5846 76.7764L41.4629 24.9443C41.207 23.3113 42.3203 21.7789 43.9525 21.5176Z" fill="white"/>
<path d="M57.3448 78.4234L54.1615 78.9482C51.9748 79.3085 49.9214 77.756 49.575 75.4805L42.0499 26.0391C41.7036 23.7636 43.1955 21.6268 45.3822 21.2664L125.558 8.05195C127.745 7.69162 129.798 9.2441 130.145 11.5196C130.482 13.7367 130.751 15.5036 130.952 16.8203M131.523 20.5758C131.705 21.7685 131.864 22.8129 132 23.7091" stroke="#75A4FE" stroke-width="2.5" stroke-linecap="round"/>
<path fill-rule="evenodd" clip-rule="evenodd" d="M47.977 23.792L123.737 11.9609C125.369 11.7061 126.9 12.8183 127.162 14.4492L134.522 60.2682C134.785 61.9041 133.672 63.4433 132.036 63.706C132.032 63.7067 132.027 63.7074 132.023 63.7081L56.2629 75.5392C54.631 75.794 53.1 74.6817 52.838 73.0509L45.4779 27.2319C45.2151 25.596 46.3282 24.0568 47.9641 23.794C47.9684 23.7933 47.9727 23.7927 47.977 23.792Z" fill="#E8F0FE"/>
<path d="M144.75 28.25H66.25C64.0409 28.25 62.25 30.0409 62.25 32.25V80.75C62.25 82.9591 64.0409 84.75 66.25 84.75H144.75C146.959 84.75 148.75 82.9591 148.75 80.75V32.25C148.75 30.0409 146.959 28.25 144.75 28.25Z" fill="white" stroke="#75A4FE" stroke-width="2.5"/>
<path d="M147.5 40H63.5V54H147.5V40Z" fill="#E8F0FE"/>
<path d="M77.289 40H70.0926M148.171 40H82.3309H148.171ZM142.171 53H63.3315H142.171ZM99.0625 72H70.7546H99.0625Z" stroke="#75A4FE" stroke-width="2.5" stroke-linecap="round" stroke-linejoin="round"/>
<defs>
<clipPath id="clip0_1386_494">
<rect width="216" height="70" fill="white" transform="translate(0 21.3767)"/>
</clipPath>
</defs>
</svg>
