<svg width="99" height="109" viewBox="0 0 99 109" fill="none" xmlns="http://www.w3.org/2000/svg">
<path d="M86.5532 0.27832C87.0412 0.408259 86.8452 0.286542 87.1809 0.620024C87.2221 1.39664 86.423 2.21383 85.8789 2.71755C84.0821 4.38305 82.3443 6.10309 80.605 7.82821L68.6154 19.84L16.9248 71.6059L6.31613 82.1834C5.43432 83.0565 2.85589 86.2323 1.78699 85.9883L1.64802 85.6676C1.85333 84.5779 3.71783 83.0633 4.55908 82.2231L10.1126 76.6801C16.2718 70.5507 22.6888 64.2548 28.7371 58.0357C26.0268 55.9616 24.2844 52.8066 27.2109 49.8229C30.4559 46.5147 35.1137 44.0994 39.441 42.6308C41.1725 42.043 43.6018 42.2908 45.259 41.3345C47.9735 39.1997 50.2641 36.0076 53.0375 33.9605C51.1549 33.9394 49.2985 33.6688 47.3935 33.6902C40.4949 33.7913 33.761 35.8136 27.9479 39.5299C26.296 40.5893 25.2175 41.5734 23.6727 42.6611C22.6262 43.8054 21.0096 45.497 19.5053 45.9805C17.0525 46.7692 14.5019 45.5353 13.4303 43.1916C12.835 41.8901 12.8009 40.401 13.3356 39.0734C14.5125 36.1775 22.3947 30.7978 25.2565 29.2815C32.5128 25.4365 40.8062 23.2911 49.0339 23.6761C53.4916 23.8847 56.7964 23.9256 61.0198 25.7476C62.8632 24.0916 65.5824 21.1897 67.4203 19.3684C64.7971 18.8974 62.1697 17.6378 59.4135 17.0766C41.688 13.4689 22.9678 18.2735 9.97455 31.0722C6.98496 34.5758 1.94091 34.0843 0.439465 29.5223C-0.640807 26.24 3.16632 23.5219 5.30055 21.6745C12.356 15.5674 21.3768 10.4196 30.4317 8.02024C42.687 4.68473 55.649 4.99793 67.7287 8.92132C70.4602 9.82884 72.3803 10.41 74.909 11.8798C78.5766 8.03107 82.7513 4.01503 86.5532 0.27832ZM23.2093 20.3355C25.6407 18.8829 30.3236 17.4111 33.0405 16.6557C42.434 14.044 52.0995 13.832 61.5214 16.4209C63.4142 16.9414 66.3938 17.4978 68.0083 18.7214L72.22 14.5365C72.6394 14.1204 73.8893 12.9341 74.1963 12.5337C71.8623 11.9961 70.06 10.8833 67.8328 10.1727C60.3784 7.7368 52.5385 6.69701 44.707 7.1056C42.217 7.29832 39.2358 7.39934 36.7695 7.83699C23.906 10.1198 11.938 16.4439 2.73981 25.7129C-0.678497 29.1574 4.55113 34.5846 8.08867 31.1168C9.18361 30.0807 10.3833 28.9833 11.5229 27.9821C14.1349 25.7292 16.9633 23.7403 19.9669 22.0443C20.9731 21.465 22.2857 20.9119 23.2093 20.3355ZM23.8725 40.9557C30.7855 34.9744 40.7593 32.0801 49.8096 32.6693C51.505 32.7797 52.9759 33.6107 54.4321 32.3774C56.5622 30.5732 58.3409 28.3083 60.4359 26.4413C58.3782 26.2275 56.5573 25.7007 54.57 25.3334C52.5861 24.9666 48.8872 24.6656 46.8049 24.7873C34.7225 25.2631 23.8902 29.7339 15.2172 38.2693C13.5251 39.9344 13.62 42.501 15.4798 43.9983C16.3718 44.7051 17.5136 45.017 18.6409 44.8617C20.2256 44.6274 22.5229 42.1937 23.8725 40.9557ZM28.2376 56.1802L29.5734 57.1084C31.0067 55.743 43.3192 43.7207 43.4893 43.11L43.3581 42.9947C38.5781 43.9894 34.4715 45.5654 30.5458 48.5307C27.5082 50.8252 25.8238 52.4931 28.2376 56.1802Z" fill="#CAD5E2" stroke="#CAD5E2" stroke-width="0.5" stroke-linecap="round"/>
<path d="M23.2093 20.3355C25.6407 18.8829 30.3236 17.4111 33.0405 16.6557C42.434 14.044 52.0995 13.832 61.5214 16.4209C63.4142 16.9414 66.3938 17.4978 68.0083 18.7214L72.22 14.5365C72.6394 14.1204 73.8893 12.9341 74.1963 12.5337C71.8623 11.9961 70.06 10.8833 67.8328 10.1727C60.3784 7.7368 52.5385 6.69701 44.707 7.1056C42.217 7.29832 39.2358 7.39934 36.7695 7.83699C23.906 10.1198 11.938 16.4439 2.73981 25.7129C-0.678497 29.1574 4.55113 34.5846 8.08867 31.1168C9.18361 30.0807 10.3833 28.9833 11.5229 27.9821C14.1349 25.7292 16.9633 23.7403 19.9669 22.0443C20.9731 21.465 22.2857 20.9119 23.2093 20.3355ZM23.8725 40.9557C30.7855 34.9744 40.7593 32.0801 49.8096 32.6693C51.505 32.7797 52.9759 33.6107 54.4321 32.3774C56.5622 30.5732 58.3409 28.3083 60.4359 26.4413C58.3782 26.2275 56.5573 25.7007 54.57 25.3334C52.5861 24.9666 48.8872 24.6656 46.8049 24.7873C34.7225 25.2631 23.8902 29.7339 15.2172 38.2693C13.5251 39.9344 13.62 42.501 15.4798 43.9983C16.3718 44.7051 17.5136 45.017 18.6409 44.8617C20.2256 44.6274 22.5229 42.1937 23.8725 40.9557ZM28.2376 56.1802L29.5734 57.1084C31.0067 55.743 43.3192 43.7207 43.4893 43.11L43.3581 42.9947C38.5781 43.9894 34.4715 45.5654 30.5458 48.5307C27.5082 50.8252 25.8238 52.4931 28.2376 56.1802Z" fill="white"/>
<path d="M85.8789 2.71755C86.423 2.21383 87.2221 1.39664 87.1809 0.620024C86.8452 0.286542 87.0412 0.408259 86.5532 0.27832C82.7513 4.01503 78.5766 8.03107 74.909 11.8798C72.3803 10.41 70.4602 9.82884 67.7287 8.92132C55.649 4.99793 42.687 4.68473 30.4317 8.02024C21.3768 10.4196 12.356 15.5674 5.30055 21.6745C3.16632 23.5219 -0.640807 26.24 0.439465 29.5223C1.94091 34.0843 6.98496 34.5758 9.97455 31.0722C22.9678 18.2735 41.688 13.4689 59.4135 17.0766C62.1697 17.6378 64.7971 18.8974 67.4203 19.3684C65.5824 21.1897 62.8632 24.0916 61.0198 25.7476C56.7964 23.9256 53.4916 23.8847 49.0339 23.6761C40.8062 23.2911 32.5128 25.4365 25.2565 29.2815C22.3947 30.7978 14.5125 36.1775 13.3356 39.0734C12.8009 40.401 12.835 41.8901 13.4303 43.1916C14.5019 45.5353 17.0525 46.7692 19.5053 45.9805C21.0096 45.497 22.6262 43.8054 23.6727 42.6611C25.2175 41.5734 26.296 40.5893 27.9479 39.5299C33.761 35.8136 40.4949 33.7913 47.3935 33.6902C49.2985 33.6688 51.1549 33.9394 53.0375 33.9605C50.2641 36.0076 47.9735 39.1997 45.259 41.3345C43.6018 42.2908 41.1725 42.043 39.441 42.6308C35.1137 44.0994 30.4559 46.5147 27.2109 49.8229C24.2844 52.8066 26.0268 55.9616 28.7371 58.0357C22.6888 64.2548 16.2718 70.5507 10.1126 76.6801L4.55908 82.2231C3.71783 83.0633 1.85333 84.5779 1.64802 85.6676L1.78699 85.9883C2.85589 86.2323 5.43432 83.0565 6.31613 82.1834L16.9248 71.6059L68.6154 19.84M23.2093 20.3355C25.6407 18.8829 30.3236 17.4111 33.0405 16.6557C42.434 14.044 52.0995 13.832 61.5214 16.4209C63.4142 16.9414 66.3938 17.4978 68.0083 18.7214L72.22 14.5365C72.6394 14.1204 73.8893 12.9341 74.1963 12.5337C71.8623 11.9961 70.06 10.8833 67.8328 10.1727C60.3784 7.7368 52.5385 6.69701 44.707 7.1056C42.217 7.29832 39.2358 7.39934 36.7695 7.83699C23.906 10.1198 11.938 16.4439 2.73981 25.7129C-0.678497 29.1574 4.55113 34.5846 8.08867 31.1168C9.18361 30.0807 10.3833 28.9833 11.5229 27.9821C14.1349 25.7292 16.9633 23.7403 19.9669 22.0443C20.9731 21.465 22.2857 20.9119 23.2093 20.3355ZM23.8725 40.9557C30.7855 34.9744 40.7593 32.0801 49.8096 32.6693C51.505 32.7797 52.9759 33.6107 54.4321 32.3774C56.5622 30.5732 58.3409 28.3083 60.4359 26.4413C58.3782 26.2275 56.5573 25.7007 54.57 25.3334C52.5861 24.9666 48.8872 24.6656 46.8049 24.7873C34.7225 25.2631 23.8902 29.7339 15.2172 38.2693C13.5251 39.9344 13.62 42.501 15.4798 43.9983C16.3718 44.7051 17.5136 45.017 18.6409 44.8617C20.2256 44.6274 22.5229 42.1937 23.8725 40.9557ZM28.2376 56.1802L29.5734 57.1084C31.0067 55.743 43.3192 43.7207 43.4893 43.11L43.3581 42.9947C38.5781 43.9894 34.4715 45.5654 30.5458 48.5307C27.5082 50.8252 25.8238 52.4931 28.2376 56.1802Z" stroke="#CAD5E2" stroke-width="0.5" stroke-linecap="round"/>
<path d="M89.3325 3.17627C89.8149 3.25097 89.8972 3.37639 90.074 3.76936C90.0054 4.11243 89.8739 4.32955 89.6231 4.58147C86.3927 7.8416 83.117 11.1112 79.9017 14.3841C80.1772 14.4995 80.454 14.6206 80.7158 14.765C84.0517 16.6096 94.1308 23.697 95.0176 27.0587C95.3657 28.3784 95.1478 29.6655 94.4419 30.8253C93.7375 31.9834 92.7205 32.8476 91.376 33.1418C90.2055 33.3978 88.5389 33.3243 87.4685 32.7525C86.4941 32.2312 85.5731 31.1484 84.7466 30.403C83.4761 29.2565 82.185 28.1172 80.8268 27.0741C78.1666 25.0304 75.25 23.5164 72.4322 21.7255C70.6066 23.733 68.474 25.7513 66.5264 27.6592C72.2156 30.4158 76.1806 32.4567 80.7843 37.0599C85.3442 41.6197 80.5143 47.9942 75.2733 45.6404C72.8104 43.9259 70.8999 42.0249 68.4397 40.1967C65.4382 37.9675 61.8227 36.9962 58.8626 35.2126C56.6292 37.6257 54.4359 39.6822 52.1727 42.0218C56.5888 42.4076 60.7125 44.1405 64.3815 46.6499C65.1161 47.0873 65.8192 47.8905 66.5059 48.3234C71.1521 51.251 70.804 57.2667 65.0229 58.4574C62.8273 58.9097 61.1196 56.9838 59.4215 55.6215C55.3885 52.3843 50.7611 51.2207 45.6396 51.7266C41.5774 51.6748 41.0175 53.1931 38.3634 55.8607L32.6519 61.5943L15.8597 78.332C12.7885 81.4243 9.72594 84.5261 6.64576 87.6101C6.2165 88.0391 5.34634 89.0369 4.74672 89.0068C4.19877 88.3982 4.81511 87.595 5.29001 87.1317C7.43383 85.0401 9.55394 82.9238 11.6856 80.8184L19.5342 72.9377L49.7421 42.7222L75.4077 17.0856C79.9031 12.5871 84.7507 7.51566 89.3325 3.17627Z" fill="white"/>
<path d="M68.0669 51.9118C68.2533 52.2379 68.4151 52.9575 68.4987 53.3447C67.5091 57.1466 65.0024 58.3904 61.6925 55.9838C56.3783 51.096 50.4641 49.6394 43.3841 50.7484C43.8422 50.2319 44.5368 49.6006 45.0582 49.1132M70.2681 39.91C71.5769 40.8681 74.9554 44.2781 76.06 44.693C77.5183 45.0102 78.368 45.0353 79.7551 44.2388C81.6409 43.1556 82.1823 40.4776 80.6898 38.783C78.0172 35.7486 74.2934 33.2606 70.8629 31.1532C69.21 30.1736 67.3543 29.3284 65.6986 28.3987M85.044 28.9353C86.272 30.0006 87.522 31.4329 88.9501 32.0933C91.535 32.4259 93.3222 31.3273 93.8594 28.6915C94.2021 27.0076 92.6986 25.4829 91.5569 24.4458C88.2196 21.4148 84.6013 18.6222 80.7377 16.2942C80.3362 16.0527 79.3658 15.4203 78.9423 15.336M89.3325 3.17627C89.8149 3.25097 89.8972 3.37639 90.074 3.76936C90.0054 4.11243 89.8739 4.32955 89.6231 4.58147C86.3927 7.8416 83.117 11.1112 79.9017 14.3841C80.1772 14.4995 80.454 14.6206 80.7158 14.765C84.0517 16.6096 94.1308 23.697 95.0176 27.0587C95.3657 28.3784 95.1478 29.6655 94.4419 30.8253C93.7375 31.9834 92.7205 32.8476 91.376 33.1418C90.2055 33.3978 88.5389 33.3243 87.4685 32.7525C86.4941 32.2312 85.5731 31.1484 84.7466 30.403C83.4761 29.2565 82.185 28.1172 80.8268 27.0741C78.1666 25.0304 75.25 23.5164 72.4322 21.7255C70.6066 23.733 68.474 25.7513 66.5264 27.6592C72.2156 30.4158 76.1806 32.4567 80.7843 37.0599C85.3442 41.6197 80.5143 47.9942 75.2733 45.6404C72.8104 43.9259 70.8999 42.0249 68.4397 40.1967C65.4382 37.9675 61.8227 36.9962 58.8626 35.2126C56.6292 37.6257 54.4359 39.6822 52.1727 42.0218C56.5888 42.4076 60.7125 44.1405 64.3815 46.6499C65.1161 47.0873 65.8192 47.8905 66.5059 48.3234C71.1521 51.251 70.804 57.2667 65.0229 58.4574C62.8273 58.9097 61.1196 56.9838 59.4215 55.6215C55.3885 52.3843 50.7611 51.2207 45.6396 51.7266C41.5774 51.6748 41.0175 53.1931 38.3634 55.8607L32.6519 61.5943L15.8597 78.332C12.7885 81.4243 9.72594 84.5261 6.64576 87.6101C6.2165 88.0391 5.34634 89.0369 4.74672 89.0068C4.19877 88.3982 4.81511 87.595 5.29001 87.1317C7.43383 85.0401 9.55394 82.9238 11.6856 80.8184L19.5342 72.9377L49.7421 42.7222L75.4077 17.0856C79.9031 12.5871 84.7507 7.51566 89.3325 3.17627Z" stroke="#CAD5E2" stroke-width="0.5" stroke-linecap="round"/>
<path d="M89.3325 3.17627C89.8149 3.25097 89.8972 3.37639 90.074 3.76936C90.0054 4.11243 89.8739 4.32955 89.6231 4.58147C86.3927 7.8416 83.117 11.1112 79.9017 14.3841C80.1772 14.4995 80.454 14.6206 80.7158 14.765C84.0517 16.6096 94.1308 23.697 95.0176 27.0587C95.3657 28.3784 95.1478 29.6655 94.4419 30.8253C93.7375 31.9834 92.7205 32.8476 91.376 33.1418C90.2055 33.3978 88.5389 33.3243 87.4685 32.7525C86.4941 32.2312 85.5731 31.1484 84.7466 30.403C83.4761 29.2565 82.185 28.1172 80.8268 27.0741C78.1666 25.0304 75.25 23.5164 72.4322 21.7255C70.6066 23.733 68.474 25.7513 66.5264 27.6592C72.2156 30.4158 76.1806 32.4567 80.7843 37.0599C85.3442 41.6197 80.5143 47.9942 75.2733 45.6404C72.8104 43.9259 70.8999 42.0249 68.4397 40.1967C65.4382 37.9675 61.8227 36.9962 58.8626 35.2126C56.6292 37.6257 54.4359 39.6822 52.1727 42.0218C56.5888 42.4076 60.7125 44.1405 64.3815 46.6499C65.1161 47.0873 65.8192 47.8905 66.5059 48.3234C71.1521 51.251 70.804 57.2667 65.0229 58.4574C62.8273 58.9097 61.1196 56.9838 59.4215 55.6215C55.3885 52.3843 50.7611 51.2207 45.6396 51.7266C41.5774 51.6748 41.0175 53.1931 38.3634 55.8607L32.6519 61.5943L15.8597 78.332C12.7885 81.4243 9.72594 84.5261 6.64576 87.6101C6.2165 88.0391 5.34634 89.0369 4.74672 89.0068C4.19877 88.3982 4.81511 87.595 5.29001 87.1317C7.43383 85.0401 9.55394 82.9238 11.6856 80.8184L19.5342 72.9377L49.7421 42.7222L75.4077 17.0856C79.9031 12.5871 84.7507 7.51566 89.3325 3.17627ZM43.3841 50.7484C50.4641 49.6394 56.3783 51.096 61.6925 55.9838C65.0024 58.3904 67.5091 57.1466 68.4987 53.3447C68.4151 52.9575 68.2533 52.2379 68.0669 51.9118C65.6424 47.6417 56.0417 42.9156 51.4281 42.9607C49.1726 44.6741 47.1377 47.169 45.0582 49.1132C44.5368 49.6006 43.8422 50.2319 43.3841 50.7484ZM59.649 34.5779C63.7716 36.157 66.6347 37.2487 70.2681 39.91C71.5769 40.8681 74.9554 44.2781 76.06 44.693C77.5183 45.0102 78.368 45.0353 79.7551 44.2388C81.6409 43.1556 82.1823 40.4776 80.6898 38.783C78.0172 35.7486 74.2934 33.2606 70.8629 31.1532C69.21 30.1736 67.3543 29.3284 65.6986 28.3987C63.9388 30.3652 61.5623 32.7088 59.649 34.5779ZM73.1503 21.0536C77.2688 22.5978 81.7259 26.056 85.044 28.9353C86.272 30.0006 87.522 31.4329 88.9501 32.0933C91.535 32.4259 93.3222 31.3273 93.8594 28.6915C94.2021 27.0076 92.6986 25.4829 91.5569 24.4458C88.2196 21.4148 84.6013 18.6222 80.7377 16.2942C80.3362 16.0527 79.3658 15.4203 78.9423 15.336C76.9317 17.1965 75.0979 19.251 73.1503 21.0536Z" fill="#CAD5E2" stroke="#CAD5E2" stroke-width="0.5" stroke-linecap="round"/>
<path d="M56.0928 67.2812C55.7813 62.7028 51.836 59.2323 47.2554 59.5075C42.6231 59.7859 39.1052 63.7859 39.4203 68.4161C39.7353 73.0465 43.763 76.5331 48.3903 76.1808C52.9657 75.8327 56.4045 71.8598 56.0928 67.2812Z" fill="white"/>
<path d="M47.2554 59.5075C51.836 59.2323 55.7813 62.7028 56.0928 67.2812C56.4045 71.8598 52.9657 75.8327 48.3903 76.1808C43.763 76.5331 39.7353 73.0465 39.4203 68.4161C39.1052 63.7859 42.6231 59.7859 47.2554 59.5075ZM48.7879 74.9184C52.6661 74.3386 55.346 70.732 54.7823 66.8511C54.2184 62.9702 50.6232 60.2756 46.7404 60.8237C42.8353 61.375 40.1221 64.9956 40.6891 68.8989C41.2561 72.802 44.8874 75.501 48.7879 74.9184Z" fill="#CAD5E2" stroke="#CAD5E2" stroke-width="0.5" stroke-linecap="round"/>
<path d="M34.5914 92.0592C36.1441 91.9934 42.8601 91.9016 43.8582 92.3183C44.0022 92.8734 42.755 94.806 42.4155 95.4297C44.0235 96.0478 45.0203 96.7578 46.3289 97.8503C45.8312 98.6631 43.7115 102.234 43.3034 102.431C41.7431 103.184 34.7003 102.829 33.0471 102.637C32.3639 101.862 31.8491 101.033 31.2837 100.174C23.1884 99.7582 14.8512 100.32 6.73774 100.065C6.39948 100.054 6.19308 99.8418 5.99133 99.5992L6.03313 99.3991C7.18385 98.5795 13.2331 98.8618 14.9115 98.8659C20.3752 98.8413 25.839 98.8536 31.3026 98.9002C31.2351 97.7625 31.224 97.1526 31.2981 96.0218C30.5481 96.0725 26.8936 96.1013 26.2664 96.0314C23.4197 95.712 7.71686 96.5783 6.06562 95.5859L6.07055 95.3762C6.76967 94.806 14.0327 95.0198 15.4214 95.0198L31.2987 94.9623C32.0238 93.1681 32.7203 92.5143 34.5914 92.0592ZM42.6948 101.256C43.7507 99.909 44.0344 99.58 44.6442 98.0285C41.9972 96.4481 40.5943 96.4385 42.2391 93.3737C39.8649 93.2626 36.3826 93.4518 34.346 93.2914C33.2302 93.608 32.7431 94.0001 32.6481 95.1542C32.5723 96.0739 32.2653 100.472 33.1629 100.97C35.5055 102.269 39.5894 101.584 42.2215 101.62C42.3526 101.621 42.6266 101.345 42.6948 101.256Z" fill="#CAD5E2" stroke="#CAD5E2" stroke-width="0.5" stroke-linecap="round"/>
<path d="M52.7497 92.0662C55.5083 92.0867 59.3133 91.792 61.9571 92.2992C62.63 92.232 64.2819 94.7879 64.2504 94.7783C65.1618 95.0442 70.63 95.046 71.2796 95.046L82.2948 95.0391C83.7366 95.0337 88.4979 94.7869 89.6108 95.4819L89.5382 95.6683C87.9469 96.222 67.2968 96.1549 64.2993 95.9972C64.3555 97.0019 64.3336 97.8874 64.3117 98.8962C67.1241 98.8304 70.0694 98.866 72.8941 98.8647L82.6662 98.8564C84.3479 98.8551 88.3471 98.548 89.6218 99.5445L89.5971 99.757C89.1695 99.9393 88.7487 100.045 88.2786 100.057C80.317 100.257 72.1787 99.8255 64.2322 100.164C63.8142 100.873 62.9288 102.365 62.1818 102.542C60.7304 102.888 52.258 103.053 51.4664 102.655C51.3089 101.987 52.6143 100.278 53.0294 99.6336C52.1677 99.0881 49.8811 97.8723 49.3542 97.324C49.3586 96.4729 51.9219 92.5363 52.7497 92.0662ZM52.9429 93.4204C52.3933 94.2688 51.0921 95.9164 51.1967 96.943C51.3191 98.1451 53.5617 97.8983 53.9453 98.9921C54.3138 99.9585 53.5926 100.948 53.1267 101.758L58.2881 101.714C59.3023 101.729 61.709 101.855 62.3148 101.121C63.403 99.7967 63.2892 95.1529 62.4066 93.8672C61.0689 92.9393 56.6782 93.2806 54.9047 93.3244C54.2766 93.3546 53.5624 93.3711 52.9429 93.4204Z" fill="#CAD5E2" stroke="#CAD5E2" stroke-width="0.5" stroke-linecap="round"/>
<path d="M89.9501 65.6423C88.2341 59.4066 85.1298 56.2709 78.4292 56.3149C74.3764 56.5688 71.1104 58.6748 69.4808 62.4436C66.4327 63.0027 64.9498 63.0641 62.5609 65.1683C57.0865 69.9922 58.6012 79.382 65.3705 82.1507C66.6205 82.662 76.108 83.0622 78.4292 83.0622C80.7504 83.0622 84.5748 83.0746 85.7877 83.0622C88.2095 83.0375 90.8327 83.2582 93.0818 82.2193C99.9894 79.027 99.0588 68.6723 92.0402 66.1596C91.3028 65.8955 90.6847 65.7839 89.9501 65.6423Z" fill="white"/>
<path d="M78.4292 56.3149C85.1298 56.2709 88.2341 59.4066 89.9501 65.6423C90.6847 65.7839 91.3028 65.8955 92.0402 66.1596C99.0588 68.6723 99.9894 79.027 93.0818 82.2193C90.8327 83.2582 88.6721 83.2536 86.2504 83.2783C85.0374 83.2907 80.2504 83.7783 80.2504 82.6771C80.2504 81.7783 88.9564 82.2275 91.0561 81.7025C96.5096 80.3387 98.2639 74.0199 94.9595 69.7287C93.4998 67.8314 91.1891 67.0768 88.8865 66.7613C88.5549 65.7273 88.4808 64.5108 88.0464 63.4631C86.9294 60.7633 85.5163 59.443 82.9561 58.2563C77.0833 56.4184 73.2608 58.0317 70.1359 63.302C68.4159 63.81 67.2907 63.7612 65.5364 64.6492C63.4161 65.7418 61.5618 67.6181 60.8367 69.97C59.1822 75.3317 62.5129 80.7102 67.9719 81.7971C69.0861 82.0178 70.3032 81.7519 71.4448 82.0959C71.7546 82.4427 71.6915 82.2494 71.6861 82.6771C70.6705 83.6201 66.6205 82.662 65.3705 82.1507C58.6012 79.382 57.0865 69.9922 62.5609 65.1683C64.9498 63.0641 66.4327 63.0027 69.4808 62.4436C71.1104 58.6748 74.3764 56.5688 78.4292 56.3149Z" fill="#CAD5E2" stroke="#CAD5E2" stroke-width="0.5" stroke-linecap="round"/>
<path d="M76.1641 64.9443C77.7307 64.8384 79.4082 64.9096 80.9871 64.812C81.6244 64.7727 82.0123 64.8567 82.3426 65.4117C82.418 67.0761 80.1662 70.0716 80.1524 70.6879C81.2749 71.1695 83.9023 69.9827 84.493 71.3775C84.408 72.3854 80.5965 76.5562 79.8893 77.6445C79.5974 78.0927 78.2501 79.8965 77.8814 80.2515C77.1866 81.0341 75.8818 83.5562 74.9169 83.6165L74.7401 83.341C74.6497 82.2444 76.5821 76.5109 77.0043 75.043C76.0408 75.0594 73.7328 75.1992 72.942 74.8785C72.8611 73.9382 73.8739 71.2877 74.2029 70.2948C74.662 68.9079 75.1266 65.7945 76.1641 64.9443ZM76.7151 79.8088C77.5032 78.8397 78.294 77.665 79.0519 76.7645C79.6988 75.8585 82.1699 72.6365 82.8853 72.023C81.6751 72.1144 79.9222 72.3824 78.8929 71.7509C78.6928 71.4493 78.5119 71.1663 78.6489 70.7589C79.1917 69.1531 80.4074 67.4951 81.1666 65.9685C79.7015 65.9983 78.2364 66.0041 76.7713 65.9859C76.3231 67.7276 74.5222 72.6218 74.5003 73.8505C75.472 74.4618 77.2578 73.3676 78.1514 74.6893C78.294 75.5885 77.044 78.5135 76.7151 79.8088Z" fill="#CAD5E2" stroke="#CAD5E2" stroke-width="0.5" stroke-linecap="round"/>
<path d="M50.8743 86.4814C51.1872 86.5089 51.1644 86.5116 51.4071 86.7145C51.8181 88.1893 48.6421 91.9367 47.8837 93.3033C47.804 93.4472 47.2141 93.7515 47.0267 93.8447C46.6926 93.7268 46.8378 93.82 46.6278 93.502C46.6273 93.2566 46.6502 92.8962 46.7878 92.6974C47.7088 91.3692 49.9199 87.4615 50.8743 86.4814Z" fill="#CAD5E2" stroke="#CAD5E2" stroke-width="0.5" stroke-linecap="round"/>
<path d="M48.5362 100.729L48.7782 100.925C48.8288 101.106 48.9332 101.475 48.8668 101.634C48.1871 103.263 45.5833 107.322 44.3175 108.288C43.6408 107.57 44.3051 106.508 44.8069 105.836C46.035 104.19 47.056 102.138 48.5362 100.729Z" fill="#CAD5E2" stroke="#CAD5E2" stroke-width="0.5" stroke-linecap="round"/>
</svg>
