<svg width="216" height="112" viewBox="0 0 216 112" fill="none" xmlns="http://www.w3.org/2000/svg">
<path fill-rule="evenodd" clip-rule="evenodd" d="M206.946 28C211.946 28 216 31.7608 216 36.4C216 41.0392 211.946 44.8 206.946 44.8H155.21C160.21 44.8 164.263 48.5608 164.263 53.2C164.263 57.8392 160.21 61.6 155.21 61.6H183.665C188.665 61.6 192.719 65.3608 192.719 70C192.719 74.6392 188.665 78.4 183.665 78.4H170.506C164.201 78.4 159.09 82.1608 159.09 86.8C159.09 89.8928 161.677 92.6928 166.85 95.2C171.851 95.2 175.904 98.9608 175.904 103.6C175.904 108.239 171.851 112 166.85 112H59.497C54.4967 112 50.4431 108.239 50.4431 103.6C50.4431 98.9608 54.4967 95.2 59.497 95.2H9.05389C4.05357 95.2 0 91.4392 0 86.8C0 82.1608 4.05357 78.4 9.05389 78.4H60.7904C65.7907 78.4 69.8443 74.6392 69.8443 70C69.8443 65.3608 65.7907 61.6 60.7904 61.6H28.4551C23.4548 61.6 19.4012 57.8392 19.4012 53.2C19.4012 48.5608 23.4548 44.8 28.4551 44.8H80.1916C75.1913 44.8 71.1377 41.0392 71.1377 36.4C71.1377 31.7608 75.1913 28 80.1916 28H206.946ZM206.946 61.6C211.946 61.6 216 65.3608 216 70C216 74.6392 211.946 78.4 206.946 78.4C201.946 78.4 197.892 74.6392 197.892 70C197.892 65.3608 201.946 61.6 206.946 61.6Z" fill="#F1F5F9"/>
<rect x="72" y="39.5049" width="90.4423" height="67.1576" rx="4" transform="rotate(-4.81738 72 39.5049)" fill="white"/>
<path d="M166.5 86.5L162.444 35.913C162.267 33.7046 160.328 32.0608 158.121 32.2468L75.9859 39.169C73.7845 39.3545 72.1504 41.2894 72.3359 43.4908L77.304 102.439C77.4895 104.641 79.4244 106.275 81.6258 106.089L163.777 99.1658C165.978 98.9802 167.612 97.0453 167.427 94.844L167.011 89.9149" stroke="#CAD5E2" stroke-width="2" stroke-linecap="round"/>
<path d="M84.3331 100L140.333 95C140.333 95 125.333 92.5 107.833 80C90.3331 67.5 79.3331 51 79.3331 51L84.3331 100Z" fill="#F1F5F9" stroke="#F1F5F9" stroke-width="2" stroke-linejoin="round"/>
<line x1="88.4272" y1="28.5889" x2="110.922" y2="8.90593" stroke="#CAD5E2" stroke-opacity="0.85" stroke-width="2" stroke-linecap="round"/>
<line x1="82.3331" y1="34.5858" x2="85.9189" y2="31" stroke="#CAD5E2" stroke-opacity="0.85" stroke-width="2" stroke-linecap="round"/>
<line x1="152.96" y1="28.3369" x2="121.67" y2="9.3735" stroke="#CAD5E2" stroke-opacity="0.85" stroke-width="2" stroke-linecap="round"/>
<circle cx="116.333" cy="6" r="5" fill="white" stroke="#D1DBE6" stroke-width="2"/>
<path d="M174.857 41.3012C176.435 41.3012 177.714 40.1145 177.714 38.6506C177.714 37.1867 176.435 36 174.857 36C173.279 36 172 37.1867 172 38.6506C172 40.1145 173.279 41.3012 174.857 41.3012Z" stroke="#CAD5E2" stroke-width="1.5"/>
<path d="M204.379 55.437C205.957 55.437 207.236 54.2503 207.236 52.7864C207.236 51.3225 205.957 50.1357 204.379 50.1357C202.801 50.1357 201.522 51.3225 201.522 52.7864C201.522 54.2503 202.801 55.437 204.379 55.437Z" fill="#CAD5E2"/>
<path d="M182.244 48.1553L190.204 55.5401M190.325 48.1553L182.365 55.5401L190.325 48.1553Z" stroke="#CAD5E2" stroke-width="1.5" stroke-linecap="round" stroke-linejoin="round"/>
<path d="M37 93.1157L44.7605 100.316M44.7605 93.1157L37 100.316L44.7605 93.1157Z" stroke="#CAD5E2" stroke-width="2.5" stroke-linecap="round" stroke-linejoin="round"/>
<path d="M54.5851 78.5C56.4877 78.5 57.9657 79.9223 57.9659 81.5996C57.9659 83.2771 56.4879 84.7002 54.5851 84.7002C52.6824 84.7 51.2052 83.277 51.2052 81.5996C51.2054 79.9224 52.6826 78.5002 54.5851 78.5Z" fill="white" stroke="#CAD5E2"/>
<ellipse cx="122.268" cy="68.2702" rx="21.6693" ry="21.669" transform="rotate(-7.36452 122.268 68.2702)" fill="white" stroke="white" stroke-width="2"/>
<path d="M101.459 74.3189C104.38 84.4124 114.302 91.1467 125.047 89.758C136.915 88.224 145.294 77.3589 143.76 65.4902C142.226 53.6214 131.36 45.2435 119.491 46.7775C115.577 47.2835 111.991 48.4089 109.067 50.646" stroke="#CAD5E2" stroke-width="3" stroke-linecap="round"/>
<path d="M101.458 74.319C101.152 73.2628 100.923 72.1698 100.778 71.0454C100.632 69.9211 100.576 68.8058 100.603 67.7066" stroke="#CAD5E2" stroke-width="3" stroke-linecap="round"/>
<path d="M100.604 67.7081C100.724 62.8488 102.475 58.3039 105.386 54.6849" stroke="#CAD5E2" stroke-width="3" stroke-linecap="round"/>
<path d="M118.399 57.841C118.222 56.4715 119.189 55.2178 120.558 55.0408C121.928 54.8638 123.181 55.8305 123.358 57.2L124.64 67.1185C124.817 68.488 123.85 69.7417 122.481 69.9187C121.111 70.0957 119.858 69.129 119.681 67.7595L118.399 57.841Z" stroke="#CAD5E2" stroke-width="2" stroke-linejoin="round"/>
<path d="M121.177 79.3353C121.354 80.7048 122.607 81.6714 123.977 81.4944C125.346 81.3174 126.313 80.0638 126.136 78.6943C125.959 77.3248 124.705 76.3582 123.336 76.5352C121.966 76.7122 121 77.9658 121.177 79.3353Z" stroke="#CAD5E2" stroke-width="2" stroke-linejoin="round"/>
</svg>
