<svg width="216" height="103" viewBox="0 0 216 103" fill="none" xmlns="http://www.w3.org/2000/svg">
<path d="M52.5817 25.683C52.5817 24.7816 52.2236 23.9171 51.5862 23.2798C50.9489 22.6424 50.0844 22.2843 49.183 22.2843C48.2816 22.2843 47.4171 22.6424 46.7798 23.2798C46.1424 23.9171 45.7843 24.7816 45.7843 25.683C45.7843 26.5844 46.1424 27.4489 46.7798 28.0862C47.4171 28.7236 48.2816 29.0817 49.183 29.0817C50.0844 29.0817 50.9489 28.7236 51.5862 28.0862C52.2236 27.4489 52.5817 26.5844 52.5817 25.683ZM45 25.683C45 24.5736 45.4407 23.5096 46.2252 22.7252C47.0096 21.9407 48.0736 21.5 49.183 21.5C50.2924 21.5 51.3564 21.9407 52.1408 22.7252C52.9253 23.5096 53.366 24.5736 53.366 25.683C53.366 26.7924 52.9253 27.8564 52.1408 28.6408C51.3564 29.4253 50.2924 29.866 49.183 29.866C48.0736 29.866 47.0096 29.4253 46.2252 28.6408C45.4407 27.8564 45 26.7924 45 25.683Z" fill="#CAD5E2" stroke="#CAD5E2"/>
<g clip-path="url(#clip0_1540_571)">
<path fill-rule="evenodd" clip-rule="evenodd" d="M119 32.877C122.866 32.877 126 36.011 126 39.877C126 43.7429 122.866 46.877 119 46.877H183C186.866 46.877 190 50.011 190 53.877C190 57.7429 186.866 60.877 183 60.877H205C208.866 60.877 212 64.011 212 67.877C212 71.7429 208.866 74.877 205 74.877H186C182.134 74.877 179 78.011 179 81.877C179 85.7429 182.134 88.877 186 88.877H192C195.866 88.877 199 92.011 199 95.877C199 99.7429 195.866 102.877 192 102.877H140C139.485 102.877 138.983 102.821 138.5 102.716C138.017 102.821 137.515 102.877 137 102.877H46C42.134 102.877 39 99.7429 39 95.877C39 92.011 42.134 88.877 46 88.877H7C3.13401 88.877 0 85.7429 0 81.877C0 78.011 3.13401 74.877 7 74.877H47C50.866 74.877 54 71.7429 54 67.877C54 64.011 50.866 60.877 47 60.877H22C18.134 60.877 15 57.7429 15 53.877C15 50.011 18.134 46.877 22 46.877H62C58.134 46.877 55 43.7429 55 39.877C55 36.011 58.134 32.877 62 32.877H119ZM209 88.877C212.866 88.877 216 92.011 216 95.877C216 99.7429 212.866 102.877 209 102.877C205.134 102.877 202 99.7429 202 95.877C202 92.011 205.134 88.877 209 88.877Z" fill="#F1F5F9"/>
<path d="M170.582 86.683C170.582 85.7816 170.224 84.9171 169.586 84.2798C168.949 83.6424 168.084 83.2843 167.183 83.2843C166.282 83.2843 165.417 83.6424 164.78 84.2798C164.142 84.9171 163.784 85.7816 163.784 86.683C163.784 87.5844 164.142 88.4489 164.78 89.0862C165.417 89.7236 166.282 90.0817 167.183 90.0817C168.084 90.0817 168.949 89.7236 169.586 89.0862C170.224 88.4489 170.582 87.5844 170.582 86.683ZM163 86.683C163 85.5736 163.441 84.5096 164.225 83.7252C165.01 82.9407 166.074 82.5 167.183 82.5C168.292 82.5 169.356 82.9407 170.141 83.7252C170.925 84.5096 171.366 85.5736 171.366 86.683C171.366 87.7924 170.925 88.8564 170.141 89.6408C169.356 90.4253 168.292 90.866 167.183 90.866C166.074 90.866 165.01 90.4253 164.225 89.6408C163.441 88.8564 163 87.7924 163 86.683Z" fill="#CAD5E2" stroke="#CAD5E2"/>
<path d="M55.5817 94.683C55.5817 93.7816 55.2236 92.9171 54.5862 92.2798C53.9489 91.6424 53.0844 91.2843 52.183 91.2843C51.2816 91.2843 50.4171 91.6424 49.7798 92.2798C49.1424 92.9171 48.7843 93.7816 48.7843 94.683C48.7843 95.5844 49.1424 96.4489 49.7798 97.0862C50.4171 97.7236 51.2816 98.0817 52.183 98.0817C53.0844 98.0817 53.9489 97.7236 54.5862 97.0862C55.2236 96.4489 55.5817 95.5844 55.5817 94.683ZM48 94.683C48 93.5736 48.4407 92.5096 49.2252 91.7252C50.0096 90.9407 51.0736 90.5 52.183 90.5C53.2924 90.5 54.3564 90.9407 55.1408 91.7252C55.9253 92.5096 56.366 93.5736 56.366 94.683C56.366 95.7924 55.9253 96.8564 55.1408 97.6408C54.3564 98.4253 53.2924 98.866 52.183 98.866C51.0736 98.866 50.0096 98.4253 49.2252 97.6408C48.4407 96.8564 48 95.7924 48 94.683Z" fill="#CAD5E2" stroke="#CAD5E2"/>
<path d="M54.0788 51.9576C53.9737 51.8526 53.9737 51.6827 54.0788 51.5788C54.1838 51.4749 54.3537 51.4737 54.4576 51.5788L56.145 53.2662L57.8324 51.5788C57.9374 51.4737 58.1073 51.4737 58.2112 51.5788C58.3151 51.6838 58.3163 51.8537 58.2112 51.9576L56.5238 53.645L58.2112 55.3324C58.3163 55.4374 58.3163 55.6073 58.2112 55.7112C58.1062 55.8151 57.9363 55.8163 57.8324 55.7112L56.145 54.0238L54.4576 55.7112C54.3526 55.8163 54.1827 55.8163 54.0788 55.7112C53.9749 55.6062 53.9737 55.4363 54.0788 55.3324L55.7662 53.645L54.0788 51.9576Z" fill="black" stroke="#CAD5E2"/>
<path d="M159.079 49.9576C158.974 49.8526 158.974 49.6827 159.079 49.5788C159.184 49.4749 159.354 49.4737 159.458 49.5788L161.145 51.2662L162.832 49.5788C162.937 49.4737 163.107 49.4737 163.211 49.5788C163.315 49.6838 163.316 49.8537 163.211 49.9576L161.524 51.645L163.211 53.3324C163.316 53.4374 163.316 53.6073 163.211 53.7112C163.106 53.8151 162.936 53.8163 162.832 53.7112L161.145 52.0238L159.458 53.7112C159.353 53.8163 159.183 53.8163 159.079 53.7112C158.975 53.6062 158.974 53.4363 159.079 53.3324L160.766 51.645L159.079 49.9576Z" fill="black" stroke="#CAD5E2"/>
<path d="M72.0788 90.9576C71.9737 90.8526 71.9737 90.6827 72.0788 90.5788C72.1838 90.4749 72.3537 90.4737 72.4576 90.5788L74.145 92.2662L75.8324 90.5788C75.9374 90.4737 76.1073 90.4737 76.2112 90.5788C76.3151 90.6838 76.3163 90.8537 76.2112 90.9576L74.5238 92.645L76.2112 94.3324C76.3163 94.4374 76.3163 94.6073 76.2112 94.7112C76.1062 94.8151 75.9363 94.8163 75.8324 94.7112L74.145 93.0238L72.4576 94.7112C72.3526 94.8163 72.1827 94.8163 72.0788 94.7112C71.9749 94.6062 71.9737 94.4363 72.0788 94.3324L73.7662 92.645L72.0788 90.9576Z" fill="black" stroke="#CAD5E2"/>
</g>
<path fill-rule="evenodd" clip-rule="evenodd" d="M99.1186 55.8066C99.0404 56.3599 99 56.9252 99 57.5C99 64.1274 104.373 69.5 111 69.5C117.627 69.5 123 64.1274 123 57.5C123 56.9252 122.96 56.3599 122.881 55.8066H152V82.5C152 84.1569 150.657 85.5 149 85.5H73C71.3431 85.5 70 84.1569 70 82.5V55.8066H99.1186Z" fill="white"/>
<path fill-rule="evenodd" clip-rule="evenodd" d="M124 55.5C124 62.6797 118.18 68.5 111 68.5C103.82 68.5 98 62.6797 98 55.5C98 55.2674 98.0061 55.0362 98.0182 54.8066H70L79.5604 26.5389C79.9726 25.3202 81.1159 24.5 82.4023 24.5H139.598C140.884 24.5 142.027 25.3202 142.44 26.5389L152 54.8066H123.982C123.994 55.0362 124 55.2674 124 55.5Z" fill="white"/>
<path fill-rule="evenodd" clip-rule="evenodd" d="M122.098 56.4545C122.098 62.0025 117.129 67.5 111 67.5C104.871 67.5 99.9024 62.0025 99.9024 56.4545C99.9024 56.2748 99.9077 55.0962 99.918 54.9188H79L87.1614 35.0755C87.5132 34.1338 88.4891 33.5 89.5873 33.5H132.413C133.511 33.5 134.487 34.1338 134.839 35.0755L143 54.9188H122.082C122.092 55.0962 122.098 56.2748 122.098 56.4545Z" fill="#F1F5F9"/>
<path fill-rule="evenodd" clip-rule="evenodd" d="M71.25 55.0123V81.5C71.25 82.4665 72.0335 83.25 73 83.25H149C149.966 83.25 150.75 82.4665 150.75 81.5V55.0123L141.255 26.9393C141.015 26.2285 140.348 25.75 139.598 25.75H82.4023C81.6519 25.75 80.985 26.2285 80.7446 26.9393L71.25 55.0123Z" stroke="#CAD5E2" stroke-width="2.5"/>
<path d="M84 54.5C87.9366 54.5 92.1849 54.5 96.7449 54.5C98.6212 54.5 98.6212 55.8186 98.6212 56.5C98.6212 63.1274 104.117 68.5 110.897 68.5C117.677 68.5 123.173 63.1274 123.173 56.5C123.173 55.8186 123.173 54.5 125.05 54.5H150M76.5737 54.5H79H76.5737Z" stroke="#CAD5E2" stroke-width="2.5" stroke-linecap="round" stroke-linejoin="round"/>
<path d="M95.6802 42.9164C95.3389 43.3506 95.4144 43.9793 95.8487 44.3205C96.2829 44.6617 96.9116 44.5863 97.2528 44.152L96.4665 43.5342L95.6802 42.9164ZM96.4665 13.5342L97.3609 13.087L96.4665 13.5342ZM151.318 14.2653C151.721 14.6421 152.354 14.6203 152.731 14.2165C153.108 13.8128 153.086 13.18 152.682 12.8032L152 13.5342L151.318 14.2653ZM99.0741 41.7958C99.4096 41.3571 99.326 40.7295 98.8874 40.3939C98.4487 40.0584 97.8211 40.142 97.4855 40.5806L98.2798 41.1882L99.0741 41.7958ZM101.039 35.8461C100.712 36.291 100.807 36.9169 101.252 37.2442C101.697 37.5714 102.323 37.476 102.65 37.0311L101.845 36.4386L101.039 35.8461ZM106.125 32.179C106.44 31.7251 106.327 31.1021 105.873 30.7875C105.419 30.4728 104.796 30.5857 104.481 31.0396L105.303 31.6093L106.125 32.179ZM107.699 26.1251C107.414 26.5986 107.568 27.2129 108.041 27.4971C108.515 27.7813 109.129 27.6278 109.413 27.1543L108.556 26.6397L107.699 26.1251ZM111.719 21.3931C111.799 20.8466 111.421 20.3387 110.875 20.2586C110.328 20.1785 109.82 20.5566 109.74 21.103L110.729 21.248L111.719 21.3931ZM109.707 15.5946C109.781 16.1419 110.284 16.5258 110.831 16.452C111.379 16.3782 111.763 15.8747 111.689 15.3273L110.698 15.461L109.707 15.5946ZM110.118 9.47621C109.899 8.96925 109.31 8.7359 108.803 8.95501C108.296 9.17412 108.063 9.76272 108.282 10.2697L109.2 9.87294L110.118 9.47621ZM105.182 6.18756C105.65 6.48107 106.267 6.33974 106.56 5.8719C106.854 5.40406 106.712 4.78687 106.245 4.49336L105.713 5.34046L105.182 6.18756ZM101.002 3.59403C100.45 3.63046 100.033 4.10673 100.07 4.65781C100.106 5.20889 100.582 5.6261 101.133 5.58967L101.068 4.59185L101.002 3.59403ZM97.7419 6.24958C98.2514 6.0364 98.4916 5.45057 98.2784 4.94108C98.0652 4.4316 97.4794 4.1914 96.9699 4.40458L97.3559 5.32708L97.7419 6.24958ZM94.0493 7.95802C93.9739 8.50514 94.3564 9.00974 94.9035 9.08506C95.4506 9.16038 95.9552 8.77791 96.0306 8.23079L95.0399 8.0944L94.0493 7.95802ZM96.6236 11.4373C96.4245 10.9222 95.8455 10.666 95.3304 10.8651C94.8152 11.0642 94.559 11.6432 94.7581 12.1583L95.6908 11.7978L96.6236 11.4373ZM96.9964 16.2852C97.3307 16.7248 97.9581 16.8103 98.3977 16.476C98.8374 16.1417 98.9228 15.5144 98.5885 15.0747L97.7925 15.68L96.9964 16.2852ZM102.077 18.0283C101.588 17.7718 100.984 17.9604 100.727 18.4496C100.471 18.9387 100.659 19.5431 101.149 19.7996L101.613 18.914L102.077 18.0283ZM106.262 21.3944C106.808 21.4765 107.317 21.1004 107.399 20.5542C107.482 20.0081 107.105 19.4988 106.559 19.4166L106.411 20.4055L106.262 21.3944ZM111.42 19.662C110.868 19.6763 110.432 20.1354 110.446 20.6875C110.46 21.2396 110.92 21.6756 111.472 21.6613L111.446 20.6617L111.42 19.662ZM116.495 21.3606C117.046 21.319 117.459 20.8389 117.417 20.2882C117.375 19.7375 116.895 19.3247 116.344 19.3663L116.42 20.3635L116.495 21.3606ZM120.812 18.4371C120.302 18.6485 120.06 19.2335 120.271 19.7437C120.483 20.2539 121.068 20.4961 121.578 20.2847L121.195 19.3609L120.812 18.4371ZM126.058 18.0116C126.541 17.7444 126.716 17.136 126.449 16.6526C126.182 16.1693 125.573 15.9941 125.09 16.2613L125.574 17.1365L126.058 18.0116ZM129.367 13.8651C128.886 14.1358 128.715 14.7455 128.985 15.2269C129.256 15.7083 129.866 15.8791 130.347 15.6085L129.857 14.7368L129.367 13.8651ZM134.783 13.2532C135.287 13.0287 135.514 12.4376 135.29 11.933C135.065 11.4284 134.474 11.2014 133.97 11.4258L134.376 12.3395L134.783 13.2532ZM139.248 9.75234C138.705 9.8533 138.347 10.3753 138.448 10.9183C138.549 11.4613 139.071 11.8196 139.614 11.7186L139.431 10.7355L139.248 9.75234ZM144.604 11.5349C145.153 11.6018 145.651 11.2115 145.718 10.6633C145.785 10.115 145.395 9.61645 144.846 9.54963L144.725 10.5423L144.604 11.5349ZM150.245 11.1875C149.754 10.9351 149.151 11.1288 148.898 11.6201C148.646 12.1113 148.84 12.7141 149.331 12.9665L149.788 12.077L150.245 11.1875ZM96.4665 43.5342C97.2528 44.152 97.2528 44.152 97.2528 44.152C97.2528 44.152 97.2528 44.1519 97.2529 44.1519C97.2529 44.1519 97.2529 44.1518 97.253 44.1518C97.2531 44.1516 97.2532 44.1515 97.2534 44.1512C97.2538 44.1507 97.2543 44.15 97.2551 44.1491C97.2565 44.1473 97.2586 44.1446 97.2615 44.141C97.2671 44.1338 97.2754 44.1232 97.2863 44.1093C97.3082 44.0813 97.3406 44.04 97.3828 43.9859C97.4673 43.8778 97.5913 43.7188 97.7497 43.5147C98.0666 43.1067 98.5214 42.5182 99.0741 41.7958L98.2798 41.1882L97.4855 40.5806C96.9362 41.2988 96.4843 41.8834 96.17 42.2881C96.0129 42.4905 95.8902 42.6479 95.8069 42.7545C95.7652 42.8078 95.7334 42.8485 95.7121 42.8757C95.7014 42.8893 95.6934 42.8995 95.688 42.9063C95.6853 42.9098 95.6833 42.9123 95.682 42.914C95.6814 42.9148 95.6809 42.9154 95.6806 42.9158C95.6804 42.916 95.6803 42.9162 95.6802 42.9163C95.6802 42.9163 95.6802 42.9163 95.6802 42.9163C95.6802 42.9164 95.6802 42.9164 95.6802 42.9164C95.6802 42.9164 95.6802 42.9164 96.4665 43.5342ZM101.845 36.4386L102.65 37.0311C103.79 35.4823 104.991 33.8152 106.125 32.179L105.303 31.6093L104.481 31.0396C103.361 32.6562 102.171 34.3075 101.039 35.8461L101.845 36.4386ZM108.556 26.6397L109.413 27.1543C110.013 26.1551 110.52 25.2321 110.877 24.448L109.966 24.0342L109.056 23.6204C108.745 24.3057 108.281 25.1554 107.699 26.1251L108.556 26.6397ZM109.966 24.0342L110.877 24.448C111.28 23.56 111.555 22.5136 111.719 21.3931L110.729 21.248L109.74 21.103C109.595 22.0959 109.361 22.9496 109.056 23.6204L109.966 24.0342ZM110.698 15.461L111.689 15.3273C111.417 13.3108 110.895 11.2741 110.118 9.47621L109.2 9.87294L108.282 10.2697C108.975 11.8721 109.455 13.7269 109.707 15.5946L110.698 15.461ZM105.713 5.34046L106.245 4.49336C105.278 3.8867 104.179 3.53418 102.966 3.53418V4.53418V5.53418C103.773 5.53418 104.507 5.76419 105.182 6.18756L105.713 5.34046ZM102.966 4.53418V3.53418C102.278 3.53418 101.622 3.553 101.002 3.59403L101.068 4.59185L101.133 5.58967C101.703 5.55205 102.314 5.53418 102.966 5.53418V4.53418ZM97.3559 5.32708L96.9699 4.40458C95.387 5.06688 94.2899 6.20972 94.0493 7.95802L95.0399 8.0944L96.0306 8.23079C96.1544 7.3313 96.6616 6.7016 97.7419 6.24958L97.3559 5.32708ZM95.6908 11.7978L94.7581 12.1583C94.9804 12.7337 95.2518 13.3409 95.572 13.9814L96.4665 13.5342L97.3609 13.087C97.0642 12.4936 96.8196 11.9446 96.6236 11.4373L95.6908 11.7978ZM96.4665 13.5342L95.572 13.9814C95.9967 14.8308 96.4729 15.5966 96.9964 16.2852L97.7925 15.68L98.5885 15.0747C98.1442 14.4904 97.733 13.8311 97.3609 13.087L96.4665 13.5342ZM101.613 18.914L101.149 19.7996C102.739 20.6336 104.472 21.1252 106.262 21.3944L106.411 20.4055L106.559 19.4166C104.932 19.1719 103.425 18.7349 102.077 18.0283L101.613 18.914ZM111.446 20.6617L111.472 21.6613C112.327 21.6392 113.184 21.5926 114.038 21.5316L113.966 20.5342L113.895 19.5367C113.064 19.5961 112.237 19.6408 111.42 19.662L111.446 20.6617ZM113.966 20.5342L114.038 21.5316C114.978 21.4645 115.799 21.4132 116.495 21.3606L116.42 20.3635L116.344 19.3663C115.645 19.4191 114.869 19.4672 113.895 19.5367L113.966 20.5342ZM121.195 19.3609L121.578 20.2847C122.745 19.8009 124.118 19.0841 126.058 18.0116L125.574 17.1365L125.09 16.2613C123.149 17.3342 121.865 18.0009 120.812 18.4371L121.195 19.3609ZM129.857 14.7368L130.347 15.6085C131.012 15.2345 131.724 14.8345 132.489 14.4066L132 13.5341L131.511 12.6616C130.746 13.0903 130.033 13.4909 129.367 13.8651L129.857 14.7368ZM132 13.5341L132.489 14.4066C133.276 13.9655 134.041 13.5831 134.783 13.2532L134.376 12.3395L133.97 11.4258C133.17 11.7815 132.351 12.1916 131.511 12.6616L132 13.5341ZM139.431 10.7355L139.614 11.7186C141.491 11.3697 143.159 11.3588 144.604 11.5349L144.725 10.5423L144.846 9.54963C143.204 9.34947 141.331 9.36511 139.248 9.75234L139.431 10.7355ZM149.788 12.077L149.331 12.9665C150.003 13.3118 150.512 13.6478 150.848 13.8924C151.015 14.0147 151.139 14.1139 151.218 14.1796C151.257 14.2124 151.286 14.2368 151.302 14.2516C151.311 14.2589 151.316 14.2639 151.319 14.2662C151.32 14.2674 151.32 14.2679 151.32 14.2677C151.32 14.2677 151.32 14.2674 151.32 14.267C151.319 14.2668 151.319 14.2666 151.319 14.2663C151.319 14.2661 151.318 14.266 151.318 14.2658C151.318 14.2657 151.318 14.2656 151.318 14.2655C151.318 14.2654 151.318 14.2653 152 13.5342C152.682 12.8032 152.682 12.803 152.682 12.8029C152.682 12.8028 152.682 12.8027 152.682 12.8026C152.681 12.8024 152.681 12.8021 152.681 12.8019C152.68 12.8014 152.68 12.8009 152.679 12.8004C152.678 12.7993 152.677 12.798 152.675 12.7965C152.672 12.7937 152.668 12.7901 152.663 12.7858C152.654 12.7774 152.642 12.7662 152.626 12.7526C152.596 12.7254 152.553 12.6883 152.498 12.6426C152.388 12.5513 152.23 12.4256 152.026 12.2765C151.617 11.9785 151.02 11.5859 150.245 11.1875L149.788 12.077Z" fill="#CAD5E2"/>
<g clip-path="url(#clip1_1540_571)">
<path opacity="0.4" d="M165.904 13.2171L163.728 12.0438C162.029 11.1275 159.868 11.7412 158.55 13.3945C158.434 13.5409 158.262 13.6141 158.097 13.5865C157.932 13.5589 157.808 13.4378 157.768 13.265L157.49 12.0541C157.41 11.7003 157.198 11.4091 156.899 11.2482L156.735 11.1778C156.342 11.0414 155.883 11.1259 155.51 11.4193L155.084 11.7526L154.946 11.8733C154.815 12.0007 154.701 12.1525 154.612 12.3174C154.282 12.9297 154.33 13.6595 154.735 14.1266L154.982 14.4115L155.155 14.6058C155.57 15.0423 156.044 15.4098 156.569 15.6933L158.3 16.6267C158.31 16.6319 158.321 16.6344 158.332 16.6369C160.98 17.9709 164.391 16.66 166.009 13.66C166.098 13.495 166.053 13.2976 165.909 13.2198L165.904 13.2171ZM157.724 17.4671L156.086 16.5838C155.487 16.2608 154.83 16.051 154.144 15.9591L153.77 15.9091L153.656 15.8981C153.08 15.8725 152.502 16.2247 152.193 16.7979L152.111 16.9668C152.041 17.1382 151.997 17.32 151.98 17.5024L151.936 18.0414L151.932 18.2415C151.951 18.6341 152.124 18.9801 152.407 19.1979L152.556 19.2962C152.818 19.4373 153.125 19.4696 153.427 19.3904L153.557 19.3486L154.723 18.9127C154.889 18.8506 155.06 18.8891 155.172 19.0105C155.283 19.1318 155.319 19.3171 155.26 19.4951C154.601 21.5072 155.278 23.6474 156.977 24.5637L159.152 25.737L159.209 25.7604C159.325 25.7907 159.452 25.7434 159.537 25.6378L159.575 25.5789C161.214 22.5398 160.386 18.9028 157.724 17.4671Z" fill="#F1F5F9"/>
<path d="M160.283 26.1266C159.905 26.6987 159.207 26.9285 158.667 26.6372L156.491 25.4638C154.655 24.4737 153.801 22.3131 154.18 20.1287L153.769 20.2823L153.551 20.3526C153.04 20.488 152.519 20.4348 152.077 20.1962L151.945 20.1181C151.349 19.7316 151 19.0272 151.014 18.2407L151.023 18.0722L151.067 17.5333C151.097 17.185 151.188 16.8407 151.343 16.5196L151.412 16.3841C151.916 15.4503 152.86 14.8765 153.797 14.9166L153.984 14.934L154.123 14.9513L154.032 14.8446C153.376 14.083 153.294 12.8948 153.832 11.8967C154.003 11.5808 154.226 11.3008 154.489 11.0708L154.605 10.9741L155.03 10.6408C155.707 10.1109 156.551 9.981 157.247 10.2878L157.384 10.3547C157.89 10.6276 158.251 11.1179 158.39 11.7199L158.487 12.1478C160.102 10.6292 162.375 10.1589 164.211 11.149L166.387 12.3223L166.491 12.3859C166.984 12.7309 167.12 13.4612 166.787 14.0791C165.326 16.7883 162.604 18.3124 160.021 18.1284C161.594 20.1856 161.816 23.2971 160.355 26.0063L160.283 26.1266ZM166.004 13.6572C166.093 13.4923 166.048 13.2948 165.904 13.217L163.728 12.0436C162.029 11.1274 159.868 11.7411 158.55 13.3944C158.434 13.5407 158.262 13.614 158.097 13.5863C157.932 13.5587 157.808 13.4377 157.768 13.2649L157.49 12.054C157.41 11.7002 157.198 11.4089 156.899 11.2481L156.735 11.1777C156.342 11.0413 155.883 11.1258 155.51 11.4192L155.084 11.7525L154.946 11.8731C154.815 12.0005 154.701 12.1523 154.612 12.3173C154.282 12.9296 154.33 13.6593 154.735 14.1265L154.982 14.4113L155.155 14.6056C155.57 15.0422 156.044 15.4097 156.569 15.6931L158.3 16.6265C158.31 16.6318 158.321 16.6343 158.332 16.6367C160.98 17.9708 164.391 16.6598 166.009 13.6598L166.004 13.6572ZM159.571 25.5872C161.214 22.5397 160.386 18.9027 157.724 17.467L156.086 16.5837C155.487 16.2607 154.83 16.0508 154.144 15.9589L153.77 15.9089L153.656 15.898C153.08 15.8723 152.502 16.2246 152.193 16.7977L152.111 16.9666C152.041 17.138 151.997 17.3198 151.98 17.5023L151.936 18.0413L151.932 18.2413C151.951 18.6339 152.124 18.9799 152.407 19.1977L152.556 19.2961C152.818 19.4371 153.125 19.4695 153.427 19.3903L153.557 19.3484L154.722 18.9125C154.889 18.8505 155.06 18.889 155.172 19.0103C155.283 19.1317 155.319 19.317 155.26 19.495C154.601 21.507 155.277 23.6473 156.977 24.5635L159.152 25.7369L159.209 25.7603C159.325 25.7905 159.452 25.7432 159.537 25.6377L159.575 25.5788L159.571 25.5872Z" fill="#CAD5E2" stroke="#CAD5E2" stroke-width="0.5"/>
</g>
<path d="M123.079 0.957607C122.974 0.852564 122.974 0.682708 123.079 0.578782C123.184 0.474857 123.354 0.473739 123.458 0.578782L125.145 2.26617L126.832 0.578782C126.937 0.473739 127.107 0.473739 127.211 0.578782C127.315 0.683825 127.316 0.853682 127.211 0.957607L125.524 2.645L127.211 4.33239C127.316 4.43744 127.316 4.60729 127.211 4.71122C127.106 4.81514 126.936 4.81626 126.832 4.71122L125.145 3.02383L123.458 4.71122C123.353 4.81626 123.183 4.81626 123.079 4.71122C122.975 4.60617 122.974 4.43632 123.079 4.33239L124.766 2.645L123.079 0.957607Z" fill="black" stroke="#CAD5E2"/>
<defs>
<clipPath id="clip0_1540_571">
<rect width="216" height="70" fill="white" transform="translate(0 32.877)"/>
</clipPath>
<clipPath id="clip1_1540_571">
<rect width="19.4402" height="16.9985" fill="white" transform="translate(170.189 12.5684) rotate(118.337)"/>
</clipPath>
</defs>
</svg>
