<svg width="167" height="100" viewBox="0 0 167 100" fill="none" xmlns="http://www.w3.org/2000/svg">
<path fill-rule="evenodd" clip-rule="evenodd" d="M160 30C163.866 30 167 33.134 167 37C167 40.866 163.866 44 160 44H120C123.866 44 127 47.134 127 51C127 54.866 123.866 58 120 58H142C145.866 58 149 61.134 149 65C149 68.866 145.866 72 142 72H131.826C126.952 72 123 75.134 123 79C123 81.5773 125 83.9107 129 86C132.866 86 136 89.134 136 93C136 96.866 132.866 100 129 100H46C42.134 100 39 96.866 39 93C39 89.134 42.134 86 46 86H7C3.13401 86 0 82.866 0 79C0 75.134 3.13401 72 7 72H47C50.866 72 54 68.866 54 65C54 61.134 50.866 58 47 58H22C18.134 58 15 54.866 15 51C15 47.134 18.134 44 22 44H62C58.134 44 55 40.866 55 37C55 33.134 58.134 30 62 30H160ZM160 58C163.866 58 167 61.134 167 65C167 68.866 163.866 72 160 72C156.134 72 153 68.866 153 65C153 61.134 156.134 58 160 58Z" fill="#F1F5F9"/>
<path d="M51.9998 35C51.9998 31.6863 54.686 29 57.9998 29H102.571C105.885 29 108.571 31.6863 108.571 35V65.4C108.571 68.7137 105.885 71.4 102.571 71.4H57.9998C54.686 71.4 51.9998 68.7137 51.9998 65.4V35Z" fill="white" stroke="white" stroke-width="2" stroke-linejoin="round"/>
<path d="M57.2499 71.4C54.3503 71.4 51.9998 69.0494 51.9998 66.1498V35C51.9998 31.6863 54.686 29 57.9998 29H103.48C106.292 29 108.571 31.2793 108.571 34.0909" stroke="#CAD5E2" stroke-width="2" stroke-linecap="round" stroke-linejoin="round"/>
<path d="M108.571 37.9092V65.4C108.571 68.7138 105.885 71.4001 102.571 71.4001H62.5" stroke="#CAD5E2" stroke-width="2" stroke-linejoin="round"/>
<path d="M61.4279 42.9995C61.4279 39.6858 64.1141 36.9995 67.4279 36.9995H111.999C115.313 36.9995 117.999 39.6858 117.999 42.9995V73.3995C117.999 76.7132 115.313 79.3995 111.999 79.3995H67.4279C64.1141 79.3995 61.4279 76.7132 61.4279 73.3995V42.9995Z" fill="white"/>
<path d="M117.999 65V42.9995C117.999 39.6858 115.313 36.9995 111.999 36.9995H67.4279C64.1141 36.9995 61.4279 39.6858 61.4279 42.9995V73.3995C61.4279 76.7132 64.1141 79.3995 67.4279 79.3995H111.999C115.313 79.3995 117.999 76.7132 117.999 73.3995V72.1997V71" stroke="#CAD5E2" stroke-width="2" stroke-linecap="round" stroke-linejoin="round"/>
<path d="M75.5148 71.6329C75.9834 71.6329 76.3668 71.2495 76.3668 70.7808V69.9288C76.3668 65.695 79.8018 62.2601 84.0355 62.2601H87.4438C91.6775 62.2601 95.1124 65.695 95.1124 69.9288V70.7808C95.1124 71.2495 95.4958 71.6329 95.9645 71.6329H75.5148ZM90.8521 51.1832C90.8521 52.5391 90.3134 53.8395 89.3547 54.7982C88.3959 55.757 87.0955 56.2956 85.7396 56.2956C84.3837 56.2956 83.0834 55.757 82.1246 54.7982C81.1658 53.8395 80.6272 52.5391 80.6272 51.1832C80.6272 49.8273 81.1658 48.527 82.1246 47.5682C83.0834 46.6094 84.3837 46.0708 85.7396 46.0708C87.0955 46.0708 88.3959 46.6094 89.3547 47.5682C90.3134 48.527 90.8521 49.8273 90.8521 51.1832Z" fill="#F1F5F9"/>
<path d="M85.7396 56.2957C86.411 56.2957 87.0758 56.1635 87.6961 55.9065C88.3163 55.6496 88.8799 55.273 89.3547 54.7983C89.8294 54.3236 90.206 53.76 90.4629 53.1397C90.7198 52.5194 90.8521 51.8546 90.8521 51.1833C90.8521 50.5119 90.7198 49.8471 90.4629 49.2268C90.206 48.6066 89.8294 48.043 89.3547 47.5682C88.8799 47.0935 88.3163 46.7169 87.6961 46.46C87.0758 46.2031 86.411 46.0708 85.7396 46.0708C85.0683 46.0708 84.4035 46.2031 83.7832 46.46C83.1629 46.7169 82.5993 47.0935 82.1246 47.5682C81.6499 48.043 81.2733 48.6066 81.0164 49.2268C80.7595 49.8471 80.6272 50.5119 80.6272 51.1833C80.6272 51.8546 80.7595 52.5194 81.0164 53.1397C81.2733 53.76 81.6499 54.3236 82.1246 54.7983C82.5993 55.273 83.1629 55.6496 83.7832 55.9065C84.4035 56.1635 85.0683 56.2957 85.7396 56.2957ZM85.7396 44.3667C87.5475 44.3667 89.2813 45.0849 90.5597 46.3632C91.838 47.6416 92.5562 49.3754 92.5562 51.1833C92.5562 52.9911 91.838 54.725 90.5597 56.0033C89.2813 57.2817 87.5475 57.9998 85.7396 57.9998C83.9318 57.9998 82.198 57.2817 80.9196 56.0033C79.6412 54.725 78.9231 52.9911 78.9231 51.1833C78.9231 49.3754 79.6412 47.6416 80.9196 46.3632C82.198 45.0849 83.9318 44.3667 85.7396 44.3667ZM84.0355 62.2602C79.8018 62.2602 76.3669 65.6951 76.3669 69.9288V70.7809C76.3669 71.2496 75.9834 71.633 75.5148 71.633C75.0462 71.633 74.6627 71.2496 74.6627 70.7809V69.9288C74.6627 64.7525 78.8592 60.5561 84.0355 60.5561H87.4438C92.6201 60.5561 96.8166 64.7525 96.8166 69.9288V70.7809C96.8166 71.2496 96.4331 71.633 95.9645 71.633C95.4959 71.633 95.1124 71.2496 95.1124 70.7809V69.9288C95.1124 65.6951 91.6775 62.2602 87.4438 62.2602H84.0355ZM92.945 57.1797C93.3071 56.743 93.6373 56.2691 93.9142 55.7738C94.5213 56.1093 95.2189 56.301 95.9645 56.301C98.3183 56.301 100.225 54.3945 100.225 52.0407C100.225 49.6868 98.3183 47.7803 95.9645 47.7803C95.4745 47.7803 95.0006 47.8655 94.5639 48.0146C94.3669 47.4714 94.1272 46.9549 93.8396 46.4649C94.5 46.2146 95.2189 46.0762 95.9645 46.0762C99.2609 46.0762 101.929 48.7442 101.929 52.0407C101.929 55.3371 99.2609 57.9998 95.9645 57.9998C94.8621 57.9998 93.829 57.7016 92.945 57.1797ZM97.3172 63.2294C96.8698 62.5744 96.3586 61.962 95.7941 61.4081H95.9645C101.141 61.4081 105.337 65.6046 105.337 70.7809C105.337 71.2496 104.954 71.633 104.485 71.633C104.017 71.633 103.633 71.2496 103.633 70.7809C103.633 67.0052 100.907 63.8685 97.3172 63.2294Z" fill="#CAD5E2"/>
<circle cx="61" cy="35" r="13" fill="white" stroke="white" stroke-width="2"/>
<path d="M48.153 37C49.115 43.2302 54.5005 48 61.0001 48C68.1798 48 74.0001 42.1797 74.0001 35C74.0001 27.8203 68.1798 22 61.0001 22C58.6322 22 56.4122 22.3939 54.5001 23.5" stroke="#CAD5E2" stroke-width="2" stroke-linecap="round"/>
<path d="M48.1529 37C48.0522 36.3481 48 35.6801 48 35C48 34.3199 48.0522 33.6519 48.1529 33" stroke="#CAD5E2" stroke-width="2" stroke-linecap="round"/>
<path d="M48.153 33C48.598 30.118 49.9895 27.5485 52.0001 25.6191" stroke="#CAD5E2" stroke-width="2" stroke-linecap="round"/>
<path d="M59.5 28.5C59.5 27.6716 60.1716 27 61 27C61.8284 27 62.5 27.6716 62.5 28.5V34.5C62.5 35.3284 61.8284 36 61 36C60.1716 36 59.5 35.3284 59.5 34.5V28.5Z" stroke="#CAD5E2" stroke-width="1.5" stroke-linejoin="round"/>
<path d="M59.5 41.5C59.5 42.3284 60.1716 43 61 43C61.8284 43 62.5 42.3284 62.5 41.5C62.5 40.6716 61.8284 40 61 40C60.1716 40 59.5 40.6716 59.5 41.5Z" stroke="#CAD5E2" stroke-width="1.5" stroke-linejoin="round"/>
<path d="M113 15C114.657 15 116 13.6569 116 12C116 10.3431 114.657 9 113 9C111.343 9 110 10.3431 110 12C110 13.6569 111.343 15 113 15Z" stroke="#CAD5E2" stroke-width="1.5"/>
<path d="M144 31C145.657 31 147 29.6569 147 28C147 26.3431 145.657 25 144 25C142.343 25 141 26.3431 141 28C141 29.6569 142.343 31 144 31Z" fill="#CAD5E2"/>
<path d="M120.757 22.7573L129.116 31.1156M129.243 22.7573L120.884 31.1156L129.243 22.7573Z" stroke="#CAD5E2" stroke-width="1.5" stroke-linecap="round" stroke-linejoin="round"/>
<path d="M31 74.5962L37 80.5962M37 74.5962L31 80.5962L37 74.5962Z" stroke="#CAD5E2" stroke-width="2.5" stroke-linecap="round" stroke-linejoin="round"/>
<path d="M44.5962 62.5C45.9769 62.5 47.0962 63.6193 47.0962 65C47.0962 66.3807 45.9769 67.5 44.5962 67.5C43.2155 67.5 42.0962 66.3807 42.0962 65C42.0962 63.6193 43.2155 62.5 44.5962 62.5Z" fill="white" stroke="#CAD5E2"/>
</svg>
