<svg width="96" xmlns="http://www.w3.org/2000/svg" viewBox="-50 -50 612 612" height="96"><path opacity=".4" fill="#000000" d="M32 122.5c0 8.4 4 16.4 10.8 21.4L227.6 279.3c16.9 12.4 39.9 12.4 56.8 0L469.2 143.8c6.8-5 10.8-12.9 10.8-21.4 0-14.6-11.9-26.5-26.5-26.5l-395 0C43.9 96 32 107.9 32 122.5zm0 53.1L32 384c0 17.7 14.3 32 32 32l384 0c17.7 0 32-14.3 32-32l0-208.4-176.7 129.6c-28.2 20.6-66.5 20.6-94.6 0L32 175.6z"/><path fill="#000000" d="M0 122.5l0-2.5 .1 0C1.3 88.9 27 64 58.5 64l395 0c31.5 0 57.1 24.9 58.4 56l.1 0 0 264c0 35.3-28.7 64-64 64L64 448c-35.3 0-64-28.7-64-64L0 122.5zm480 53.1L303.3 305.1c-28.2 20.6-66.5 20.6-94.6 0L32 175.6 32 384c0 17.7 14.3 32 32 32l384 0c17.7 0 32-14.3 32-32l0-208.4zm0-53.1c0-14.6-11.9-26.5-26.5-26.5l-395 0c-14.6 0-26.5 11.9-26.5 26.5 0 8.4 4 16.4 10.8 21.4L227.6 279.3c16.9 12.4 39.9 12.4 56.8 0L469.2 143.8c6.8-5 10.8-12.9 10.8-21.4z"/></svg>