<svg width="98" height="93" viewBox="0 0 98 93" fill="none" xmlns="http://www.w3.org/2000/svg">
<path d="M58.0674 0.577209C58.8847 0.848702 60.2691 1.62969 61.6016 2.41705C62.968 3.22448 64.3083 4.05647 65.1162 4.49908L65.1191 4.50104C68.7318 6.50949 72.458 8.39305 76.2656 9.97272C80.6013 11.7714 85.0948 13.1051 89.6348 14.3487L94.1865 15.5762L94.1885 15.5772C94.4294 15.6428 95.1031 15.8147 95.7266 16.0401C96.0368 16.1523 96.3573 16.286 96.6152 16.4366C96.7439 16.5117 96.874 16.6013 96.9824 16.7071C97.0733 16.7957 97.1793 16.9247 97.2314 17.0958L97.25 17.1719C97.6395 19.1862 97.4551 21.3695 97.4658 23.3067C97.5446 37.9469 95.8724 52.3681 90.3154 64.5059C84.7493 76.6636 75.2934 86.5102 59.8672 91.9893L59.8516 91.9952L59.8359 91.9991C59.6077 92.0634 59.3778 92.1238 59.1475 92.1797H59.1465C58.4508 92.3468 57.569 92.2633 56.6602 92.0655C55.7367 91.8644 54.7224 91.531 53.7314 91.1465C51.8966 90.4347 50.0981 89.5276 49.0283 88.8995C48.0611 89.3898 46.3097 90.2484 44.5791 90.9796C43.6349 91.3784 42.687 91.7447 41.8721 91.9932C41.4648 92.1174 41.0809 92.2146 40.7422 92.2715C40.4131 92.3269 40.0844 92.3519 39.8057 92.2989C35.8548 91.5474 31.2397 89.3268 27.0107 86.6514C22.7759 83.9723 18.8793 80.8054 16.3662 78.1182C4.6726 65.614 1.58134 49.0358 0.767578 32.8458C0.511878 28.1785 0.439816 23.503 0.550781 18.8301L0.554688 18.6299L0.696289 18.4883C0.797566 18.3869 0.974082 18.2093 1.16113 18.046C1.25479 17.9642 1.35785 17.8799 1.46191 17.8077C1.55992 17.7397 1.68762 17.6613 1.82617 17.6172C3.87697 16.9651 6.1013 16.3877 8.12793 15.7813C11.7976 14.6499 15.4066 13.3292 18.9395 11.8243C23.2614 9.93662 27.8967 7.37275 32.0273 5.0274C33.1508 4.38955 34.4563 3.55237 35.7988 2.73444C37.1259 1.92593 38.483 1.13987 39.6602 0.646545L39.7656 0.6026L39.8789 0.608459C40.0082 0.615052 40.1436 0.652323 40.2598 0.690491C40.3842 0.731387 40.5246 0.786367 40.6748 0.851624C40.976 0.98251 41.3438 1.16432 41.75 1.37799C42.5636 1.806 43.5614 2.37793 44.5576 2.96979C46.2963 4.00273 48.0611 5.11661 48.8545 5.65729C49.7655 5.10744 51.5442 4.01632 53.2217 3.02057C54.1705 2.45738 55.1144 1.90862 55.9082 1.47272C56.6849 1.04619 57.3627 0.701456 57.7568 0.575256L57.9121 0.525452L58.0674 0.577209ZM57.8975 4.96295C57.1767 5.43595 56.133 6.09405 55.0762 6.711C54.3453 7.13764 53.5936 7.55256 52.9346 7.87506C59.4856 11.2157 66.0085 14.1316 73.0566 16.1553L74.541 16.5655L74.5742 16.5743L74.6064 16.588C74.7742 16.6587 75.0951 16.7404 75.5469 16.8467C75.9765 16.9479 76.493 17.0646 76.9883 17.2061C77.4795 17.3465 77.9835 17.5204 78.3867 17.7442C78.7659 17.9548 79.1911 18.2844 79.2822 18.7969C79.702 21.158 79.5154 23.8551 79.5088 26.1446C79.444 48.4122 75.0334 72.9189 54.418 85.7725C54.0106 86.0265 53.6012 86.2945 53.1963 86.5665C53.814 86.8355 54.5606 87.158 55.3037 87.463C56.3652 87.8985 57.3775 88.2794 57.9932 88.4346C58.7796 88.1823 59.7532 87.8378 60.4531 87.5069L60.4619 87.503L61.8818 86.8555C65.123 85.3539 67.8887 83.8888 70.917 81.796C88.0917 69.9273 92.8073 49.1688 93.293 29.2969C93.3676 26.2466 93.2448 22.633 93.4258 19.4678C91.7625 19.1403 89.7959 18.5573 88.249 18.1299C82.4152 16.5802 76.7138 14.5713 71.1982 12.1221L70.0977 11.627C67.2504 10.3225 64.4772 8.76671 61.7617 7.19342L59.0645 5.62311C58.9579 5.56105 58.8298 5.47905 58.707 5.40143C58.5795 5.32076 58.4489 5.23828 58.3193 5.16412C58.1886 5.08934 58.0686 5.02803 57.9658 4.98639C57.9404 4.9761 57.9172 4.96965 57.8975 4.96295ZM40.0371 4.91315C29.9917 11.4935 16.3062 18.3073 4.51953 20.919C4.17711 44.5751 7.04846 70.2937 29.2373 83.3555C30.4296 84.0573 32.522 85.218 34.6406 86.2628C36.7183 87.2873 38.7582 88.1661 40.0049 88.4268C42.0865 87.8649 44.3358 86.7202 46.3496 85.7471C54.7853 81.671 61.9571 75.3641 66.7334 67.294C75.1547 53.0657 75.1878 37.0202 75.5186 20.9053C73.4271 20.4761 70.5648 19.5834 68.6699 18.9571H68.6689C60.1564 16.1227 51.9998 12.3137 44.3623 7.60553V7.60455C42.9452 6.74803 41.4323 5.8587 40.0371 4.91315Z" fill="black" stroke="black"/>
<path d="M38.6996 17.4876C43.1996 17.1024 47.2391 18.7703 50.1147 22.2611C52.6183 25.3004 53.007 28.6195 52.975 32.2972C52.9673 33.1901 52.9966 34.1487 52.9467 35.0999C54.2406 34.9596 55.6622 35.0992 56.9711 35.5306C58.4973 36.0337 59.9122 36.9488 60.7729 38.3324C61.6645 39.7658 61.9819 41.5163 61.9809 43.1244C61.9772 48.634 61.984 54.151 61.9848 59.6624V59.6634C61.982 61.0799 62.0678 62.6741 61.8676 64.1664C61.6643 65.6817 61.1611 67.1653 59.9408 68.3929C58.0913 70.2536 56.0581 70.6289 53.6469 70.6165L53.6479 70.6175C52.29 70.6233 50.9109 70.622 49.5483 70.6205H49.5473L41.8354 70.6087L31.4418 70.6165L31.4428 70.6175C29.5135 70.6213 27.4858 70.6629 25.5346 70.5843H25.5326C24.3935 70.5342 23.3701 70.3743 22.4272 69.9886C21.5968 69.649 20.8487 69.1421 20.144 68.4144L19.8442 68.0892C17.7667 65.7143 18.045 62.8017 18.0483 60.1683L18.0571 54.0921L18.0365 46.5824C18.0327 45.1844 17.9283 43.5153 18.0834 42.0589C18.3788 39.287 19.5244 37.4269 21.2778 36.3314C22.8727 35.3349 24.9058 35.0131 27.1039 35.1195C26.9511 29.4774 26.8421 24.1315 32.0405 20.1244C34.2553 18.4172 36.0263 17.9231 38.6615 17.4925L38.6811 17.4886L38.6996 17.4876ZM40.6781 39.0736C35.7592 39.0721 29.7823 38.9088 24.9955 39.0999C24.0468 39.2994 23.4237 39.6454 23.0043 40.0677C22.5794 40.4955 22.3255 41.0396 22.1811 41.6917C22.0353 42.3501 22.0062 43.0974 22.017 43.9115C22.0273 44.6856 22.078 45.6105 22.0776 46.432L22.0756 54.6175L22.0766 60.6371V60.638C22.0754 61.7609 21.9817 62.8528 22.1488 63.8646C22.3091 64.8347 22.6982 65.6287 23.6137 66.1458C24.2182 66.4874 25.1599 66.6289 26.2328 66.6683C27.3042 66.7076 28.3589 66.6459 29.2397 66.6429H29.2406L36.3666 66.6273H36.3676C42.4671 66.6277 49.0702 66.7696 55.1049 66.6224C55.5201 66.5205 56.0541 66.2973 56.5268 65.9994C57.0329 65.6803 57.3798 65.3333 57.4985 65.0453C57.8199 64.2651 57.9416 63.0031 57.9711 61.6361C58.0006 60.2718 57.9397 58.9431 57.9379 57.9681V57.9671L57.9262 49.3578C57.924 47.8102 57.8737 46.0699 57.9223 44.5794C57.956 43.5494 57.9976 42.4737 57.7817 41.5257C57.5714 40.6031 57.1291 39.8553 56.2182 39.4164C55.9896 39.3064 55.5769 39.2143 55.0072 39.1507C54.4529 39.0889 53.8028 39.0592 53.1352 39.0482C51.7784 39.0258 50.4586 39.0788 49.6889 39.0785L40.6781 39.0736ZM43.9926 22.3607C42.4608 21.5248 40.7682 21.1394 39.2026 21.473L39.1791 21.4779L39.1537 21.4808C36.5395 21.7728 34.7248 22.7624 33.0502 24.808C31.7597 26.3845 31.2982 28.0666 31.1449 29.8783C31.0679 30.7898 31.069 31.7286 31.0815 32.7064C31.0915 33.4989 31.1067 34.3195 31.0922 35.1537C31.5739 35.1206 32.1078 35.1053 32.6401 35.0999L34.7387 35.1039L41.1703 35.1136L46.4936 35.1039L48.0365 35.0882C48.3586 35.0878 48.6822 35.0913 48.977 35.1029C48.814 33.5033 48.9373 31.9565 48.9096 30.5619C48.8777 28.9573 48.658 27.4203 47.6723 25.805C46.8508 24.4589 45.5235 23.1962 43.9926 22.3607Z" fill="black" stroke="black"/>
<path d="M39.3639 42.5113C39.8634 42.4458 40.2464 42.4124 40.6197 42.5376C40.9686 42.6548 41.275 42.9048 41.6549 43.1958L41.7916 43.3003L41.8356 43.4673C41.9241 43.8079 41.9794 44.3821 42.0162 45.0259C42.0539 45.6855 42.0739 46.4642 42.0777 47.2408C42.0829 48.2946 42.0573 49.3746 42.0065 50.1558C42.1285 50.109 42.251 50.0623 42.3736 50.0171L43.107 49.7329C44.0592 49.3636 45.5824 48.795 46.9 48.5503C47.3452 48.4677 47.787 48.4175 48.1891 48.4283C48.585 48.4389 48.9864 48.5088 49.319 48.7036C49.6739 48.9116 49.918 49.2439 49.9957 49.688C50.0689 50.1062 49.989 50.5893 49.7945 51.1265C49.7406 51.2754 49.6454 51.3912 49.5611 51.4751C49.4733 51.5627 49.3698 51.6424 49.2623 51.7144C49.0474 51.8583 48.7739 52.0007 48.4733 52.1382C47.8694 52.4145 47.0929 52.6998 46.3043 52.9654C45.202 53.3366 44.0244 53.6858 43.232 53.9204C43.6509 54.408 44.0396 54.9391 44.4039 55.4556C44.9373 56.2118 45.4154 56.9238 45.9068 57.4947C47.0352 58.8054 47.0747 60.2662 46.315 61.1079C45.9397 61.5237 45.3917 61.7435 44.7975 61.6617C44.2094 61.5806 43.6383 61.2148 43.1568 60.5874C42.2479 59.4029 40.9032 57.6495 40.0211 56.1929C39.9829 56.2403 39.9422 56.291 39.9 56.3452C39.6249 56.699 39.2892 57.1654 38.9469 57.6558C38.6053 58.145 38.2609 58.6527 37.9684 59.0855C37.6781 59.5149 37.4345 59.8773 37.3014 60.0679C36.8259 60.7486 36.2841 61.2217 35.7369 61.479C35.1926 61.7349 34.6112 61.7884 34.1168 61.5611C33.6087 61.3273 33.2954 60.8437 33.2164 60.2466C33.1391 59.6615 33.2807 58.9619 33.65 58.1919V58.1909C33.8568 57.7603 34.2245 57.2704 34.5719 56.8267C34.9367 56.3606 35.2864 55.9365 35.5279 55.5786C35.8654 55.0787 36.3402 54.4415 36.8072 53.896C36.2117 53.7182 34.704 53.3093 33.3229 52.8286C32.5949 52.5753 31.8743 52.2928 31.3131 51.9995C31.0334 51.8533 30.7752 51.6946 30.5719 51.5249C30.3816 51.3661 30.1711 51.1425 30.1031 50.8492C29.9806 50.32 29.9827 49.8391 30.1598 49.4351C30.3438 49.0153 30.6835 48.7548 31.0748 48.6128C31.4532 48.4756 31.8916 48.4427 32.3356 48.4644C32.7847 48.4863 33.272 48.5655 33.7652 48.6773C35.2776 49.0201 36.9752 49.7002 38.025 50.1363C37.9413 48.3783 37.9781 46.3685 38.0279 44.7036C38.0418 44.2407 38.1286 43.8514 38.3238 43.4986C38.5158 43.1519 38.7913 42.8789 39.1139 42.6177L39.2242 42.5288L39.3639 42.5113Z" fill="black" stroke="black"/>
</svg>
