<svg width="96" height="96" viewBox="0 0 96 96" fill="none" xmlns="http://www.w3.org/2000/svg">
<path d="M10.3529 7.84314C11.7333 7.84314 12.8627 8.97255 12.8627 10.3529V26.6353L18.6667 20.502C26.2902 12.4235 36.8941 7.84314 48 7.84314C70.1804 7.84314 88.1569 25.8196 88.1569 48C88.1569 70.1804 70.1804 88.1569 48 88.1569C32.5804 88.1569 19.2 79.4667 12.4706 66.7451C11.8275 65.5216 12.298 64 13.5216 63.3569C14.7451 62.7137 16.2667 63.1843 16.9098 64.4078C22.8078 75.5451 34.5255 83.1373 48 83.1373C67.4039 83.1373 83.1373 67.4039 83.1373 48C83.1373 28.5961 67.4039 12.8627 48 12.8627C38.2745 12.8627 28.9882 16.8627 22.3059 23.9373L16.1726 30.4314H32.9412C34.3216 30.4314 35.451 31.5608 35.451 32.9412C35.451 34.3216 34.3216 35.451 32.9412 35.451H10.3529C8.97255 35.451 7.84314 34.3216 7.84314 32.9412V10.3529C7.84314 8.97255 8.97255 7.84314 10.3529 7.84314Z" fill="black"/>
<path d="M48.2754 30.5996C53.0164 30.5997 56.8584 34.4426 56.8584 39.1836V42.8936C59.1495 43.0962 60.9502 45.0241 60.9502 47.3672V61.6885C60.9501 64.1661 58.9366 66.1796 56.459 66.1797H40.0918C37.6141 66.1797 35.5997 64.1661 35.5996 61.6885V47.3672C35.5996 45.0243 37.4007 43.0966 39.6914 42.8936V39.1836C39.6914 34.4426 43.5344 30.5996 48.2754 30.5996ZM40.0918 45.7207C39.1811 45.7207 38.4463 46.4565 38.4463 47.3672V61.6885C38.4464 62.5991 39.1812 63.334 40.0918 63.334H56.459C57.3695 63.3339 58.1044 62.599 58.1045 61.6885V47.3672C58.1045 46.4565 57.3696 45.7208 56.459 45.7207H40.0918ZM48.2754 33.4463C45.1078 33.4463 42.5381 36.016 42.5381 39.1836V42.875H54.0127V39.1836C54.0127 36.016 51.4429 33.4463 48.2754 33.4463Z" fill="black" stroke="black" stroke-width="0.8"/>
</svg>
