<svg width="71" height="71" viewBox="0 0 71 71" fill="none" xmlns="http://www.w3.org/2000/svg">
<path d="M0.228284 0C17.4854 0.080603 34.7505 9.21827e-07 52.0076 0.0403024C52.9668 -0.02418 53.5552 0.926935 54.2403 1.45085C56.9163 4.15105 59.7374 6.70617 62.3086 9.51115C65.0491 12.437 68.3619 14.8551 70.514 18.2888C53.0151 18.5145 35.5082 18.3372 18.0012 18.3775C17.9448 24.1486 18.1383 29.9359 17.8803 35.7071C11.7626 30.2019 6.20096 24.0842 0.252466 18.3855C-0.142488 12.292 -0.0135244 6.1097 0.228284 0Z" fill="white"/>
<path d="M17.945 35.6508C28.8667 35.683 39.7884 35.6669 50.71 35.6588C51.8062 35.7636 53.2007 35.409 53.9906 36.4165C57.9079 40.5434 62.0509 44.4445 66.0327 48.515C67.5158 50.1029 69.5711 51.3764 70.1353 53.6091C58.6575 53.7219 47.1716 53.6333 35.6857 53.6575C35.734 59.211 35.7179 64.7645 35.7018 70.31C35.2665 70.1569 34.396 69.8345 33.9608 69.6733C28.5684 64.3374 23.1439 59.0176 17.9047 53.5204C17.9369 47.5639 17.8724 41.6073 17.945 35.6508Z" fill="white"/>
</svg>
