<svg width="50" height="50" viewBox="0 0 50 50" fill="none" xmlns="http://www.w3.org/2000/svg">
<rect width="50" height="50" rx="15" fill="#181059" fill-opacity="0.1"/>
<path d="M11.955 11.9081C18.3817 11.9381 24.8114 11.9081 31.2381 11.9231C31.5953 11.8991 31.8144 12.2533 32.0695 12.4484C33.0661 13.454 34.1167 14.4055 35.0742 15.4501C36.0948 16.5397 37.3285 17.4403 38.13 18.719C31.6133 18.803 25.0935 18.737 18.5738 18.752C18.5528 20.9012 18.6248 23.0565 18.5288 25.2057C16.2505 23.1555 14.1793 20.8772 11.964 18.755C11.8169 16.4857 11.865 14.1834 11.955 11.9081Z" fill="#0C0D5B"/>
<path d="M18.5529 25.1844C22.6202 25.1965 26.6876 25.1905 30.7549 25.1875C31.1631 25.2265 31.6824 25.0944 31.9766 25.4696C33.4354 27.0065 34.9783 28.4593 36.4612 29.9752C37.0135 30.5665 37.7789 31.0408 37.989 31.8723C33.7146 31.9143 29.4371 31.8813 25.1597 31.8903C25.1777 33.9585 25.1717 36.0267 25.1657 38.0918C25.0036 38.0348 24.6794 37.9147 24.5173 37.8547C22.5092 35.8676 20.489 33.8864 18.5379 31.8393C18.5499 29.621 18.5259 27.4027 18.5529 25.1844Z" fill="#0C0D5B"/>
</svg>
