<svg width="30" height="24" viewBox="0 0 30 24" fill="none" xmlns="http://www.w3.org/2000/svg">
<path d="M4.76 0.00976562H0.830005C0.371606 0.00976562 0 0.381391 0 0.839781V4.17978C0 4.63818 0.371606 5.00977 0.830005 5.00977H4.76C5.21839 5.00977 5.59 4.63818 5.59 4.17978V0.839781C5.59 0.381391 5.21839 0.00976562 4.76 0.00976562Z" fill="#CA0080"/>
<path d="M28.78 0.00997901H25.39C24.93 0.00997901 24.56 0.389994 24.56 0.839994V14.39C24.56 14.67 24.2 14.77 24.07 14.52L16.19 0.369994C16.06 0.139995 15.8299 0.00997901 15.5499 0.00997901H9.90991C9.44991 0.00997901 9.07996 0.389994 9.07996 0.839994V22.49C9.07996 22.95 9.45991 23.32 9.90991 23.32H13.2999C13.7599 23.32 14.13 22.94 14.13 22.49V8.52999C14.13 8.25 14.49 8.14999 14.62 8.39999L22.7199 22.97C22.8499 23.2 23.08 23.33 23.36 23.33H28.75C29.21 23.33 29.5799 22.95 29.5799 22.5V0.829984C29.5799 0.369984 29.2 0 28.75 0H28.78V0.00997901Z" fill="#200020"/>
</svg>
