<svg width="30" height="24" viewBox="0 0 30 24" fill="none" xmlns="http://www.w3.org/2000/svg">
<path d="M0.830078 0.509766H4.75977C4.942 0.509766 5.08984 0.657584 5.08984 0.839844V4.17969C5.08984 4.36193 4.94203 4.50977 4.75977 4.50977H0.830078C0.647809 4.50977 0.5 4.36193 0.5 4.17969V0.839844L0.506836 0.773438C0.537558 0.62299 0.670566 0.509766 0.830078 0.509766Z" stroke="black"/>
<path d="M9.91003 0.509766H15.5497C15.6336 0.509766 15.6871 0.534443 15.7235 0.573242L15.7548 0.616211L23.6327 14.7637L23.6337 14.7627C23.8183 15.1038 24.1842 15.2204 24.494 15.1367C24.8017 15.0535 25.0604 14.7722 25.0604 14.3896V0.839844C25.0605 0.662278 25.2098 0.510036 25.3895 0.509766H28.8241C28.9679 0.544424 29.08 0.675804 29.08 0.830078V22.5C29.08 22.6779 28.9298 22.8301 28.7499 22.8301H23.3602C23.2485 22.8301 23.1907 22.7865 23.1552 22.7236L15.0575 8.15723H15.0555C14.8708 7.81626 14.505 7.69937 14.1952 7.7832C13.8877 7.86657 13.6298 8.14783 13.6298 8.53027V22.4902C13.6296 22.6678 13.4796 22.8203 13.2997 22.8203H9.91003C9.73238 22.8203 9.58009 22.6701 9.57996 22.4902V0.839844L9.58679 0.774414C9.6181 0.626313 9.75274 0.509766 9.91003 0.509766Z" stroke="black"/>
</svg>
