<svg width="24" height="19" viewBox="0 0 24 19" fill="none" xmlns="http://www.w3.org/2000/svg">
<path d="M20.9997 0C22.6565 0 23.9997 1.34315 23.9997 3V12.7812L23.9958 12.9355C23.9179 14.4694 22.6879 15.6997 21.154 15.7773L21.0407 15.7793V14.9775C22.2368 14.9558 23.1997 13.9824 23.1999 12.7812V3C23.1999 1.78497 22.2147 0.799805 20.9997 0.799805H5.95868C4.75747 0.799935 3.78232 1.76297 3.76044 2.95898H2.95966C2.98161 1.32112 4.31563 0.000130856 5.95868 0H20.9997Z" fill="#0C0D5B"/>
<path d="M0.111016 8.32672H21.0412" stroke="#0C0D5B"/>
<line x1="3.42307" y1="14.1146" x2="6.89667" y2="14.1146" stroke="#0C0D5B" stroke-width="0.8" stroke-linecap="round"/>
<line x1="8.50587" y1="14.1146" x2="11.9795" y2="14.1146" stroke="#0C0D5B" stroke-width="0.8" stroke-linecap="round"/>
<rect x="0.4" y="3.35889" width="20.2411" height="14.9808" rx="2.6" stroke="#0C0D5B" stroke-width="0.8"/>
</svg>
