<svg class="svg-inline--fa fa-magnifying-glass" data-prefix="fat" data-icon="magnifying-glass" role="img" viewBox="0 0 512 512" aria-hidden="true" data-fa-i2svg="" width="512" height="512" preserveAspectRatio="xMidYMid meet"><rect width="100%" height="100%" fill="transparent"></rect><path fill="#000000" d="M400 208a192 192 0 1 0 -384 0 192 192 0 1 0 384 0zM349.3 360.6C312.2 395 262.6 416 208 416 93.1 416 0 322.9 0 208S93.1 0 208 0 416 93.1 416 208c0 54.6-21 104.2-55.4 141.3l149 149c3.1 3.1 3.1 8.2 0 11.3s-8.2 3.1-11.3 0l-149-149z"></path></svg>