<svg width="24" height="19" viewBox="0 0 24 19" fill="none" xmlns="http://www.w3.org/2000/svg">
<path d="M20.9997 0C22.6565 0 23.9997 1.34315 23.9997 3V12.7812L23.9958 12.9355C23.9179 14.4694 22.6879 15.6997 21.154 15.7773L21.0407 15.7793V14.7783C22.1263 14.7566 22.9995 13.872 22.9997 12.7812V3C22.9997 1.96432 22.2125 1.11297 21.2038 1.01074L20.9997 1H5.95868C4.86793 1.00013 3.98248 1.87344 3.96063 2.95898H2.95966C2.98161 1.32112 4.31563 0.000130856 5.95868 0H20.9997Z" fill="#0C0D5B"/>
<path d="M0.111016 8.32672H21.0412" stroke="#0C0D5B" stroke-width="1.4"/>
<line x1="3.52307" y1="14.0146" x2="6.79667" y2="14.0146" stroke="#0C0D5B" stroke-linecap="round"/>
<line x1="8.60587" y1="14.0146" x2="11.8795" y2="14.0146" stroke="#0C0D5B" stroke-linecap="round"/>
<rect x="0.5" y="3.45889" width="20.0411" height="14.7808" rx="2.5" stroke="#0C0D5B"/>
</svg>
